<svg width="20" height="20" viewBox="0 0 20 20" fill="none" xmlns="http://www.w3.org/2000/svg">
<path d="M7.51453 3.99906L9.46979 2.04381C9.61043 1.90321 9.80116 1.82422 10 1.82422C10.1989 1.82422 10.3896 1.90321 10.5303 2.04381L12.4855 3.99906H15.25C15.4489 3.99906 15.6397 4.07808 15.7804 4.21873C15.921 4.35938 16 4.55015 16 4.74906V7.51356L17.9553 9.46881C18.0959 9.60945 18.1749 9.80018 18.1749 9.99906C18.1749 10.1979 18.0959 10.3887 17.9553 10.5293L16 12.4846V15.2491C16 15.448 15.921 15.6387 15.7804 15.7794C15.6397 15.92 15.4489 15.9991 15.25 15.9991H12.4855L10.5303 17.9543C10.3896 18.0949 10.1989 18.1739 10 18.1739C9.80116 18.1739 9.61043 18.0949 9.46979 17.9543L7.51453 15.9991H4.75004C4.55112 15.9991 4.36036 15.92 4.21971 15.7794C4.07905 15.6387 4.00004 15.448 4.00004 15.2491V12.4846L2.04479 10.5293C1.90418 10.3887 1.8252 10.1979 1.8252 9.99906C1.8252 9.80018 1.90418 9.60945 2.04479 9.46881L4.00004 7.51356V4.74906C4.00004 4.55015 4.07905 4.35938 4.21971 4.21873C4.36036 4.07808 4.55112 3.99906 4.75004 3.99906H7.51453ZM5.50003 5.49906V8.13531L3.63629 9.99906L5.50003 11.8628V14.4991H8.13629L10 16.3628L11.8638 14.4991H14.5V11.8628L16.3638 9.99906L14.5 8.13531V5.49906H11.8638L10 3.63531L8.13629 5.49906H5.50003ZM10 12.9991C9.20438 12.9991 8.44132 12.683 7.87871 12.1204C7.31611 11.5578 7.00003 10.7947 7.00003 9.99906C7.00003 9.20341 7.31611 8.44035 7.87871 7.87774C8.44132 7.31513 9.20438 6.99906 10 6.99906C10.7957 6.99906 11.5587 7.31513 12.1214 7.87774C12.684 8.44035 13 9.20341 13 9.99906C13 10.7947 12.684 11.5578 12.1214 12.1204C11.5587 12.683 10.7957 12.9991 10 12.9991ZM10 11.4991C10.3979 11.4991 10.7794 11.341 11.0607 11.0597C11.342 10.7784 11.5 10.3969 11.5 9.99906C11.5 9.60123 11.342 9.2197 11.0607 8.9384C10.7794 8.65709 10.3979 8.49906 10 8.49906C9.60221 8.49906 9.22068 8.65709 8.93937 8.9384C8.65807 9.2197 8.50003 9.60123 8.50003 9.99906C8.50003 10.3969 8.65807 10.7784 8.93937 11.0597C9.22068 11.341 9.60221 11.4991 10 11.4991Z" fill="#8113DD"/>
</svg>
