<svg width="44" height="44" viewBox="0 0 33 32" fill="none" xmlns="http://www.w3.org/2000/svg">
<rect x="0.33313" width="32" height="32" rx="16" fill="#F6F8FA"/>
<path d="M16.3331 23.5C12.1909 23.5 8.83313 20.1423 8.83313 16C8.83313 11.8578 12.1909 8.5 16.3331 8.5C20.4754 8.5 23.8331 11.8578 23.8331 16C23.8331 20.1423 20.4754 23.5 16.3331 23.5ZM16.3331 22C17.9244 22 19.4506 21.3679 20.5758 20.2426C21.701 19.1174 22.3331 17.5913 22.3331 16C22.3331 14.4087 21.701 12.8826 20.5758 11.7574C19.4506 10.6321 17.9244 10 16.3331 10C14.7418 10 13.2157 10.6321 12.0905 11.7574C10.9653 12.8826 10.3331 14.4087 10.3331 16C10.3331 17.5913 10.9653 19.1174 12.0905 20.2426C13.2157 21.3679 14.7418 22 16.3331 22ZM13.7081 17.5H17.8331C17.9326 17.5 18.028 17.4605 18.0983 17.3902C18.1686 17.3198 18.2081 17.2245 18.2081 17.125C18.2081 17.0255 18.1686 16.9302 18.0983 16.8598C18.028 16.7895 17.9326 16.75 17.8331 16.75H14.8331C14.3358 16.75 13.8589 16.5525 13.5073 16.2008C13.1557 15.8492 12.9581 15.3723 12.9581 14.875C12.9581 14.3777 13.1557 13.9008 13.5073 13.5492C13.8589 13.1975 14.3358 13 14.8331 13H15.5831V11.5H17.0831V13H18.9581V14.5H14.8331C14.7337 14.5 14.6383 14.5395 14.568 14.6098C14.4976 14.6802 14.4581 14.7755 14.4581 14.875C14.4581 14.9745 14.4976 15.0698 14.568 15.1402C14.6383 15.2105 14.7337 15.25 14.8331 15.25H17.8331C18.3304 15.25 18.8073 15.4475 19.159 15.7992C19.5106 16.1508 19.7081 16.6277 19.7081 17.125C19.7081 17.6223 19.5106 18.0992 19.159 18.4508C18.8073 18.8025 18.3304 19 17.8331 19H17.0831V20.5H15.5831V19H13.7081V17.5Z" fill="#525866"/>
</svg>
