<svg width="44" height="44" viewBox="0 0 44 44" fill="none" xmlns="http://www.w3.org/2000/svg">
<g filter="url(#filter0_d_3477_7432)">
<path d="M2 21C2 9.95431 10.9543 1 22 1C33.0457 1 42 9.95431 42 21C42 32.0457 33.0457 41 22 41C10.9543 41 2 32.0457 2 21Z" fill="white"/>
<path d="M2.5 21C2.5 10.2304 11.2304 1.5 22 1.5C32.7696 1.5 41.5 10.2304 41.5 21C41.5 31.7696 32.7696 40.5 22 40.5C11.2304 40.5 2.5 31.7696 2.5 21Z" stroke="#E2E4E9"/>
<path fill-rule="evenodd" clip-rule="evenodd" d="M17.9334 18.5716C17.5002 19.1961 17.2836 19.9482 17.2836 20.8291H17.281C17.281 21.9388 17.596 22.7973 18.2261 23.4021C18.8562 24.0069 19.6622 24.3093 20.6414 24.3093C21.2781 24.3093 21.8136 24.2462 22.2468 24.1174C22.9333 23.9254 23.633 23.4416 24.3471 22.6632C24.3983 22.7276 24.4875 22.8512 24.6162 23.0379C24.7422 23.2233 24.8341 23.3456 24.8918 23.4113C24.9483 23.4744 25.0441 23.577 25.178 23.7164C25.3119 23.857 25.4668 24.0043 25.6453 24.1568C25.8619 24.2462 26.047 24.2331 26.1992 24.1174C26.2885 24.0411 26.8608 23.5454 27.9188 22.6251C28.0212 22.5488 28.0711 22.4594 28.0711 22.3582C28.0711 22.2688 28.033 22.1662 27.9569 22.0518L27.5185 21.4681C27.4292 21.3471 27.3347 21.1499 27.2428 20.8738C27.1457 20.6016 27.0984 20.2992 27.0984 19.9666V15.3385C27.0984 15.2885 27.0932 15.1255 27.08 14.852C27.0669 14.5785 27.0485 14.3984 27.0223 14.3156C26.9987 14.2328 26.9593 14.0829 26.9068 13.8686C26.8569 13.6503 26.8018 13.4846 26.7361 13.3689C26.6744 13.2532 26.5865 13.1244 26.4775 12.9771C26.3686 12.8312 26.2517 12.6931 26.1257 12.5656C25.3093 11.8135 24.1764 11.4375 22.7259 11.4375H22.2494C21.1179 11.5006 20.1269 11.807 19.2802 12.3552C18.4348 12.9035 17.9032 13.745 17.6866 14.8796C17.6735 14.9309 17.6669 14.9743 17.6669 15.0137C17.6669 15.1926 17.7759 15.3069 17.9912 15.3595L20.1872 15.6277C20.3907 15.5896 20.518 15.4424 20.5705 15.1873C20.6585 14.7797 20.8554 14.4602 21.1612 14.2301C21.4671 13.9987 21.8307 13.8672 22.2507 13.8278H22.3991C22.9727 13.8278 23.3928 14.0198 23.6592 14.4037C23.8364 14.6824 23.9283 15.232 23.9283 16.0472V16.3719C23.1512 16.435 22.5894 16.485 22.2481 16.5244C21.2426 16.652 20.396 16.8623 19.7094 17.1555C18.9573 17.475 18.3666 17.947 17.9334 18.5716ZM20.9394 21.6416C20.6913 21.3392 20.5679 20.9421 20.5679 20.4452L20.5666 20.4465C20.5666 19.3499 21.1258 18.6426 22.2468 18.3244C22.6275 18.2232 23.188 18.1706 23.927 18.1706V18.6478C23.927 19.0554 23.9244 19.3499 23.9178 19.5287C23.9113 19.7076 23.8732 19.9403 23.8036 20.2256C23.7327 20.5122 23.6277 20.7765 23.4886 21.0197C23.1959 21.568 22.7811 21.9112 22.2481 22.0518C22.2219 22.0518 22.1733 22.0584 22.1037 22.0716C22.0328 22.0834 21.9803 22.0886 21.941 22.0886C21.5209 22.0886 21.1888 21.9401 20.9394 21.6416Z" fill="#221F1F"/>
<path d="M28.6998 26.45C28.6512 26.5013 28.6118 26.5513 28.5856 26.6039V26.6065C28.5725 26.6315 28.5672 26.6499 28.5672 26.663C28.5541 26.6893 28.5593 26.713 28.5856 26.7393C28.6118 26.7656 28.6604 26.7787 28.7392 26.7787C29.0056 26.7406 29.2984 26.7038 29.6187 26.6644C29.9101 26.6381 30.1647 26.6249 30.38 26.6249C30.9668 26.6249 31.3225 26.7025 31.4498 26.8537C31.4997 26.9168 31.526 27.0194 31.526 27.16C31.526 27.5939 31.2923 28.3644 30.8197 29.4741C30.7817 29.5753 30.7987 29.645 30.8775 29.6844C30.9011 29.6963 30.9274 29.7028 30.9536 29.7028C31.0048 29.7028 31.0613 29.6792 31.1269 29.6266C31.5575 29.2571 31.8948 28.768 32.1377 28.1632C32.3792 27.5584 32.5 27.0325 32.5 26.5855V26.4514C32.5 26.2988 32.4763 26.1845 32.4238 26.1095C32.3109 25.9675 31.9657 25.8729 31.3921 25.8203C31.2792 25.7953 31.1571 25.7874 31.0298 25.8005C30.5716 25.8137 30.1004 25.8847 29.6187 26.0109C29.3246 26.0872 29.0188 26.2344 28.6998 26.45Z" fill="#FF9900"/>
<path d="M11.8439 26.2593C11.7035 26.1699 11.6024 26.1765 11.5394 26.2791C11.5131 26.3172 11.5 26.354 11.5 26.3934C11.5 26.4566 11.5394 26.5223 11.6168 26.5841C13.0174 27.8463 14.6005 28.8258 16.3726 29.52C18.1408 30.2142 20.0179 30.5627 22.0039 30.5627C23.2903 30.5627 24.6069 30.3825 25.9551 30.0275C27.3045 29.6699 28.5266 29.1663 29.62 28.5155C29.9771 28.2999 30.2698 28.1079 30.4995 27.9423C30.6767 27.8147 30.7122 27.6741 30.6045 27.5215C30.4956 27.3677 30.3459 27.3309 30.1543 27.4071C30.1084 27.4295 30.0353 27.4614 29.9338 27.5055L29.897 27.5215L29.6213 27.6359C27.189 28.5668 24.7251 29.0335 22.231 29.0335C18.4886 29.0335 15.0258 28.1079 11.8439 26.2593Z" fill="#FF9900"/>
</g>
<defs>
<filter id="filter0_d_3477_7432" x="0" y="0" width="44" height="44" filterUnits="userSpaceOnUse" color-interpolation-filters="sRGB">
<feFlood flood-opacity="0" result="BackgroundImageFix"/>
<feColorMatrix in="SourceAlpha" type="matrix" values="0 0 0 0 0 0 0 0 0 0 0 0 0 0 0 0 0 0 127 0" result="hardAlpha"/>
<feOffset dy="1"/>
<feGaussianBlur stdDeviation="1"/>
<feComposite in2="hardAlpha" operator="out"/>
<feColorMatrix type="matrix" values="0 0 0 0 0.894118 0 0 0 0 0.898039 0 0 0 0 0.905882 0 0 0 0.24 0"/>
<feBlend mode="normal" in2="BackgroundImageFix" result="effect1_dropShadow_3477_7432"/>
<feBlend mode="normal" in="SourceGraphic" in2="effect1_dropShadow_3477_7432" result="shape"/>
</filter>
</defs>
</svg>
