<svg width="20" height="20" viewBox="0 0 20 20" fill="none" xmlns="http://www.w3.org/2000/svg">
<path d="M8.77375 15.8748L10.2213 13.3682C9.5817 13.4103 8.94339 13.2694 8.38103 12.9619C7.81866 12.6544 7.3555 12.1931 7.04575 11.632L4.5955 7.39C4.19923 8.21087 3.99511 9.11121 3.99865 10.0227C4.00219 10.9342 4.21328 11.833 4.61591 12.6507C5.01854 13.4685 5.60214 14.1838 6.32242 14.7424C7.04271 15.3011 7.88076 15.6883 8.773 15.8748H8.77375ZM10.4425 15.9843C11.3516 15.9173 12.2335 15.6442 13.0212 15.1855C13.8089 14.7269 14.4818 14.0948 14.9887 13.3372C15.4956 12.5796 15.8233 11.7165 15.9468 10.8134C16.0703 9.91025 15.9864 8.99086 15.7015 8.125H12.8065C13.1781 8.67964 13.376 9.3324 13.375 10C13.376 10.6126 13.2095 11.2137 12.8935 11.7385L10.4425 15.9835V15.9843ZM11.6073 10.966L11.6237 10.9375C11.7875 10.6538 11.8741 10.3321 11.8749 10.0045C11.8757 9.67695 11.7906 9.35488 11.6282 9.0704C11.4657 8.78592 11.2316 8.54896 10.9491 8.38312C10.6666 8.21728 10.3455 8.12835 10.018 8.12519C9.6904 8.12203 9.36772 8.20475 9.08206 8.36511C8.79641 8.52547 8.55775 8.75786 8.38986 9.03916C8.22197 9.32045 8.13071 9.64082 8.12516 9.96836C8.11961 10.2959 8.19998 10.6192 8.35825 10.906L8.37625 10.9375C8.53925 11.2203 8.7733 11.4557 9.05522 11.6203C9.33715 11.7849 9.65717 11.8729 9.9836 11.8758C10.31 11.8787 10.6316 11.7963 10.9163 11.6367C11.2011 11.4771 11.4393 11.2459 11.6073 10.966ZM5.52625 6.001L6.973 8.506C7.25179 7.94126 7.68305 7.4658 8.21798 7.13339C8.75292 6.80097 9.37019 6.62487 10 6.625H14.9613C14.4113 5.81577 13.6717 5.15346 12.8069 4.69589C11.9421 4.23832 10.9784 3.99941 10 4C9.15526 3.99905 8.31989 4.17692 7.54883 4.52193C6.77776 4.86694 6.08845 5.37127 5.52625 6.00175V6.001ZM10 17.5C5.85775 17.5 2.5 14.1423 2.5 10C2.5 5.85775 5.85775 2.5 10 2.5C14.1423 2.5 17.5 5.85775 17.5 10C17.5 14.1423 14.1423 17.5 10 17.5Z" fill="#525866"/>
</svg>
