<svg width="40" height="40" viewBox="0 0 40 40" fill="none" xmlns="http://www.w3.org/2000/svg">
<g clip-path="url(#clip0_3438_17363)">
<rect y="0.000335693" width="40" height="40" rx="20" fill="#C2EFFF"/>
<path d="M16.1353 8.6226C16.0227 8.86982 15.9963 9.0381 15.9963 9.0381C15.9963 9.0381 14.6291 10.7362 13.3498 12.9888C13.3498 12.9888 13.2288 9.37147 15.0827 8.00835C15.162 7.94985 15.2358 7.90658 15.3039 7.87613H15.3043C16.0043 7.56159 16.1321 8.59775 16.1353 8.6226Z" fill="#3D0027" stroke="black" stroke-width="0.356161" stroke-linecap="round" stroke-linejoin="round"/>
<path d="M17.4803 7.26254C16.6841 7.68206 16.3083 8.24421 16.1356 8.62286C16.1324 8.59801 16.0046 7.56185 15.3046 7.87599C15.3182 7.85755 15.7758 7.27336 17.4803 7.26254Z" fill="#3D0027" stroke="black" stroke-width="0.356161" stroke-linecap="round" stroke-linejoin="round"/>
<path d="M38.9008 31.5505C38.2569 33.1897 35.4914 36.2777 31.447 38.7972C28.5541 40.5995 25.0064 42.1109 21.113 42.5921C20.3365 42.6886 19.5463 42.7435 18.745 42.7519C15.3981 42.7868 12.4571 41.8196 10.0057 40.4889C4.81129 37.6693 1.8158 33.2181 1.8158 33.2181C1.8158 33.2181 3.00261 31.5637 4.69589 30.2968C4.7023 30.2916 4.70911 30.2863 4.71593 30.2815C6.41962 29.013 16.2075 27.8165 16.6787 27.5265C16.6787 27.5265 16.6743 27.5982 16.6711 27.726C16.6466 28.7786 16.7296 33.6477 20.3581 33.7434C21.2761 33.7679 22.0185 33.4353 22.6184 32.9056C24.6779 31.0877 25.0529 26.9467 25.0529 26.9467C25.1583 27.2255 27.6317 27.8306 30.2774 28.4124C33.1378 29.041 36.1998 29.6425 36.6895 29.7743C37.2737 29.9313 37.9833 30.5764 38.4381 31.0436C38.7173 31.3305 38.9008 31.5505 38.9008 31.5505Z" fill="#E86F3A" stroke="black" stroke-width="0.356161" stroke-linecap="round" stroke-linejoin="round"/>
<path d="M10.0066 40.4883C4.81214 37.6687 1.81665 33.2176 1.81665 33.2176C1.81665 33.2176 3.00347 31.5631 4.69675 30.2962C4.80253 30.3351 4.9063 30.3843 5.00727 30.444C5.63795 30.8175 5.98534 31.5287 6.20611 32.2275C6.42689 32.9267 6.56112 33.6635 6.92453 34.3002C7.55801 35.4105 8.79652 36.0608 9.47968 37.1414C9.88637 37.7853 10.0719 38.5518 10.0999 39.3127C10.1144 39.7054 10.0819 40.1005 10.0066 40.4883Z" fill="#49A2A6" stroke="black" stroke-width="0.356161" stroke-linecap="round" stroke-linejoin="round"/>
<path d="M17.57 27.333C15.9969 27.914 14.6022 28.9682 13.6137 30.3229C13.4398 30.5613 13.2719 30.8302 13.2819 31.1251C13.3036 31.7421 14.018 32.0378 14.5569 32.3391C15.5614 32.9005 16.2333 33.9022 16.8095 34.8983C17.1425 35.4741 17.564 36.1328 18.2275 36.1793C18.486 36.1973 18.74 36.114 18.9852 36.0302C19.4396 35.8751 19.8932 35.7165 20.3447 35.5534C20.9522 35.3346 21.5844 35.0894 22.0023 34.5974C22.5032 34.008 22.5982 33.1854 22.6715 32.4157C22.7544 31.5442 22.8165 30.5882 22.3113 29.8737C21.6566 28.9482 20.3023 28.7867 19.5522 27.9364" fill="#49A2A6"/>
<path d="M17.57 27.333C15.9969 27.914 14.6022 28.9682 13.6137 30.3229C13.4398 30.5613 13.2719 30.8302 13.2819 31.1251C13.3036 31.7421 14.018 32.0378 14.5569 32.3391C15.5614 32.9005 16.2333 33.9022 16.8095 34.8983C17.1425 35.4741 17.564 36.1328 18.2275 36.1793C18.486 36.1973 18.74 36.114 18.9852 36.0302C19.4396 35.8751 19.8932 35.7165 20.3447 35.5534C20.9522 35.3346 21.5844 35.0894 22.0023 34.5974C22.5032 34.008 22.5982 33.1854 22.6715 32.4157C22.7544 31.5442 22.8165 30.5882 22.3113 29.8737C21.6566 28.9482 20.3023 28.7867 19.5522 27.9364" stroke="black" stroke-width="0.356161" stroke-linecap="round" stroke-linejoin="round"/>
<path d="M31.4486 38.7975C28.5556 40.5997 25.008 42.1111 21.1146 42.5923C21.0565 41.8739 21.024 41.1535 21.018 40.4331C21.0112 39.6201 21.0577 38.7466 21.5517 38.1007C21.9917 37.5253 22.7137 37.2368 23.4241 37.0958C24.1345 36.9547 24.8666 36.9343 25.5702 36.762C26.5723 36.516 27.5207 35.9623 28.5524 35.9931C29.7336 36.0284 30.8079 36.8894 31.2394 37.9897C31.342 38.2505 31.4109 38.5218 31.4486 38.7975Z" fill="#49A2A6" stroke="black" stroke-width="0.356161" stroke-linecap="round" stroke-linejoin="round"/>
<path d="M38.4379 31.0434C38.2388 31.412 37.9555 31.7213 37.5773 31.9193C36.9382 32.2539 36.1757 32.2006 35.4601 32.2931C34.1867 32.4574 32.8388 33.0925 31.6892 32.5203C30.7508 32.0531 30.3313 30.9252 30.2616 29.879C30.2292 29.3914 30.2536 28.9014 30.2772 28.4121C33.1377 29.0408 36.1997 29.6422 36.6893 29.774C37.2735 29.9311 37.9831 30.5762 38.4379 31.0434Z" fill="#49A2A6" stroke="black" stroke-width="0.356161" stroke-linecap="round" stroke-linejoin="round"/>
<path d="M25.053 26.9463C25.053 26.9463 25.0422 27.0677 25.0137 27.2776C24.9616 27.6627 24.8502 28.3459 24.6399 29.128C24.0986 31.141 22.9005 33.8103 20.3582 33.743C16.2893 33.6357 16.6788 27.5261 16.6788 27.5261C17.1504 27.2364 16.8575 23.0589 16.8575 23.0589C15.619 23.462 14.3107 23.5938 13.2085 23.0533C13.0117 22.9567 12.8214 22.8389 12.6395 22.6971C9.87679 20.5482 11.5236 16.204 13.3499 12.9889C14.6293 10.7363 15.9964 9.03823 15.9964 9.03823C15.9964 9.03823 16.8651 8.555 17.8119 8.84029C18.6497 9.09192 19.5492 9.94457 19.9631 12.2637C20.0232 12.6007 20.0729 12.9689 20.111 13.3708C20.7056 19.6607 20.9689 21.5022 23.4559 22.9851C23.4547 22.9895 23.4535 22.9952 23.4523 23.0016C23.4507 23.0116 23.4495 23.0236 23.4487 23.0372C23.4475 23.0569 23.4471 23.0797 23.4479 23.1065C23.4479 23.1138 23.4479 23.1214 23.4483 23.1294C23.4491 23.1522 23.4503 23.1771 23.4523 23.2039C23.4523 23.2099 23.4531 23.2159 23.4535 23.2223C23.4551 23.2412 23.4567 23.2608 23.4587 23.2816C23.4595 23.2885 23.4603 23.2953 23.4611 23.3021C23.4615 23.3061 23.4619 23.3101 23.4623 23.3145C23.4647 23.3369 23.4675 23.3602 23.4707 23.3846C23.4783 23.4415 23.4879 23.5036 23.5 23.5689C23.502 23.5798 23.504 23.5906 23.506 23.6018C23.5128 23.6387 23.5208 23.6767 23.5288 23.7156C23.5332 23.7348 23.5376 23.7548 23.5424 23.7749C23.548 23.7989 23.5536 23.823 23.5597 23.8474C23.5657 23.8718 23.5721 23.8963 23.5789 23.9211C23.5825 23.9344 23.5861 23.9476 23.5897 23.9612C23.5929 23.9728 23.5961 23.9844 23.5997 23.9965C23.643 24.1479 23.6975 24.3062 23.7644 24.4637C23.7688 24.4749 23.7736 24.4861 23.7788 24.4973C23.7856 24.5129 23.7924 24.5286 23.7997 24.5442C23.8057 24.5574 23.8117 24.5702 23.8177 24.5835C23.8305 24.6103 23.8433 24.6371 23.8566 24.6636C23.8758 24.7021 23.8958 24.7401 23.9171 24.7782C23.9239 24.791 23.9311 24.8038 23.9387 24.8167C23.9607 24.8547 23.9832 24.8928 24.0072 24.93C24.0305 24.9673 24.0549 25.0042 24.0809 25.0402C24.089 25.0523 24.0978 25.0643 24.107 25.0763C24.1154 25.0883 24.1246 25.0999 24.1334 25.112C24.1511 25.1356 24.1691 25.1584 24.1883 25.1813C24.1975 25.1929 24.2068 25.2041 24.2168 25.2153C24.2264 25.2266 24.236 25.2378 24.246 25.249C24.2484 25.2522 24.2512 25.255 24.2536 25.2578C24.2689 25.275 24.2849 25.2923 24.3009 25.3087C24.3181 25.3267 24.3354 25.3448 24.3534 25.362C24.3578 25.3664 24.3622 25.3708 24.367 25.3752C24.3815 25.3892 24.3963 25.4029 24.4115 25.4161C24.4151 25.4197 24.4187 25.4229 24.4223 25.4261C24.4396 25.4417 24.4576 25.4569 24.4756 25.4718C24.4764 25.4726 24.4776 25.4734 24.4788 25.4742C24.498 25.4902 24.5177 25.5058 24.5377 25.5207C24.5417 25.5239 24.5457 25.5271 24.5501 25.5299C24.569 25.5439 24.5882 25.5579 24.6074 25.5711C24.6255 25.5832 24.6439 25.5956 24.6627 25.6072C24.6727 25.6136 24.6828 25.62 24.6932 25.6256C24.7116 25.6372 24.7304 25.6485 24.7497 25.6589C24.7497 25.6589 24.7725 26.2034 25.053 26.9463Z" fill="#94624B" stroke="black" stroke-width="0.356161" stroke-linecap="round" stroke-linejoin="round"/>
<path d="M38.9008 31.5505C37.7044 34.5957 29.1855 42.6434 18.745 42.7519C8.30483 42.8609 1.8158 33.2181 1.8158 33.2181C1.8158 33.2181 3.01223 31.5505 4.71593 30.2815C6.41962 29.013 16.2075 27.8165 16.6787 27.5265C16.6787 27.5265 16.2892 33.636 20.3581 33.7434C24.4274 33.8512 25.0529 26.9467 25.0529 26.9467C25.2721 27.5273 35.7471 29.5202 36.6895 29.7743C37.6319 30.0279 38.9008 31.5505 38.9008 31.5505Z" stroke="black" stroke-width="0.356161" stroke-linecap="round" stroke-linejoin="round"/>
<path d="M20.1108 21.4243C19.2846 21.9708 18.1062 22.6528 16.8573 23.0591" stroke="black" stroke-width="0.356161" stroke-linecap="round" stroke-linejoin="round"/>
<path d="M28.9912 19.6626C27.9438 23.6974 26.7706 22.8316 26.7398 25.0493C26.4048 23.9972 25.9476 24.2724 23.4602 22.7895C23.0824 22.5639 22.7558 22.3303 22.4717 22.0743C20.9443 20.6971 20.641 18.6665 20.1706 13.7541V13.7537C20.1522 13.565 20.1342 13.3727 20.1153 13.1752C19.5211 6.88486 16.0007 8.84258 16.0007 8.84258C16.0007 8.84258 16.0272 8.6743 16.1398 8.42748C16.3125 8.04843 16.6883 7.48628 17.4845 7.06676C17.9256 6.83397 18.4966 6.64525 19.2334 6.5563C19.9054 6.47456 20.7151 6.47616 21.6912 6.60237C24.276 6.93694 26.3431 9.14069 27.6473 11.772C28.9856 14.4706 29.5217 17.6195 28.9912 19.6626Z" fill="#3D0027" stroke="black" stroke-width="0.356161" stroke-linecap="round" stroke-linejoin="round"/>
<path d="M27.0224 26.4597C26.7451 25.8102 25.7807 26.2293 24.7506 25.6591C24.5959 25.5734 24.4589 25.4668 24.3371 25.345C24.3058 25.3142 24.2761 25.2825 24.2469 25.2496C23.8102 24.7568 23.5946 24.0761 23.504 23.5872C23.4467 23.2775 23.4391 23.0447 23.4568 22.9854C25.9442 24.4683 26.4014 24.193 26.7363 25.2452L27.0224 26.4597Z" fill="#3D0027" stroke="black" stroke-width="0.356161" stroke-linecap="round" stroke-linejoin="round"/>
<path d="M27.0936 26.764L27.0447 26.5565" stroke="black" stroke-width="0.356161" stroke-linecap="round" stroke-linejoin="round"/>
<path d="M29.0602 23.6057C29.0486 23.6577 29.0366 23.709 29.0242 23.7587C28.6351 25.3025 27.7376 25.7613 27.3922 25.9132C27.0821 26.0498 27.0284 26.3074 27.0396 26.5038C27.034 26.4886 27.028 26.4737 27.0216 26.4593L26.7355 25.2448C26.7663 23.0271 27.9395 23.8929 28.9869 19.8581C29.0506 20.2119 29.0991 20.5452 29.1344 20.859C29.265 22.019 29.2125 22.9141 29.0602 23.6057Z" fill="#3D0027" stroke="black" stroke-width="0.356161" stroke-linecap="round" stroke-linejoin="round"/>
<path d="M28.9857 26.4592C28.944 26.5558 28.8975 26.6407 28.8466 26.7165C28.5525 27.1596 28.1338 27.2862 27.8874 27.5447C27.3825 28.0744 27.3333 28.5428 27.3333 28.5428L27.0936 26.7653C27.084 26.6644 27.0656 26.5778 27.0396 26.5041C27.0283 26.3074 27.082 26.0497 27.3922 25.9131C27.7375 25.7612 28.6351 25.3024 29.0241 23.7586C29.0838 24.0872 29.1251 24.3825 29.1507 24.6485C29.2349 25.5212 29.1499 26.0794 28.9857 26.4592Z" fill="#3D0027" stroke="black" stroke-width="0.356161" stroke-linecap="round" stroke-linejoin="round"/>
<path d="M27.3341 28.5431C27.199 27.7081 26.1761 28.2775 25.2293 27.4849C25.1612 27.4276 25.0979 27.3675 25.039 27.3042C25.0366 27.3022 25.0342 27.2998 25.0322 27.2974C24.6395 26.8735 24.4416 26.3314 24.343 25.9094C24.2949 25.7043 24.2705 25.5276 24.258 25.4062C24.2504 25.3292 24.2476 25.2748 24.2468 25.2495C24.2761 25.2824 24.3057 25.314 24.337 25.3449C24.4588 25.4667 24.5958 25.5733 24.7505 25.659C25.7806 26.2292 26.7451 25.8101 27.0223 26.4596L27.0452 26.5569C27.0588 26.6707 27.0901 26.7545 27.0941 26.7645C27.0941 26.7653 27.0941 26.7657 27.0941 26.7657L27.3337 28.5431H27.3341Z" fill="#3D0027" stroke="black" stroke-width="0.356161" stroke-linecap="round" stroke-linejoin="round"/>
<path d="M24.2468 25.2489C24.2468 25.2388 24.2468 25.2332 24.2472 25.2332" stroke="black" stroke-width="0.356161" stroke-linecap="round" stroke-linejoin="round"/>
<path d="M27.0446 26.5569C27.0426 26.5401 27.041 26.5224 27.0398 26.5044" stroke="black" stroke-width="0.356161" stroke-linecap="round" stroke-linejoin="round"/>
<path d="M28.8851 28.4498C28.8663 28.4911 28.8466 28.5311 28.8254 28.5696C28.5902 29.0096 28.2432 29.2664 27.9732 29.4527C27.4382 29.8217 27.4959 30.3022 27.5 30.3318C27.4907 30.2957 27.4803 30.2617 27.4687 30.2296L27.3345 28.5424C27.3345 28.5424 27.3838 28.074 27.8886 27.5443C28.135 27.2858 28.5537 27.1592 28.8478 26.7161C28.8987 26.6403 28.9452 26.5554 28.9869 26.4588C28.9993 26.5173 29.0105 26.5746 29.0205 26.6307C29.0546 26.8174 29.0758 26.9917 29.0859 27.1544C29.1215 27.7033 29.0338 28.1228 28.8851 28.4498Z" fill="#3D0027" stroke="black" stroke-width="0.356161" stroke-linecap="round" stroke-linejoin="round"/>
<path d="M27.4675 30.2308C27.1971 29.4736 26.3412 29.6683 25.7899 29.1374C25.7622 29.1105 25.735 29.0821 25.7089 29.052C25.4224 28.7227 25.2445 28.213 25.1436 27.828C25.0758 27.5711 25.0426 27.3696 25.0338 27.3135C25.0322 27.3035 25.0314 27.2979 25.0314 27.2979C25.0334 27.3003 25.0358 27.3027 25.0382 27.3047C25.0971 27.368 25.1604 27.4281 25.2285 27.4854C26.1753 28.2779 27.1983 27.7085 27.3333 28.5436L27.4675 30.2308Z" fill="#3D0027" stroke="black" stroke-width="0.356161" stroke-linecap="round" stroke-linejoin="round"/>
<path d="M27.7584 31.8689C27.6506 31.3075 27.2231 31.5303 26.616 31.2983C26.4958 31.2522 26.392 31.1897 26.3031 31.114C26.3031 31.114 26.3028 31.1137 26.3023 31.1132C26.2622 31.0795 26.2254 31.0435 26.1917 31.005C25.8776 30.6552 25.7866 30.1299 25.769 29.7256C25.7542 29.3895 25.7898 29.137 25.7898 29.137C26.3412 29.6679 27.197 29.4732 27.4675 30.2305C27.4791 30.2626 27.4895 30.2966 27.4987 30.3327C27.4987 30.3331 27.4991 30.3339 27.4991 30.3343L27.7584 31.8689Z" fill="#3D0027" stroke="black" stroke-width="0.356161" stroke-linecap="round" stroke-linejoin="round"/>
<path d="M29.0026 30.333C28.955 30.45 28.8985 30.5582 28.8368 30.656C28.642 30.9685 28.3964 31.178 28.2137 31.2458C27.7297 31.4253 27.7637 31.8965 27.7637 31.8965C27.7621 31.8872 27.7605 31.878 27.7589 31.8692L27.4997 30.3346C27.4997 30.3346 27.4993 30.3334 27.4993 30.333C27.4953 30.3034 27.4376 29.8229 27.9725 29.4539C28.2425 29.2676 28.5895 29.0108 28.8247 28.5708C28.846 28.5323 28.8656 28.4923 28.8844 28.451C28.8937 28.4686 28.9021 28.4863 28.9105 28.5035C28.9858 28.6574 29.0423 28.8084 29.0816 28.9551C29.2242 29.48 29.1577 29.9532 29.0026 30.333Z" fill="#3D0027" stroke="black" stroke-width="0.356161" stroke-linecap="round" stroke-linejoin="round"/>
<path d="M27.994 33.6665C27.9187 33.3956 27.9864 33.1721 27.0392 32.6668C26.9943 32.6428 26.9518 32.6179 26.9121 32.5915C26.8416 32.5454 26.7787 32.4961 26.723 32.4444C26.3368 32.087 26.2919 31.6254 26.2963 31.3502C26.2983 31.2155 26.3123 31.1258 26.3039 31.1138C26.3929 31.1895 26.4966 31.252 26.6168 31.2981C27.2239 31.5301 27.6514 31.3073 27.7592 31.8687C27.7608 31.8775 27.7624 31.8867 27.764 31.8959L27.982 33.5683C27.9844 33.6156 27.9908 33.6509 27.994 33.6665Z" fill="#3D0027" stroke="black" stroke-width="0.356161" stroke-linecap="round" stroke-linejoin="round"/>
<path d="M29.0284 32.1666C29.0284 32.1666 29.0284 32.1666 29.0284 32.1674C28.8682 32.639 28.5704 32.8826 28.3288 32.9944C28.0107 33.1414 27.9754 33.4167 27.9826 33.5685L27.7647 31.8961C27.7647 31.8961 27.7306 31.4249 28.2146 31.2454C28.3974 31.1777 28.643 30.9681 28.8377 30.6556C28.8994 30.5578 28.9559 30.4496 29.0036 30.3326C29.0188 30.3951 29.0324 30.4561 29.0449 30.5158C29.0725 30.648 29.0937 30.7734 29.1094 30.8924C29.1815 31.4373 29.1354 31.8524 29.0288 32.1666H29.0284Z" fill="#3D0027" stroke="black" stroke-width="0.356161" stroke-linecap="round" stroke-linejoin="round"/>
<path d="M27.9952 33.6724C27.9952 33.6724 27.9959 33.6757 27.9966 33.6777" stroke="black" stroke-width="0.356161" stroke-linecap="round" stroke-linejoin="round"/>
<path d="M26.3041 31.1137L26.3025 31.1121" stroke="black" stroke-width="0.356161" stroke-linecap="round" stroke-linejoin="round"/>
<path d="M28.3275 35.1825L28.2947 35.033" stroke="black" stroke-width="0.356161" stroke-linecap="round" stroke-linejoin="round"/>
<path d="M28.8529 34.1225C28.8064 34.2011 28.7543 34.2608 28.6962 34.2948C28.3697 34.4872 28.3312 34.9756 28.3276 35.1323C28.324 35.1074 28.3152 35.0738 28.2947 35.0321L27.9954 33.6746L27.9814 33.568C27.9742 33.4161 28.0094 33.1409 28.3276 32.9938C28.5692 32.882 28.8669 32.6384 29.0272 32.1668C29.0769 32.2942 29.1049 32.4818 29.1125 32.6929C29.131 33.1838 29.0396 33.8064 28.8529 34.1225Z" fill="#3D0027" stroke="black" stroke-width="0.356161" stroke-linecap="round" stroke-linejoin="round"/>
<path d="M28.3276 35.1331C28.332 35.1652 28.3276 35.182 28.3276 35.182C28.3276 35.182 28.3268 35.164 28.3276 35.1331Z" fill="#3D0027" stroke="black" stroke-width="0.356161" stroke-linecap="round" stroke-linejoin="round"/>
<path d="M28.2947 35.0331C28.2302 34.9037 28.0515 34.6974 27.567 34.4457C27.4601 34.3901 27.3667 34.3159 27.285 34.229C27.0161 33.9441 26.8759 33.5214 26.8025 33.1592C26.7829 33.0618 26.7681 32.9688 26.7569 32.8843C26.7236 32.6343 26.7224 32.4552 26.7224 32.4451C26.7781 32.4968 26.841 32.5461 26.9115 32.5922C26.9512 32.6186 26.9937 32.6435 27.0386 32.6675C27.9858 33.1728 27.918 33.3964 27.9934 33.6672C27.9902 33.6516 27.9838 33.6163 27.9814 33.5691L27.9954 33.6756L28.2947 35.0331Z" fill="#3D0027" stroke="black" stroke-width="0.356161" stroke-linecap="round" stroke-linejoin="round"/>
<path d="M28.3277 35.1327C28.3277 35.1327 27.4042 35.9161 27.5087 36.4297C27.6133 36.9434 29.5578 36.3881 29.7245 36.0823C29.8912 35.7766 28.3277 35.1323 28.3277 35.1323V35.1327Z" fill="#3D0027" stroke="black" stroke-width="0.356161" stroke-linecap="round" stroke-linejoin="round"/>
<path d="M25.0526 26.9467C25.0526 26.9467 25.0418 27.0681 25.0134 27.2781C24.9613 27.6631 24.8499 28.3463 24.6395 29.1284C24.3735 28.852 24.1435 28.5406 23.9584 28.2045C23.1674 26.7684 23.149 24.8588 21.8936 23.8046C21.628 23.5814 21.3207 23.4123 21.0606 23.1831C20.5578 22.7412 20.2629 22.1005 20.1214 21.4462C19.98 20.7919 19.9788 20.1163 19.9784 19.4468C19.9764 17.4594 19.9748 15.472 19.9732 13.485C19.9732 13.0779 19.9724 12.6709 19.9628 12.2642C20.0229 12.6011 20.0726 12.9694 20.1106 13.3712C20.7052 19.6611 20.9685 21.5027 23.4555 22.9856C23.4543 22.99 23.4531 22.9956 23.4519 23.002C23.4503 23.012 23.4491 23.0241 23.4483 23.0377C23.4471 23.0573 23.4467 23.0802 23.4475 23.107C23.4475 23.1142 23.4475 23.1218 23.4479 23.1298C23.4487 23.1527 23.4499 23.1775 23.4519 23.2044C23.4519 23.2104 23.4527 23.2164 23.4531 23.2228C23.4547 23.2416 23.4563 23.2613 23.4583 23.2821C23.4591 23.2889 23.4599 23.2957 23.4607 23.3025C23.4611 23.3065 23.4615 23.3105 23.4619 23.3149C23.4643 23.3374 23.4671 23.3606 23.4703 23.3851C23.4779 23.442 23.4876 23.5041 23.4996 23.5694C23.5016 23.5802 23.5036 23.591 23.5056 23.6022C23.5124 23.6391 23.5204 23.6772 23.5284 23.716C23.5328 23.7353 23.5372 23.7553 23.5421 23.7753C23.5477 23.7994 23.5533 23.8234 23.5593 23.8479C23.5653 23.8723 23.5717 23.8967 23.5785 23.9216C23.5821 23.9348 23.5857 23.948 23.5893 23.9617C23.5925 23.9733 23.5957 23.9849 23.5993 23.9969C23.6426 24.1484 23.6971 24.3066 23.764 24.4641C23.7684 24.4753 23.7732 24.4865 23.7785 24.4978C23.7853 24.5134 23.7921 24.529 23.7993 24.5446C23.8053 24.5579 23.8113 24.5707 23.8173 24.5839C23.8301 24.6108 23.843 24.6376 23.8562 24.664C23.8754 24.7025 23.8955 24.7406 23.9167 24.7786C23.9235 24.7915 23.9307 24.8043 23.9383 24.8171C23.9604 24.8552 23.9828 24.8932 24.0068 24.9305C24.0301 24.9678 24.0545 25.0046 24.0806 25.0407C24.0886 25.0527 24.0974 25.0647 24.1066 25.0767C24.115 25.0888 24.1242 25.1004 24.1331 25.1124C24.1507 25.136 24.1687 25.1589 24.188 25.1817C24.1972 25.1933 24.2064 25.2046 24.2164 25.2158C24.226 25.227 24.2356 25.2382 24.2456 25.2494C24.2481 25.2526 24.2509 25.2554 24.2533 25.2583C24.2685 25.2755 24.2845 25.2927 24.3005 25.3091C24.3178 25.3272 24.335 25.3452 24.353 25.3624C24.3574 25.3668 24.3618 25.3712 24.3667 25.3757C24.3811 25.3897 24.3959 25.4033 24.4111 25.4165C24.4147 25.4201 24.4183 25.4233 24.4219 25.4265C24.4392 25.4422 24.4572 25.4574 24.4752 25.4722C24.476 25.473 24.4772 25.4738 24.4784 25.4746C24.4977 25.4907 24.5173 25.5063 24.5373 25.5211C24.5414 25.5243 24.5454 25.5275 24.5498 25.5303C24.5686 25.5443 24.5878 25.5584 24.6071 25.5716C24.6251 25.5836 24.6435 25.596 24.6624 25.6076C24.6724 25.6141 24.6824 25.6205 24.6928 25.6261C24.7112 25.6377 24.7301 25.6489 24.7493 25.6593C24.7493 25.6593 24.7721 26.2039 25.0526 26.9467Z" fill="#894B38"/>
<path d="M20.1216 21.4455C20.1216 21.4455 19.3475 24.3941 16.9442 25.1454L16.8573 23.0586" fill="#663421"/>
<path d="M17.7009 9.29707C17.0249 10.6277 16.4011 11.9027 15.9351 13.3291C15.6714 14.1357 15.433 14.9499 15.1858 15.7613C14.4506 18.1714 13.62 20.5754 13.2085 23.0533C13.0117 22.9567 12.8214 22.8389 12.6395 22.697C9.87679 20.5482 11.5236 16.204 13.3499 12.9889C14.6293 10.7363 15.9964 9.03823 15.9964 9.03823C15.9964 9.03823 16.8651 8.555 17.8119 8.84029C17.8231 8.97091 17.7894 9.12237 17.7009 9.29707Z" fill="#AD8679"/>
<path d="M25.053 26.9464C25.053 26.9464 25.0422 27.0678 25.0137 27.2778C24.9616 27.6628 24.8502 28.346 24.6399 29.1281C24.0986 31.1411 22.9005 33.8105 20.3582 33.7432C16.2893 33.6358 16.6788 27.5262 16.6788 27.5262C17.1504 27.2365 16.8575 23.059 16.8575 23.059C15.3978 23.5342 13.8415 23.6324 12.6395 22.6972C9.87679 20.5483 11.5236 16.2041 13.3499 12.9891C14.6293 10.7364 15.9964 9.03835 15.9964 9.03835C15.9964 9.03835 19.0812 7.32264 19.9631 12.2638C20.0232 12.6008 20.0729 12.969 20.111 13.3709C20.7056 19.6608 20.9689 21.5023 23.4559 22.9853C23.4547 22.9897 23.4535 22.9953 23.4523 23.0017C23.4507 23.0117 23.4495 23.0237 23.4487 23.0374C23.4475 23.057 23.4471 23.0798 23.4479 23.1067C23.4479 23.1139 23.4479 23.1215 23.4483 23.1295C23.4491 23.1524 23.4503 23.1772 23.4523 23.204C23.4523 23.21 23.4531 23.2161 23.4535 23.2225C23.4551 23.2413 23.4567 23.2609 23.4587 23.2818C23.4595 23.2886 23.4603 23.2954 23.4611 23.3022C23.4615 23.3062 23.4619 23.3102 23.4623 23.3146C23.4647 23.3371 23.4675 23.3603 23.4707 23.3847C23.4783 23.4416 23.4879 23.5038 23.5 23.5691C23.502 23.5799 23.504 23.5907 23.506 23.6019C23.5128 23.6388 23.5208 23.6768 23.5288 23.7157C23.5332 23.7349 23.5376 23.755 23.5424 23.775C23.548 23.7991 23.5536 23.8231 23.5597 23.8475C23.5657 23.872 23.5721 23.8964 23.5789 23.9213C23.5825 23.9345 23.5861 23.9477 23.5897 23.9613C23.5929 23.9729 23.5961 23.9846 23.5997 23.9966C23.643 24.148 23.6975 24.3063 23.7644 24.4638C23.7688 24.475 23.7736 24.4862 23.7788 24.4974C23.7856 24.5131 23.7925 24.5287 23.7997 24.5443C23.8057 24.5575 23.8117 24.5704 23.8177 24.5836C23.8305 24.6104 23.8433 24.6373 23.8566 24.6637C23.8758 24.7022 23.8958 24.7403 23.9171 24.7783C23.9239 24.7911 23.9311 24.804 23.9387 24.8168C23.9607 24.8548 23.9832 24.8929 24.0072 24.9302C24.0305 24.9674 24.0549 25.0043 24.0809 25.0404C24.089 25.0524 24.0978 25.0644 24.107 25.0764C24.1154 25.0884 24.1246 25.1001 24.1334 25.1121C24.1511 25.1357 24.1691 25.1586 24.1883 25.1814C24.1975 25.193 24.2068 25.2042 24.2168 25.2155C24.2264 25.2267 24.236 25.2379 24.246 25.2491C24.2484 25.2523 24.2512 25.2551 24.2536 25.2579C24.2689 25.2752 24.2849 25.2924 24.3009 25.3088C24.3181 25.3269 24.3354 25.3449 24.3534 25.3621C24.3578 25.3665 24.3622 25.3709 24.367 25.3753C24.3815 25.3894 24.3963 25.403 24.4115 25.4162C24.4151 25.4198 24.4187 25.423 24.4223 25.4262C24.4396 25.4418 24.4576 25.4571 24.4756 25.4719C24.4764 25.4727 24.4776 25.4735 24.4788 25.4743C24.4981 25.4903 24.5177 25.506 24.5377 25.5208C24.5417 25.524 24.5457 25.5272 24.5501 25.53C24.569 25.544 24.5882 25.558 24.6074 25.5713C24.6255 25.5833 24.6439 25.5957 24.6627 25.6073C24.6727 25.6137 24.6828 25.6201 24.6932 25.6258C24.7116 25.6374 24.7304 25.6486 24.7497 25.659C24.7497 25.659 24.7725 26.2035 25.053 26.9464Z" stroke="black" stroke-width="0.356161" stroke-linecap="round" stroke-linejoin="round"/>
<path d="M28.9855 26.4589C28.9979 26.5174 29.0091 26.5747 29.0192 26.6308C28.9663 26.6689 28.909 26.6993 28.8465 26.7162C28.8445 26.7166 28.8425 26.7174 28.8405 26.7178C28.713 26.7502 28.5576 26.7073 28.4999 26.5895C28.4682 26.5254 28.4694 26.4509 28.4746 26.3796C28.5115 25.8867 28.7134 25.4392 28.9522 25.0137C28.9879 24.9504 29.0596 24.8081 29.1506 24.6482C29.2347 25.5209 29.1498 26.0791 28.9855 26.4589Z" fill="#6D1151"/>
<path d="M27.6427 11.9676C27.573 12.1531 27.4857 12.3326 27.3807 12.5025C27.1006 11.6835 26.7793 10.8305 26.1202 10.2695C25.6397 9.86042 25.0275 9.64926 24.4545 9.38521C23.1002 8.76095 21.8693 7.7925 20.3992 7.54087C19.9877 7.47075 19.4973 7.41546 19.2994 7.04803C19.2489 6.95427 19.2272 6.8533 19.2288 6.75193C19.9008 6.67019 20.7106 6.67179 21.6866 6.79801C24.2714 7.13258 26.3385 9.33632 27.6427 11.9676Z" fill="#6D1151"/>
<path d="M29.0596 23.6062C28.9967 23.6522 28.9274 23.6863 28.85 23.6959C28.6974 23.7152 28.5447 23.6298 28.4533 23.5064C28.362 23.383 28.3243 23.2271 28.3131 23.0737C28.2795 22.6097 28.4686 22.1605 28.6765 21.7446C28.82 21.4573 28.9646 21.144 29.1337 20.8595C29.2643 22.0195 29.2118 22.9146 29.0596 23.6062Z" fill="#6D1151"/>
<path d="M28.8831 28.4503C28.8923 28.468 28.9008 28.4856 28.9092 28.5028C28.8807 28.5253 28.8519 28.5477 28.8234 28.5701C28.8214 28.5717 28.8198 28.5729 28.8178 28.5746C28.7733 28.6094 28.7197 28.6467 28.6644 28.6327C28.6327 28.625 28.6071 28.6006 28.5878 28.5737C28.5033 28.4555 28.5257 28.2929 28.5694 28.1542C28.6395 27.9303 28.7553 27.7239 28.8699 27.5192C28.9388 27.3965 29.0077 27.2731 29.0839 27.1549C29.1195 27.7039 29.0318 28.1234 28.8831 28.4503Z" fill="#6D1151"/>
<path d="M29.0029 30.3322C29.0181 30.3947 29.0318 30.4556 29.0442 30.5153C28.9929 30.5666 28.9388 30.6171 28.8715 30.6443C28.8603 30.6487 28.8486 30.6527 28.837 30.6551C28.7753 30.6708 28.7064 30.6624 28.6595 30.6203C28.5914 30.559 28.5922 30.4532 28.6022 30.3622C28.6319 30.0938 28.6964 29.8289 28.7921 29.5761C28.8543 29.4122 28.9516 29.1702 29.0818 28.9543C29.2245 29.4791 29.158 29.9524 29.0029 30.3322Z" fill="#6D1151"/>
<path d="M29.027 32.1661C28.9813 32.2046 28.932 32.2378 28.8771 32.2623C28.8391 32.2791 28.7954 32.2915 28.7553 32.2795C28.664 32.2514 28.6532 32.1272 28.6644 32.0323C28.7121 31.626 28.8411 31.2097 29.1075 30.8919C29.1797 31.4368 29.1336 31.852 29.027 32.1661Z" fill="#6D1151"/>
<path d="M28.8513 34.1233C28.7972 34.1702 28.7339 34.1994 28.6726 34.171C28.5925 34.1333 28.5825 34.0243 28.5893 33.9362C28.6141 33.6293 28.7079 33.3292 28.8597 33.0615C28.9271 32.9421 29.0112 32.8075 29.111 32.6937C29.1294 33.1845 29.038 33.8072 28.8513 34.1233Z" fill="#6D1151"/>
<path d="M22.6056 21.9371C22.5724 22.0485 22.5271 22.1643 22.4674 22.2689C20.94 20.8917 20.6367 18.8611 20.1663 13.9487V13.9483C20.2103 13.8818 20.2568 13.8169 20.3057 13.7528C20.3822 13.6522 20.4888 13.546 20.6134 13.5657C20.7545 13.5877 20.8182 13.7516 20.8478 13.891C21.0634 14.9056 20.8891 16.0086 21.323 16.9502C21.5234 17.3854 21.8411 17.7544 22.0947 18.1607C22.7879 19.271 22.979 20.6822 22.6056 21.9371Z" fill="#6D1151"/>
<path d="M24.4019 25.2321C24.3847 25.2722 24.3635 25.3118 24.3358 25.3447C24.3194 25.3639 24.3006 25.3812 24.2789 25.3944C24.2717 25.3988 24.2645 25.4028 24.2569 25.406C24.2493 25.3291 24.2465 25.2746 24.2457 25.2493C23.8089 24.7565 23.5934 24.0757 23.5028 23.5869C23.6735 23.5981 23.8354 23.6847 23.9708 23.7917C24.1824 23.9591 24.3502 24.1847 24.4328 24.4416C24.5157 24.698 24.5101 24.9853 24.4019 25.2321Z" fill="#6D1151"/>
<path d="M25.1468 26.9648C25.1228 27.081 25.0919 27.1984 25.0386 27.3033C25.037 27.3065 25.0354 27.3094 25.0342 27.3122C25.0326 27.3021 25.0318 27.2965 25.0318 27.2965C24.6392 26.8726 24.4412 26.3305 24.3427 25.9086C24.6648 25.8817 25.003 26.0901 25.1372 26.4182C25.2069 26.5897 25.1845 26.7837 25.1468 26.9648Z" fill="#6D1151"/>
<path d="M25.7541 28.8718C25.7416 28.9315 25.7272 28.992 25.7088 29.0509C25.4223 28.7215 25.2444 28.2119 25.1434 27.8268C25.3995 27.8773 25.6371 28.0628 25.7441 28.3257C25.8142 28.4968 25.7917 28.6907 25.7541 28.8718Z" fill="#6D1151"/>
<path d="M26.96 32.4036C26.9468 32.4665 26.9319 32.5298 26.9119 32.5911C26.8838 32.68 26.8462 32.7654 26.7917 32.8407C26.7809 32.8551 26.7697 32.8696 26.7572 32.8832C26.724 32.6332 26.7228 32.4541 26.7228 32.444C26.3365 32.0866 26.2916 31.625 26.2961 31.3498C26.5717 31.383 26.8354 31.5766 26.9504 31.857C27.0201 32.0281 26.9976 32.2225 26.96 32.4036Z" fill="#6D1151"/>
<path d="M26.2686 30.7395C26.2498 30.8293 26.2269 30.9198 26.1929 31.0048C25.8787 30.655 25.7878 30.1297 25.7701 29.7254C25.9813 29.8011 26.1676 29.9694 26.259 30.193C26.3287 30.3641 26.3063 30.5584 26.2686 30.7395Z" fill="#6D1151"/>
<path d="M27.2972 34.1706C27.2932 34.1898 27.2892 34.2086 27.2844 34.2279C27.0156 33.943 26.8753 33.5203 26.802 33.158C27.012 33.2342 27.1967 33.4017 27.2876 33.6244C27.3573 33.7955 27.3349 33.9894 27.2972 34.1706Z" fill="#6D1151"/>
<path d="M14.7854 15.0376C14.7854 15.0376 14.006 16.9012 14.2769 17.1724C14.5478 17.4437 15.158 16.4608 15.158 16.4608" stroke="black" stroke-width="0.356161" stroke-linecap="round" stroke-linejoin="round"/>
<path d="M16.5449 20.188C15.7524 20.6833 14.9214 19.8318 14.9214 19.8318C14.9214 19.8318 15.611 19.8354 16.248 19.4187C16.8851 19.002 17.0931 18.5444 17.0931 18.5444C17.0931 18.5444 17.3371 19.6932 16.5449 20.188Z" fill="#E938B5" stroke="black" stroke-width="0.356161" stroke-linecap="round" stroke-linejoin="round"/>
<path d="M17.0931 18.5442C17.0931 18.5442 16.8851 19.0018 16.248 19.4185C15.611 19.8352 14.9214 19.8316 14.9214 19.8316C14.9214 19.8316 15.2892 18.9545 15.5012 18.997C15.7135 19.0394 15.8265 19.1636 15.9115 18.9954C15.9964 18.8275 15.8974 18.6576 16.1094 18.5442C16.3218 18.4312 17.0931 18.5442 17.0931 18.5442Z" fill="#E938B5" stroke="black" stroke-width="0.356161" stroke-linecap="round" stroke-linejoin="round"/>
<path d="M17.3022 17.9373L17.0927 18.5452" stroke="black" stroke-width="0.356161" stroke-linecap="round" stroke-linejoin="round"/>
<path d="M16.8965 17.8302C17.0071 17.7946 17.1301 17.817 17.2351 17.8675C17.34 17.918 17.4298 17.9945 17.5175 18.0706C17.5688 18.1151 17.6233 18.166 17.6337 18.2329" stroke="black" stroke-width="0.356161" stroke-linecap="round" stroke-linejoin="round"/>
<path d="M20.1108 21.4243C19.2846 21.9708 18.1062 22.6528 16.8573 23.0591" stroke="black" stroke-width="0.356161" stroke-linecap="round" stroke-linejoin="round"/>
<path d="M28.9868 19.8584C27.9394 23.8933 26.7662 23.0274 26.7354 25.2452C26.4004 24.193 25.9432 24.4683 23.4558 22.9853C20.9688 21.5024 20.7055 19.6609 20.1109 13.371C19.5167 7.08068 15.9963 9.03841 15.9963 9.03841C15.9963 9.03841 16.0228 8.87013 16.1354 8.62331C16.3081 8.24426 16.6839 7.68211 17.4801 7.26259C18.3239 6.81784 19.6397 6.53335 21.6868 6.7982C26.9229 7.47576 30.0342 15.8232 28.9868 19.8584Z" stroke="black" stroke-width="0.356161" stroke-linecap="round" stroke-linejoin="round"/>
<path d="M27.0216 26.4595C26.7444 25.81 25.7799 26.2291 24.7498 25.6589C24.5558 25.5516 24.3892 25.4105 24.2461 25.2494C23.5325 24.4453 23.4103 23.1383 23.456 22.9852C25.9434 24.4681 26.4006 24.1929 26.7355 25.245L27.0216 26.4595Z" stroke="black" stroke-width="0.356161" stroke-linecap="round" stroke-linejoin="round"/>
<path d="M27.0934 26.7645L27.0446 26.557" stroke="black" stroke-width="0.356161" stroke-linecap="round" stroke-linejoin="round"/>
<path d="M29.0239 23.7584C28.6349 25.3022 27.7373 25.761 27.3919 25.9129C27.0818 26.0495 27.0281 26.3071 27.0393 26.5035C27.0337 26.4882 27.0277 26.4734 27.0213 26.459L26.7352 25.2445C26.7661 23.0267 27.9393 23.8926 28.9867 19.8578C29.3036 21.618 29.2483 22.8685 29.0239 23.7584Z" stroke="black" stroke-width="0.356161" stroke-linecap="round" stroke-linejoin="round"/>
<path d="M28.9854 26.4597C28.7001 27.1208 28.1756 27.2426 27.8872 27.5452C27.3823 28.0749 27.333 28.5433 27.333 28.5433L27.0934 26.7658C27.0838 26.6649 27.0654 26.5783 27.0393 26.5046C27.0281 26.3079 27.0818 26.0502 27.3919 25.9136C27.7373 25.7617 28.6348 25.3029 29.0239 23.7591C29.2791 25.1647 29.1998 25.9641 28.9854 26.4597Z" stroke="black" stroke-width="0.356161" stroke-linecap="round" stroke-linejoin="round"/>
<path d="M27.334 28.5428C27.1989 27.7078 26.176 28.2771 25.2292 27.4846C25.1587 27.4253 25.0929 27.3628 25.032 27.2971C24.3272 26.5366 24.2503 25.395 24.2467 25.2492C24.3897 25.4103 24.5564 25.5513 24.7504 25.6587C25.7805 26.2289 26.745 25.8097 27.0222 26.4592L27.0451 26.5566C27.0587 26.6704 27.0899 26.7542 27.0939 26.7642C27.0939 26.765 27.0939 26.7654 27.0939 26.7654L27.3336 28.5428H27.334Z" stroke="black" stroke-width="0.356161" stroke-linecap="round" stroke-linejoin="round"/>
<path d="M24.2471 25.2337C24.2471 25.2337 24.2467 25.2393 24.2467 25.249" stroke="black" stroke-width="0.356161" stroke-linecap="round" stroke-linejoin="round"/>
<path d="M27.0445 26.5566C27.0425 26.5397 27.0409 26.5221 27.0397 26.5041" stroke="black" stroke-width="0.356161" stroke-linecap="round" stroke-linejoin="round"/>
<path d="M28.8833 28.4503C28.6497 28.9648 28.265 29.2505 27.9713 29.4532C27.4364 29.8222 27.4941 30.3027 27.4981 30.3323C27.4889 30.2962 27.4785 30.2622 27.4669 30.2301L27.3326 28.5429C27.3326 28.5429 27.3819 28.0745 27.8868 27.5448C28.1753 27.2423 28.6998 27.1204 28.9851 26.4593C29.1782 27.3665 29.0892 27.9971 28.8833 28.4503Z" stroke="black" stroke-width="0.356161" stroke-linecap="round" stroke-linejoin="round"/>
<path d="M27.4673 30.2305C27.1968 29.4732 26.341 29.668 25.7896 29.1371C25.2138 28.5837 25.0311 27.2975 25.0311 27.2975C25.092 27.3632 25.1577 27.4257 25.2283 27.485C26.1751 28.2776 27.198 27.7082 27.333 28.5432L27.4673 30.2305Z" stroke="black" stroke-width="0.356161" stroke-linecap="round" stroke-linejoin="round"/>
<path d="M27.7581 31.8686C27.6504 31.3072 27.2228 31.53 26.6158 31.298C26.4956 31.2519 26.3918 31.1894 26.3029 31.1137C25.5957 30.5175 25.7896 29.1367 25.7896 29.1367C26.3409 29.6676 27.1968 29.4729 27.4672 30.2302C27.4789 30.2622 27.4893 30.2963 27.4985 30.3324C27.4985 30.3328 27.4989 30.3336 27.4989 30.334L27.7581 31.8686Z" stroke="black" stroke-width="0.356161" stroke-linecap="round" stroke-linejoin="round"/>
<path d="M29.0024 30.3335C28.8021 30.8231 28.4535 31.1573 28.2135 31.2463C27.7294 31.4258 27.7635 31.897 27.7635 31.897C27.7619 31.8878 27.7603 31.8785 27.7587 31.8697L27.4994 30.3351C27.4994 30.3351 27.499 30.3339 27.499 30.3335C27.495 30.3039 27.4373 29.8234 27.9722 29.4544C28.2659 29.2517 28.6506 28.966 28.8842 28.4515C29.2568 29.1767 29.2059 29.8355 29.0024 30.3335Z" stroke="black" stroke-width="0.356161" stroke-linecap="round" stroke-linejoin="round"/>
<path d="M27.9938 33.6662C27.9185 33.3953 27.9862 33.1717 27.039 32.6665C26.914 32.6 26.8098 32.5246 26.7229 32.4441C26.1483 31.9124 26.329 31.1495 26.3038 31.1134C26.3927 31.1892 26.4965 31.2517 26.6167 31.2978C27.2237 31.5298 27.6512 31.307 27.759 31.8683C27.7606 31.8771 27.7622 31.8864 27.7638 31.8956L27.9818 33.568C27.9842 33.6153 27.9906 33.6506 27.9938 33.6662Z" stroke="black" stroke-width="0.356161" stroke-linecap="round" stroke-linejoin="round"/>
<path d="M29.0266 32.1669C28.8663 32.6385 28.5686 32.8821 28.327 32.9939C28.0089 33.141 27.9736 33.4162 27.9808 33.5681L27.7628 31.8957C27.7628 31.8957 27.7288 31.4245 28.2128 31.2449C28.4528 31.156 28.8014 30.8218 29.0018 30.3322C29.2029 31.1628 29.1676 31.753 29.0266 32.1669Z" stroke="black" stroke-width="0.356161" stroke-linecap="round" stroke-linejoin="round"/>
<path d="M27.995 33.6712C27.995 33.6712 27.9957 33.6746 27.9963 33.6766" stroke="black" stroke-width="0.356161" stroke-linecap="round" stroke-linejoin="round"/>
<path d="M26.304 31.1142L26.3024 31.1126" stroke="black" stroke-width="0.356161" stroke-linecap="round" stroke-linejoin="round"/>
<path d="M28.3274 35.1822L28.2946 35.0327" stroke="black" stroke-width="0.356161" stroke-linecap="round" stroke-linejoin="round"/>
<path d="M28.696 34.2953C28.3694 34.4877 28.3309 34.9761 28.3273 35.1328C28.3237 35.1079 28.3149 35.0743 28.2945 35.0326L27.9952 33.6751L27.9812 33.5685C27.9739 33.4167 28.0092 33.1414 28.3273 32.9943C28.569 32.8825 28.8667 32.6389 29.0269 32.1673C29.2201 32.6654 29.0874 34.065 28.696 34.2953Z" stroke="black" stroke-width="0.356161" stroke-linecap="round" stroke-linejoin="round"/>
<path d="M28.3274 35.1328C28.3318 35.1649 28.3274 35.1817 28.3274 35.1817C28.3274 35.1817 28.3266 35.1637 28.3274 35.1328Z" stroke="black" stroke-width="0.356161" stroke-linecap="round" stroke-linejoin="round"/>
<path d="M28.2946 35.0336C28.2301 34.9042 28.0514 34.6979 27.5669 34.4463C26.7343 34.0123 26.7223 32.4753 26.7223 32.4456C26.8092 32.5262 26.9134 32.6015 27.0384 32.668C27.9856 33.1733 27.9179 33.3969 27.9933 33.6677C27.99 33.6521 27.9836 33.6168 27.9812 33.5696L27.9953 33.6761L28.2946 35.0336Z" stroke="black" stroke-width="0.356161" stroke-linecap="round" stroke-linejoin="round"/>
<path d="M28.3275 35.1324C28.3275 35.1324 27.4039 35.9157 27.5085 36.4294C27.6131 36.9431 29.5576 36.3877 29.7243 36.082C29.891 35.7763 28.3275 35.132 28.3275 35.132V35.1324Z" stroke="black" stroke-width="0.356161" stroke-linecap="round" stroke-linejoin="round"/>
<path d="M15.9971 9.03942C15.9971 9.03942 17.1294 8.41035 17.8146 9.68292C18.4997 10.9551 16.923 15.1759 18.8844 18.0736C18.8844 18.0736 18.3282 15.6146 18.8844 14.0928C19.4405 12.571 19.7338 10.4041 18.6432 9.3187C18.6432 9.3187 17.8226 8.19679 15.9971 9.03942Z" fill="#3D0027" stroke="black" stroke-width="0.356161" stroke-linecap="round" stroke-linejoin="round"/>
<path d="M8.62424 39.2333C8.62424 39.2333 11.0664 40.2487 13.7429 39.6468C13.8147 39.6308 13.8872 39.6136 13.9593 39.5947C13.9381 39.5038 13.9168 39.4128 13.8952 39.3227C13.8908 39.3038 13.8864 39.285 13.8816 39.2666C13.7534 38.7221 13.6267 38.1855 13.5097 37.6871C13.1748 36.2599 12.9199 35.1456 12.9167 35.0534C12.9147 34.9945 12.9664 34.8851 13.0494 34.7449C13.3459 34.2448 14.0414 33.3545 14.1184 32.9911C14.2173 32.5255 14.1007 30.2773 13.1327 29.5801C13.0974 29.5549 13.0053 29.5412 12.8727 29.5396C12.8029 29.5388 12.722 29.5404 12.6327 29.5461C12.6082 29.5477 12.5834 29.5493 12.5577 29.5513C12.5325 29.5533 12.5064 29.5557 12.48 29.5577C12.4796 29.5577 12.4796 29.5569 12.4792 29.5577C12.4792 29.5577 12.4788 29.5577 12.4784 29.5577C12.4772 29.5577 12.4764 29.5577 12.4756 29.5577C12.474 29.5577 12.4716 29.5577 12.4688 29.5577C12.4668 29.5577 12.4644 29.5577 12.4624 29.5577C12.4576 29.5577 12.4527 29.5585 12.4475 29.5593C12.4303 29.5613 12.4119 29.5629 12.3934 29.5649C12.3842 29.5657 12.375 29.5665 12.3658 29.5677C12.3281 29.5713 12.2905 29.5757 12.2516 29.5801C12.2384 29.5821 12.2244 29.5837 12.2103 29.5857C12.2035 29.5861 12.1967 29.5869 12.1895 29.5881C12.1751 29.5897 12.1606 29.5917 12.1466 29.5937C12.1254 29.5965 12.1042 29.5993 12.0825 29.6026C12.0753 29.6034 12.0681 29.6042 12.0609 29.6058C12.0396 29.609 12.0176 29.6122 11.9956 29.6154C11.988 29.6162 11.9803 29.6178 11.9735 29.6186C11.9515 29.6222 11.9291 29.6258 11.9066 29.6294C11.8766 29.6342 11.8469 29.639 11.8169 29.6446C11.8016 29.647 11.7864 29.6498 11.7712 29.6526C11.6882 29.6675 11.6037 29.6839 11.5184 29.7015C11.4871 29.7083 11.4567 29.7147 11.4258 29.7216C11.3228 29.744 11.2194 29.7688 11.1181 29.7957C11.0744 29.8073 11.0315 29.8189 10.9887 29.8309C10.9586 29.8398 10.929 29.8486 10.8989 29.8574C10.8821 29.8626 10.8656 29.8678 10.8488 29.873C10.8304 29.8786 10.8116 29.8846 10.7927 29.8902C10.7551 29.9023 10.7178 29.9147 10.6813 29.9279C10.6765 29.9295 10.6717 29.9315 10.6669 29.9331C10.6645 29.9339 10.6625 29.9343 10.6601 29.9355C10.6573 29.9363 10.6545 29.9371 10.6513 29.9383C10.6493 29.9387 10.6469 29.9399 10.6453 29.9407C10.6357 29.9439 10.6264 29.9471 10.6172 29.9507C10.592 29.9596 10.5671 29.9688 10.5431 29.9784C10.5323 29.9824 10.5211 29.9868 10.5102 29.9912C10.4974 29.996 10.4846 30.0012 10.4718 30.0064H10.4706C10.4638 30.0096 10.457 30.0124 10.4501 30.0153C10.4373 30.0205 10.4245 30.0261 10.4121 30.0313C10.3969 30.0377 10.382 30.0441 10.3672 30.0509C10.3628 30.0525 10.3592 30.0541 10.3552 30.0561C10.3444 30.0609 10.3339 30.0657 10.3231 30.0705C10.3199 30.0717 10.3167 30.0734 10.3139 30.0746C10.3031 30.0798 10.2923 30.085 10.2819 30.0898C10.2718 30.095 10.2614 30.0998 10.2514 30.105C10.2466 30.1074 10.2422 30.1094 10.2378 30.1114C10.2334 30.1134 10.229 30.1158 10.225 30.1182C10.1548 30.1543 10.0899 30.1916 10.0314 30.2308C10.0202 30.2384 10.0094 30.2456 9.99817 30.2533C9.97213 30.2717 9.94729 30.2901 9.92445 30.309C9.92244 30.311 9.92044 30.3122 9.91844 30.3138C9.91123 30.3198 9.90441 30.3258 9.8976 30.3318C9.88718 30.3406 9.87757 30.3498 9.86795 30.359L9.86675 30.3598C9.86154 30.365 9.85633 30.3695 9.85192 30.3747C9.8383 30.3883 9.82548 30.4015 9.81386 30.4155C9.80585 30.4243 9.79863 30.4332 9.79182 30.4424C9.79022 30.444 9.78902 30.4452 9.78782 30.4472C9.78421 30.452 9.781 30.4568 9.7774 30.4616C9.77419 30.466 9.77059 30.47 9.76778 30.4744C9.76658 30.4768 9.76498 30.4788 9.76337 30.4808C9.76337 30.4808 9.76257 30.482 9.76257 30.4824C9.75857 30.4881 9.75536 30.4937 9.75216 30.4997C9.74855 30.5053 9.74534 30.5117 9.74214 30.5173C9.74134 30.5189 9.74013 30.5205 9.73933 30.5225C9.73653 30.5265 9.73452 30.5309 9.73292 30.5353C9.73252 30.5361 9.73252 30.5365 9.73212 30.5373C9.72932 30.5425 9.72651 30.5482 9.72451 30.5534C9.7213 30.5594 9.7193 30.5658 9.71689 30.5718C9.71569 30.575 9.71409 30.5786 9.71329 30.5814C9.71249 30.5838 9.71169 30.5862 9.71089 30.5886C9.71048 30.5894 9.71008 30.5902 9.70968 30.5914C9.70728 30.6006 9.70447 30.6091 9.70247 30.6187C9.70127 30.6239 9.70007 30.6287 9.69886 30.6339C9.69806 30.6395 9.69686 30.6447 9.69646 30.6503C9.69646 30.6515 9.69646 30.6523 9.69606 30.6535C9.69526 30.6628 9.69406 30.672 9.69325 30.682C9.69245 30.6924 9.69245 30.7024 9.69245 30.7128C9.69245 30.7128 9.69245 30.7132 9.69245 30.7136L9.71369 30.7493L9.96011 31.1688C9.99016 31.2245 10.0182 31.2786 10.043 31.3295C10.0955 31.4365 10.136 31.5314 10.1621 31.6108C10.1653 31.6208 10.1685 31.6312 10.1713 31.6416C10.1777 31.6613 10.1825 31.6797 10.1857 31.6969C10.1881 31.7057 10.1897 31.7141 10.1901 31.7222C10.1953 31.7542 10.1961 31.7811 10.1917 31.8019C10.1905 31.8071 10.1893 31.8123 10.1873 31.8167C10.1837 31.8255 10.1793 31.8331 10.1733 31.8388C10.1661 31.8452 10.1592 31.852 10.1516 31.8584C10.1376 31.8708 10.1232 31.882 10.108 31.892C10.0999 31.8981 10.0915 31.9033 10.0827 31.9085C10.0735 31.9145 10.0635 31.9197 10.0539 31.9245C10.0378 31.9333 10.0222 31.9401 10.0054 31.9461C10.0018 31.9477 9.99857 31.9489 9.99457 31.9501C9.98735 31.9525 9.98014 31.9554 9.97253 31.9574C9.92204 31.9734 9.86915 31.9814 9.81426 31.983C9.79783 31.983 9.7806 31.983 9.76337 31.9826C9.70688 31.9806 9.64918 31.9722 9.59148 31.959C9.58187 31.9574 9.57185 31.9549 9.56263 31.9521C9.40757 31.9133 9.2513 31.8416 9.11227 31.7642C9.09864 31.7566 9.08542 31.749 9.0726 31.7418C9.06018 31.7346 9.04816 31.727 9.03614 31.7198C9.02171 31.7109 9.00769 31.7021 8.99326 31.6937C8.85543 31.6084 8.74444 31.5246 8.68113 31.4753C8.67392 31.4693 8.66671 31.4637 8.6611 31.4589C8.65749 31.4561 8.65429 31.4541 8.65108 31.4513C8.63666 31.4389 8.62744 31.4313 8.62504 31.4297C8.61222 31.4044 8.59899 31.3796 8.58537 31.3547C8.57656 31.3383 8.56774 31.3219 8.55813 31.3054C8.54971 31.2902 8.5409 31.275 8.53208 31.2594C8.4824 31.1724 8.4283 31.0851 8.37141 30.9985C8.36379 30.9861 8.35618 30.9749 8.34817 30.9633C8.32252 30.9248 8.29648 30.8859 8.26963 30.8479C8.25641 30.8298 8.24359 30.8118 8.23037 30.7934L8.22476 30.7854C8.21955 30.7781 8.21394 30.7709 8.20873 30.7637C8.19591 30.7453 8.18269 30.7273 8.16866 30.7096C8.15744 30.6936 8.14502 30.6776 8.1326 30.662C8.10616 30.6267 8.07931 30.5922 8.05166 30.5582C8.03484 30.5369 8.01761 30.5149 7.99998 30.4941C7.99357 30.4853 7.98675 30.4772 7.98034 30.4696C7.96392 30.4496 7.94749 30.43 7.93066 30.4107C7.91103 30.3871 7.89099 30.3642 7.87096 30.3414C7.85533 30.323 7.8397 30.3053 7.82328 30.2873C7.80444 30.2653 7.78481 30.2444 7.76518 30.2232C7.7223 30.1767 7.67943 30.1319 7.63656 30.089C7.62253 30.075 7.60851 30.0609 7.59369 30.0469C7.57966 30.0329 7.56564 30.0189 7.55121 30.0056C7.5408 29.9956 7.52998 29.9852 7.51956 29.9756C7.50794 29.9636 7.49592 29.9531 7.4843 29.9427C7.46587 29.9263 7.44824 29.9099 7.43021 29.8946C7.4286 29.893 7.427 29.8914 7.4254 29.8902C7.3697 29.841 7.31521 29.7969 7.26192 29.7564C7.2483 29.7464 7.23508 29.7364 7.22185 29.7272C7.20382 29.7135 7.18539 29.7011 7.16776 29.6891C7.15815 29.6823 7.14733 29.6755 7.13731 29.6687C7.11567 29.6546 7.09404 29.641 7.0728 29.629C7.06519 29.6242 7.05677 29.6202 7.04876 29.6154C7.03914 29.6102 7.02993 29.6054 7.02071 29.6005C6.99266 29.5857 6.96462 29.5733 6.93857 29.5625C6.20372 29.2712 5.85994 29.8261 5.7754 30.1952C5.69125 30.5634 6.80715 34.0297 6.99387 34.3663C7.37091 35.0478 8.88869 35.616 8.88869 35.616L8.78651 37.0091L8.70838 38.0705L8.62304 39.2341L8.62424 39.2333Z" fill="#94624B" stroke="black" stroke-width="0.356161" stroke-linecap="round" stroke-linejoin="round"/>
<path d="M8.62691 31.4282C8.87293 31.9066 8.9775 32.3534 8.78478 32.5982C8.2715 33.2497 6.60828 30.9694 6.60828 30.9694" fill="#FFD9D4"/>
<path d="M8.62691 31.4282C8.87293 31.9066 8.9775 32.3534 8.78478 32.5982C8.2715 33.2497 6.60828 30.9694 6.60828 30.9694" stroke="black" stroke-width="0.356161" stroke-linecap="round" stroke-linejoin="round"/>
<path d="M9.96045 31.1678C10.6432 31.7372 12.177 31.3265 12.177 31.3265" stroke="black" stroke-width="0.356161" stroke-linecap="round" stroke-linejoin="round"/>
<path d="M8.32246 28.9871C8.36453 29.0268 8.40821 29.0685 8.45148 29.1125C8.45268 29.1141 8.45429 29.1157 8.45469 29.1161C8.88382 29.5473 9.35021 30.1695 9.69199 30.7125V30.7133C9.69199 30.7024 9.69199 30.692 9.69279 30.6816C9.69359 30.6708 9.6944 30.6604 9.696 30.65C9.6976 30.6395 9.6996 30.6291 9.70201 30.6187C9.70441 30.6083 9.70722 30.5983 9.71042 30.5882C9.71122 30.5862 9.71203 30.5838 9.71283 30.581C9.71723 30.569 9.72204 30.557 9.72765 30.545C9.73086 30.5374 9.73486 30.5289 9.73967 30.5213C9.74328 30.5137 9.74729 30.5065 9.75209 30.4989C9.7569 30.4905 9.76211 30.4817 9.76772 30.4737C9.77052 30.4692 9.77373 30.4648 9.77734 30.4608C9.78174 30.4544 9.78655 30.448 9.79176 30.4416C9.79857 30.4324 9.80538 30.4236 9.8138 30.4148C9.817 30.4103 9.82061 30.4063 9.82462 30.4023C9.83303 30.3927 9.84225 30.3831 9.85186 30.3739C9.85667 30.3683 9.86228 30.3631 9.86829 30.3579C9.87751 30.349 9.88712 30.3394 9.89794 30.3306C9.90676 30.323 9.91517 30.3154 9.92479 30.3078C9.95243 30.2849 9.98289 30.2625 10.0153 30.2409C10.0205 30.2373 10.0262 30.2332 10.0318 30.2296C10.0434 30.2212 10.0562 30.2136 10.069 30.2052C10.0847 30.1952 10.1007 30.1856 10.1175 30.1759C10.1235 30.1719 10.1299 30.1687 10.1359 30.1655C10.1484 30.1583 10.1608 30.1515 10.1736 30.1447C10.1904 30.1355 10.2077 30.1263 10.2253 30.117C10.2341 30.1126 10.2425 30.1082 10.2517 30.1038C10.275 30.0922 10.299 30.0806 10.3235 30.0694C10.3379 30.0626 10.3527 30.0557 10.3675 30.0497C10.3824 30.0429 10.3972 30.0361 10.4124 30.0301C10.4248 30.0249 10.4377 30.0193 10.4505 30.0141C10.4577 30.0109 10.4649 30.0085 10.4721 30.0053C10.4849 30.0004 10.4974 29.9948 10.5106 29.99C10.5214 29.986 10.5326 29.9816 10.5434 29.9772C10.5675 29.9676 10.5923 29.9584 10.6176 29.9496C10.6288 29.9456 10.6404 29.9411 10.652 29.9371C10.6552 29.9359 10.658 29.9351 10.6608 29.9343C10.6677 29.9315 10.6749 29.9291 10.6821 29.9267C10.6961 29.9215 10.7101 29.9167 10.7245 29.9119C10.7394 29.9071 10.7534 29.9023 10.7678 29.8975C10.7822 29.8927 10.7967 29.8879 10.8111 29.883C10.8403 29.8738 10.8696 29.865 10.8992 29.8558C11.0699 29.8045 11.2482 29.7592 11.4261 29.7204C11.457 29.7136 11.4882 29.7067 11.5187 29.7003C11.5724 29.6891 11.6265 29.6783 11.6798 29.6683C11.7102 29.6623 11.7411 29.6567 11.7711 29.6515C11.8473 29.6378 11.9222 29.6254 11.9955 29.6142C12.0171 29.6106 12.0392 29.6074 12.0608 29.6046C12.0684 29.6034 12.0752 29.6022 12.0825 29.6014C12.1041 29.5978 12.1257 29.595 12.1466 29.5926C12.1614 29.5906 12.1758 29.5885 12.1902 29.5869C12.2039 29.5845 12.2175 29.5833 12.2311 29.5817C12.2768 29.5761 12.3221 29.5709 12.3657 29.5665C12.381 29.5645 12.3966 29.5629 12.4118 29.5617C12.4294 29.5601 12.4467 29.5585 12.4631 29.5569C12.4952 29.5541 12.5264 29.5517 12.5569 29.5493C12.5825 29.5473 12.6073 29.5457 12.6318 29.5441C12.6318 29.5441 12.5076 28.8878 12.3052 28.0235C11.8993 26.2913 11.1793 23.7266 10.517 23.9558C10.3147 24.0259 10.2045 24.3188 10.1548 24.7279C9.9905 26.0762 10.4781 28.6898 10.4637 28.796C10.4457 28.935 7.86769 24.4097 6.90646 25.1554C6.25174 25.6631 7.81881 28.2206 8.32206 28.9855L8.32246 28.9871Z" fill="#94624B" stroke="black" stroke-width="0.356161" stroke-linecap="round" stroke-linejoin="round"/>
<path d="M8.53187 33.8509C8.64527 33.9503 8.76467 34.0468 8.90451 34.1045C9.04394 34.1618 9.20822 34.1755 9.34365 34.1089C9.53317 34.0156 9.62132 33.7916 9.64456 33.5812C9.6678 33.3713 9.64336 33.1561 9.68624 32.9494C9.72911 32.7422 9.86534 32.5323 10.0733 32.4954C10.2296 32.4678 10.3834 32.5427 10.5381 32.5783C10.9929 32.6833 11.4528 32.4457 11.8383 32.1829C11.9877 32.0811 12.138 31.9693 12.2262 31.8114C12.3512 31.5875 12.2562 31.5706 12.1773 31.3266C12.0487 30.9295 11.8539 30.3209 11.5194 30.0713C11.1848 29.8217 10.1041 30.7845 9.69265 30.7132C9.04034 30.6002 9.03873 29.5796 8.4321 29.8445C8.05546 30.0092 7.70967 30.2376 7.40275 30.5104C7.21563 30.6767 6.97082 30.8578 6.86223 31.0902C6.74283 31.3458 6.86544 31.6063 6.98164 31.8387C7.15914 32.1945 7.3691 32.5343 7.6079 32.8524C7.88037 33.2158 8.19089 33.5516 8.53267 33.8505L8.53187 33.8509Z" fill="#663421"/>
<path d="M10.1742 31.8378C9.67776 32.3174 8.65242 31.4495 8.62717 31.4279H8.62677C8.21808 30.6329 7.41832 29.7514 6.94031 29.5619C6.94031 29.5619 7.00642 28.9525 7.49445 28.6207C7.67476 28.4981 7.98088 28.6696 8.32346 28.9877C8.36593 29.027 8.4092 29.0687 8.45248 29.1127C8.45408 29.1147 8.45488 29.1159 8.45608 29.1167C8.88521 29.5483 9.35161 30.1709 9.69339 30.7134C9.69499 30.7651 9.70781 30.8184 9.73386 30.8737C9.78915 30.9931 9.86728 31.0901 9.96144 31.1682C10.1482 31.5144 10.2407 31.7737 10.1746 31.8378H10.1742Z" fill="#94624B" stroke="black" stroke-width="0.356161" stroke-linecap="round" stroke-linejoin="round"/>
<path d="M6.60828 30.9693C6.60828 30.9693 8.11243 33.1567 8.73269 32.7299C9.35294 32.3028 8.37208 30.7598 7.42687 29.8895" fill="#94624B"/>
<path d="M6.60828 30.9693C6.60828 30.9693 8.11243 33.1567 8.73269 32.7299C9.35294 32.3028 8.37208 30.7598 7.42687 29.8895" stroke="black" stroke-width="0.356161" stroke-linecap="round" stroke-linejoin="round"/>
<path d="M12.4809 29.5566C12.4809 29.5566 9.40083 29.8684 9.7398 30.9274C10.0788 31.9864 12.1779 31.3264 12.1779 31.3264" fill="#94624B"/>
<path d="M12.4809 29.5566C12.4809 29.5566 9.40083 29.8684 9.7398 30.9274C10.0788 31.9864 12.1779 31.3264 12.1779 31.3264" stroke="black" stroke-width="0.356161" stroke-linecap="round" stroke-linejoin="round"/>
<path d="M11.6975 32.0404C10.6862 32.2167 9.83195 33.0785 9.66406 34.0911" stroke="black" stroke-width="0.356161" stroke-linecap="round" stroke-linejoin="round"/>
<path d="M8.89053 35.614L8.71022 38.069L8.62488 39.2322C8.62488 39.2322 11.2005 40.3032 13.9599 39.594C13.8045 38.9377 13.6506 38.2846 13.5104 37.6863C13.1754 36.2591 12.9206 35.1448 12.9174 35.0531" stroke="black" stroke-width="0.356161" stroke-linecap="round" stroke-linejoin="round"/>
<path d="M13.0488 34.7448C13.3453 34.2448 14.0409 33.3544 14.1178 32.991C14.2168 32.5254 14.1002 30.2772 13.1322 29.58C13.0969 29.5548 13.0047 29.5412 12.8721 29.5396C12.8625 29.6922 12.8673 29.8401 12.8825 29.9679C12.9719 30.7228 13.044 31.3999 12.9619 32.1652C12.8829 32.9029 12.7788 33.6553 12.939 34.3798C12.9663 34.5028 13.0031 34.625 13.0488 34.7448Z" fill="#AD8679"/>
<path d="M11.8433 28.3617C12.02 28.423 12.2119 28.278 12.2809 28.1045C12.2913 28.0788 12.2993 28.0528 12.3061 28.0259C11.9002 26.2938 11.1802 23.729 10.5179 23.9582C10.3155 24.0283 10.2053 24.3212 10.1556 24.7303C10.2534 24.7724 10.3484 24.8185 10.4357 24.8726C10.9205 25.1735 11.1742 25.742 11.2944 26.3002C11.4146 26.8583 11.4298 27.4369 11.5813 27.9875C11.6237 28.1405 11.6939 28.3096 11.8433 28.3617Z" fill="#AD8679"/>
<path d="M6.99487 34.366C7.37191 35.0475 8.88969 35.6157 8.88969 35.6157L8.78752 37.0089L8.70939 38.0703L8.62404 39.2335C8.62404 39.2335 11.0666 40.2492 13.7427 39.647C13.8145 39.6309 13.887 39.6141 13.9591 39.5953C13.9375 39.5043 13.9162 39.4134 13.8946 39.3228C13.8902 39.304 13.8858 39.2855 13.8814 39.2667C13.7528 38.7222 13.6265 38.1857 13.5095 37.6872C13.1746 36.26 12.9197 35.1457 12.9165 35.054C12.9073 34.7851 14.0196 33.4568 14.1182 32.9912C14.2176 32.5257 14.1006 30.2778 13.1329 29.5802C13.0788 29.5418 12.8925 29.531 12.6329 29.5462" stroke="black" stroke-width="0.356161" stroke-linecap="round" stroke-linejoin="round"/>
<path d="M12.4798 29.5573C11.4692 29.6451 9.67178 30.0554 9.69262 30.7133C9.35083 30.1708 8.88444 29.5481 8.45491 29.1166C8.45411 29.1158 8.45291 29.1146 8.45171 29.1126C8.40803 29.0689 8.36476 29.0268 8.32269 28.9876C7.81943 28.2227 6.25237 25.6651 6.90748 25.1574C7.86871 24.4118 10.4467 28.9367 10.4647 28.7984C10.4832 28.6598 9.64854 24.2587 10.5176 23.9582C11.5101 23.6148 12.6324 29.5465 12.6324 29.5465C12.5839 29.5493 12.533 29.5529 12.4802 29.5577" stroke="black" stroke-width="0.356161" stroke-linecap="round" stroke-linejoin="round"/>
</g>
<defs>
<clipPath id="clip0_3438_17363">
<rect y="0.000335693" width="40" height="40" rx="20" fill="white"/>
</clipPath>
</defs>
</svg>
