<svg width="108" height="108" viewBox="0 0 108 108" fill="none" xmlns="http://www.w3.org/2000/svg">
<rect y="-1.52588e-05" width="108" height="108" rx="54" fill="#F6F8FA"/>
<path d="M63.5793 84.2846L74.7378 74.7261C77.2109 72.6076 77.4985 68.8844 75.38 66.4112C73.7918 64.5572 71.3057 63.9315 69.1189 64.6299L68.8384 64.7271L55.2397 69.3207C58.4834 68.2895 62.1735 69.2136 64.5307 71.9654C67.6688 75.6288 67.2426 81.1466 63.5793 84.2846Z" fill="#CDD0D5" stroke="#868C98" stroke-linecap="round" stroke-linejoin="round"/>
<path d="M55.2397 69.3207L68.8383 64.7271L69.1189 64.6299C71.3057 63.9315 73.7918 64.5572 75.38 66.4112L45.4198 31.4359L23.1475 50.5146L51.2601 83.3331C54.3982 86.9965 59.9159 87.4227 63.5793 84.2846C67.2425 81.1466 67.6688 75.6288 64.5307 71.9655C62.1735 69.2137 58.4834 68.2895 55.2397 69.3207Z" fill="white" stroke="#868C98" stroke-linecap="round" stroke-linejoin="round"/>
<path d="M55.2397 69.3206L55.0815 69.3726" stroke="#868C98" stroke-linecap="round" stroke-linejoin="round"/>
<path d="M51.1815 67.832C55.1191 67.832 58.3112 64.6399 58.3112 60.7022C58.3112 56.7646 55.1191 53.5725 51.1815 53.5725C47.2438 53.5725 44.0518 56.7646 44.0518 60.7022C44.0518 64.6399 47.2438 67.832 51.1815 67.832Z" fill="#868C98" stroke="#868C98" stroke-linecap="round" stroke-linejoin="round"/>
<path d="M26.2708 54.1607C28.2864 52.4341 28.5202 49.407 26.7935 47.3913L23.1475 50.5146L26.2708 54.1607Z" fill="#868C98" stroke="#868C98" stroke-linecap="round" stroke-linejoin="round"/>
<path d="M48.5429 35.082L45.4196 31.4359L41.7734 34.5592C43.5001 36.5749 46.5272 36.8087 48.5429 35.082Z" fill="#868C98" stroke="#868C98" stroke-linecap="round" stroke-linejoin="round"/>
<path d="M71.4333 71.5438L79.4555 59.2344C81.2335 56.5061 80.4631 52.8522 77.7348 51.0741C75.6896 49.7412 73.1278 49.8396 71.2254 51.1244L70.9835 51.2966L59.2241 59.527C62.0472 57.6257 65.8483 57.4755 68.8839 59.4538C72.9252 62.0875 74.0669 67.5026 71.4333 71.5438Z" fill="#E2E4E9" stroke="#868C98" stroke-linecap="round" stroke-linejoin="round"/>
<path d="M59.2239 59.5269L70.9833 51.2964L71.2253 51.1243C73.1276 49.8394 75.6894 49.7411 77.7346 51.074L39.1519 25.9292L23.1396 50.4988L59.3432 74.093C63.3844 76.7267 68.7994 75.5848 71.4332 71.5436C74.0668 67.5025 72.925 62.0873 68.8838 59.4536C65.8482 57.4753 62.0471 57.6256 59.2239 59.5269Z" fill="white" stroke="#868C98" stroke-linecap="round" stroke-linejoin="round"/>
<path d="M59.2241 59.527L59.0869 59.6214" stroke="#868C98" stroke-linecap="round" stroke-linejoin="round"/>
<path d="M52.9078 60.3802C57.3172 60.3802 60.8917 56.8057 60.8917 52.3963C60.8917 47.9869 57.3172 44.4123 52.9078 44.4123C48.4984 44.4123 44.9238 47.9869 44.9238 52.3963C44.9238 56.8057 48.4984 60.3802 52.9078 60.3802Z" fill="#CDD0D5" stroke="#868C98" stroke-linecap="round" stroke-linejoin="round"/>
<path d="M27.1618 53.1203C28.6109 50.8967 27.9845 47.9259 25.7609 46.4768L23.1396 50.499L27.1618 53.1203Z" fill="#868C98" stroke="#868C98" stroke-linecap="round" stroke-linejoin="round"/>
<path d="M43.1738 28.5505L39.1516 25.9292L36.5303 29.9515C38.7539 31.4006 41.7246 30.7742 43.1738 28.5505Z" fill="#868C98" stroke="#868C98" stroke-linecap="round" stroke-linejoin="round"/>
<path d="M48.5625 50.2266L50.7064 52.3681L48.5625 50.2266Z" fill="#CDD0D5"/>
<path d="M48.5625 50.2266L50.7064 52.3681" stroke="#868C98" stroke-linecap="round" stroke-linejoin="round"/>
<path d="M50.7059 50.2254L48.5645 52.3693L50.7059 50.2254Z" fill="#CDD0D5"/>
<path d="M50.7059 50.2254L48.5645 52.3693" stroke="#868C98" stroke-linecap="round" stroke-linejoin="round"/>
<path d="M55.1079 50.2228L57.2518 52.3642L55.1079 50.2228Z" fill="#CDD0D5"/>
<path d="M55.1079 50.2228L57.2518 52.3642" stroke="#868C98" stroke-linecap="round" stroke-linejoin="round"/>
<path d="M57.2508 50.2216L55.1094 52.3655L57.2508 50.2216Z" fill="#CDD0D5"/>
<path d="M57.2508 50.2216L55.1094 52.3655" stroke="#868C98" stroke-linecap="round" stroke-linejoin="round"/>
<path d="M49.9023 54.5712L55.458 54.568L49.9023 54.5712Z" fill="#CDD0D5"/>
<path d="M49.9023 54.5712L55.458 54.568" stroke="#868C98" stroke-linecap="round" stroke-linejoin="round"/>
<path d="M26.2735 82.3813C29.5274 82.3813 32.1651 79.7435 32.1651 76.4896C32.1651 73.2357 29.5274 70.598 26.2735 70.598C23.0196 70.598 20.3818 73.2357 20.3818 76.4896C20.3818 79.7435 23.0196 82.3813 26.2735 82.3813Z" fill="#E2E4E9" stroke="#868C98" stroke-linecap="round" stroke-linejoin="round"/>
<path d="M25.5415 42.8324C30.2091 42.8324 33.9931 39.0485 33.9931 34.3808C33.9931 29.7131 30.2091 25.9292 25.5415 25.9292C20.8738 25.9292 17.0898 29.7131 17.0898 34.3808C17.0898 39.0485 20.8738 42.8324 25.5415 42.8324Z" fill="#E2E4E9" stroke="#868C98" stroke-linecap="round" stroke-linejoin="round"/>
<path d="M87.5685 80.3281C91.1023 80.3281 93.967 77.4634 93.967 73.9296C93.967 70.3957 91.1023 67.531 87.5685 67.531C84.0346 67.531 81.1699 70.3957 81.1699 73.9296C81.1699 77.4634 84.0346 80.3281 87.5685 80.3281Z" fill="#E2E4E9" stroke="#868C98" stroke-linecap="round" stroke-linejoin="round"/>
<path d="M87.4494 77.4512C87.2515 77.4262 87.067 77.3327 86.924 77.1849C86.7668 77.0225 86.6829 76.8303 86.6713 76.6064C86.649 76.175 86.9371 75.7952 87.3667 75.6899C87.4241 75.6759 87.4546 75.6731 87.5573 75.6727C87.7217 75.6721 87.8316 75.6958 87.9557 75.7583C88.2603 75.9117 88.4443 76.194 88.4573 76.5281C88.4703 76.8607 88.3068 77.1603 88.0166 77.3355C87.8547 77.4333 87.6455 77.4759 87.4494 77.4512ZM86.5218 75.4454C86.4822 75.4257 86.134 75.0776 86.1152 75.0388C86.1027 75.013 86.1011 74.9976 86.1032 74.9201C86.1052 74.8466 86.1082 74.8259 86.1208 74.8018C86.1384 74.7679 86.2763 74.6328 86.3747 74.5529C86.5912 74.3773 86.8757 74.239 87.1474 74.1774C87.2973 74.1433 87.3864 74.1342 87.5681 74.1342C87.7498 74.1342 87.8388 74.1433 87.9887 74.1774C88.2604 74.239 88.5447 74.3772 88.7615 74.5529C88.8726 74.6431 89.0031 74.773 89.0169 74.8074C89.0321 74.8455 89.0388 74.9916 89.027 75.0283C89.0156 75.0637 88.6575 75.4248 88.6131 75.4457C88.5729 75.4645 88.5034 75.465 88.463 75.4468C88.4458 75.439 88.4148 75.4121 88.3874 75.3813C88.324 75.3097 88.2246 75.2283 88.1343 75.174C87.7322 74.932 87.2227 74.9721 86.8606 75.2742C86.8245 75.3043 86.7741 75.3525 86.7486 75.3813C86.7213 75.4121 86.6903 75.439 86.6731 75.4468C86.633 75.465 86.5599 75.4643 86.5218 75.4454ZM85.4755 74.4042C85.4378 74.3851 85.068 74.0117 85.0587 73.9833C85.0544 73.9702 85.052 73.9225 85.0534 73.8742C85.0552 73.8042 85.0585 73.7829 85.0707 73.7594C85.0997 73.7036 85.3643 73.4582 85.5372 73.3267C85.8131 73.1169 86.1861 72.9225 86.52 72.8146C87.271 72.5718 88.0901 72.5977 88.8157 72.8873C89.085 72.9947 89.3802 73.1603 89.5989 73.3267C89.7719 73.4582 90.0365 73.7036 90.0655 73.7594C90.0777 73.7829 90.0809 73.8042 90.0828 73.8742C90.0841 73.9227 90.0817 73.9702 90.0775 73.9833C90.0674 74.014 89.6901 74.3925 89.655 74.4071C89.6223 74.4208 89.553 74.4203 89.5178 74.4062C89.4989 74.3987 89.4657 74.3693 89.4168 74.3168C89.1592 74.0403 88.7858 73.8037 88.4004 73.6728C88.1201 73.5776 87.8728 73.5374 87.5681 73.5374C87.2634 73.5374 87.0161 73.5776 86.7358 73.6728C86.3504 73.8037 85.977 74.0403 85.7194 74.3168C85.6704 74.3693 85.6373 74.3987 85.6184 74.4062C85.5804 74.4214 85.5074 74.4203 85.4755 74.4042ZM84.422 73.3463C84.3802 73.3273 84.0277 72.9703 84.0165 72.9358C84.0116 72.9204 84.0092 72.8758 84.0107 72.8243C84.0124 72.7544 84.0158 72.733 84.028 72.7096C84.0501 72.6671 84.2777 72.4482 84.4472 72.3063C85.1444 71.7228 85.9797 71.349 86.8706 71.2217C87.1434 71.1827 87.2182 71.178 87.5681 71.178C87.918 71.178 87.9928 71.1827 88.2656 71.2217C89.1565 71.349 89.9918 71.7228 90.689 72.3063C90.8586 72.4481 91.0861 72.6671 91.1082 72.7096C91.1204 72.733 91.1236 72.7543 91.1255 72.8243C91.1269 72.8758 91.1244 72.9204 91.1197 72.9357C91.1078 72.9725 90.7554 73.3277 90.7118 73.3468C90.6701 73.365 90.602 73.3646 90.5608 73.3459C90.5408 73.3368 90.4876 73.2907 90.4133 73.2181C90.0975 72.9093 89.7863 72.6855 89.4018 72.4908C88.9261 72.2498 88.455 72.1169 87.8917 72.0649C87.6814 72.0455 87.3037 72.0544 87.0611 72.0846C86.5977 72.1422 86.1546 72.2778 85.7344 72.4907C85.3499 72.6855 85.0386 72.9093 84.7229 73.2181C84.6486 73.2907 84.5954 73.3368 84.5755 73.3459C84.5349 73.3642 84.462 73.3644 84.422 73.3463Z" fill="#868C98"/>
<path d="M25.5407 29.8329C23.0999 29.8329 21.1191 31.8703 21.1191 34.3808C21.1191 36.8913 23.0999 38.9287 25.5407 38.9287C27.9815 38.9287 29.9623 36.8913 29.9623 34.3808C29.9623 31.8703 27.9815 29.8329 25.5407 29.8329ZM27.3361 36.5245C27.2612 36.5245 27.2148 36.5007 27.1453 36.4585C26.0328 35.769 24.7384 35.7397 23.4601 36.0092C23.3905 36.0276 23.2996 36.0569 23.2479 36.0569C23.075 36.0569 22.9662 35.9157 22.9662 35.7672C22.9662 35.5783 23.075 35.4884 23.2087 35.4591C24.6689 35.1272 26.1611 35.1565 27.4341 35.9396C27.5429 36.0111 27.6071 36.0753 27.6071 36.2421C27.6071 36.409 27.4805 36.5245 27.3361 36.5245ZM27.8157 35.3216C27.723 35.3216 27.6605 35.2794 27.5964 35.2445C26.4821 34.566 24.8204 34.2928 23.3424 34.7054C23.2568 34.7292 23.2105 34.7531 23.1302 34.7531C22.9395 34.7531 22.7844 34.5935 22.7844 34.3973C22.7844 34.2011 22.8771 34.0709 23.0607 34.0177C23.5563 33.8747 24.0627 33.7683 24.8044 33.7683C25.9615 33.7683 27.0793 34.0636 27.9601 34.6027C28.1045 34.6907 28.1615 34.8044 28.1615 34.964C28.1598 35.162 28.01 35.3216 27.8157 35.3216ZM28.3684 33.9242C28.2756 33.9242 28.2186 33.9003 28.1384 33.8527C26.8689 33.0733 24.5993 32.8862 23.1302 33.308C23.0661 33.3264 22.9858 33.3557 22.9002 33.3557C22.6649 33.3557 22.4848 33.1668 22.4848 32.9229C22.4848 32.679 22.6346 32.5323 22.7951 32.4846C23.4226 32.2957 24.1251 32.2059 24.8899 32.2059C26.1915 32.2059 27.5554 32.4846 28.552 33.0825C28.6911 33.165 28.782 33.2787 28.782 33.4969C28.782 33.7463 28.5859 33.9242 28.3684 33.9242Z" fill="#868C98"/>
<path d="M79.1171 40.5543C85.0002 40.5543 89.7693 35.7851 89.7693 29.9021C89.7693 24.019 85.0002 19.2498 79.1171 19.2498C73.234 19.2498 68.4648 24.019 68.4648 29.9021C68.4648 35.7851 73.234 40.5543 79.1171 40.5543Z" fill="#E2E4E9" stroke="#868C98" stroke-linecap="round" stroke-linejoin="round"/>
<path d="M84.8527 27.0188C84.7129 26.5016 84.3094 26.0966 83.7922 25.9583C83.0975 25.6901 76.3685 25.5587 74.4165 25.966C73.8993 26.1059 73.4943 26.5093 73.356 27.0265C73.0424 28.4021 73.0186 31.3762 73.3636 32.7826C73.5035 33.2998 73.907 33.7048 74.4242 33.8431C75.7998 34.1597 82.3397 34.2043 83.7999 33.8431C84.3171 33.7032 84.7221 33.2998 84.8604 32.7826C85.1947 31.284 85.2185 28.4944 84.8527 27.0188Z" fill="#868C98"/>
<path d="M81.0876 29.9007L77.9521 28.1024V31.699L81.0876 29.9007Z" fill="white"/>
<path d="M17.1707 20.8584C17.1707 20.8584 12.7869 19.5524 11.4706 23.9168C12.7869 19.5525 8.41211 18.2168 8.41211 18.2168C8.41211 18.2168 12.7959 19.5226 14.1122 15.1583C12.7959 19.5226 17.1707 20.8584 17.1707 20.8584Z" fill="white" stroke="#868C98" stroke-linecap="round" stroke-linejoin="round"/>
<path d="M81.496 96.1584C81.496 96.1584 77.7522 100.55 82.1165 104.296C77.7521 100.55 73.9785 104.917 73.9785 104.917C73.9785 104.917 77.7223 100.525 73.3579 96.7788C77.7223 100.525 81.496 96.1584 81.496 96.1584Z" fill="white" stroke="#868C98" stroke-linecap="round" stroke-linejoin="round"/>
</svg>
