<svg width="20" height="20" viewBox="0 0 20 20" fill="none" xmlns="http://www.w3.org/2000/svg">
<path d="M14.7835 18.9585H6.3585C6.09183 18.9585 5.85849 18.7918 5.76683 18.5501C5.67516 18.3001 5.75016 18.0251 5.95016 17.8584C6.15016 17.6918 6.33349 17.4751 6.46682 17.2418C6.73349 16.8168 6.86683 16.3335 6.86683 15.8418C6.86683 14.3501 5.65017 13.1335 4.1585 13.1335C3.54183 13.1335 2.9585 13.3418 2.46683 13.7334C2.2835 13.8834 2.02516 13.9085 1.80849 13.8085C1.59183 13.7085 1.4585 13.4835 1.4585 13.2418V9.60014C1.4585 7.52514 3.14182 5.8418 5.21682 5.8418H14.7835C16.8585 5.8418 18.5418 7.52514 18.5418 9.60014V10.8001C18.5418 11.1418 18.2585 11.4251 17.9168 11.4251H16.2335C15.9418 11.4251 15.6752 11.5335 15.4835 11.7335L15.4752 11.7418C15.2418 11.9668 15.1335 12.2751 15.1585 12.5918C15.2085 13.1418 15.7335 13.5834 16.3335 13.5834H17.9168C18.2585 13.5834 18.5418 13.8668 18.5418 14.2084V15.2001C18.5418 17.2751 16.8585 18.9585 14.7835 18.9585ZM7.65016 17.7085H14.7835C16.1668 17.7085 17.2918 16.5834 17.2918 15.2001V14.8334H16.3335C15.0752 14.8334 14.0085 13.9001 13.9085 12.7001C13.8418 12.0168 14.0918 11.3418 14.5918 10.8501C15.0252 10.4085 15.6085 10.1668 16.2335 10.1668H17.2918V9.5918C17.2918 8.20846 16.1668 7.08346 14.7835 7.08346H5.21682C3.83349 7.08346 2.7085 8.20846 2.7085 9.5918V12.1585C3.17516 11.9751 3.66683 11.8751 4.16683 11.8751C6.35016 11.8751 8.12516 13.6501 8.12516 15.8335C8.12516 16.4918 7.95849 17.1418 7.65016 17.7085Z" fill="#8113DD"/>
<path d="M2.0835 10.967C1.74183 10.967 1.4585 10.6837 1.4585 10.342V6.53371C1.4585 5.29204 2.24183 4.167 3.40016 3.72533L10.0168 1.22533C10.7002 0.966997 11.4585 1.0587 12.0502 1.47537C12.6502 1.89204 13.0002 2.56703 13.0002 3.29203V6.45869C13.0002 6.80035 12.7168 7.08369 12.3752 7.08369C12.0335 7.08369 11.7502 6.80035 11.7502 6.45869V3.29203C11.7502 2.97536 11.6002 2.68369 11.3335 2.50035C11.0668 2.31702 10.7502 2.27535 10.4502 2.39202L3.8335 4.89202C3.1585 5.15035 2.70017 5.80871 2.70017 6.53371V10.342C2.7085 10.692 2.42516 10.967 2.0835 10.967Z" fill="#8113DD"/>
<path d="M16.3331 14.8336C15.0747 14.8336 14.0081 13.9003 13.9081 12.7003C13.8414 12.0086 14.0914 11.3337 14.5914 10.842C15.0164 10.4087 15.5997 10.167 16.2247 10.167H17.9581C18.7831 10.192 19.4164 10.842 19.4164 11.642V13.3587C19.4164 14.1587 18.7831 14.8086 17.9831 14.8336H16.3331ZM17.9414 11.417H16.2331C15.9414 11.417 15.6747 11.5253 15.4831 11.7253C15.2414 11.9587 15.1247 12.2753 15.1581 12.592C15.2081 13.142 15.7331 13.5836 16.3331 13.5836H17.9664C18.0747 13.5836 18.1747 13.4837 18.1747 13.3587V11.642C18.1747 11.517 18.0747 11.4253 17.9414 11.417Z" fill="#8113DD"/>
<path d="M11.6668 10.625H5.8335C5.49183 10.625 5.2085 10.3417 5.2085 10C5.2085 9.65833 5.49183 9.375 5.8335 9.375H11.6668C12.0085 9.375 12.2918 9.65833 12.2918 10C12.2918 10.3417 12.0085 10.625 11.6668 10.625Z" fill="#8113DD"/>
<path d="M4.16683 19.7917C2.7835 19.7917 1.4835 19.0583 0.783498 17.8667C0.408498 17.2667 0.208496 16.5583 0.208496 15.8333C0.208496 14.6167 0.750162 13.4916 1.69183 12.7416C2.39183 12.1833 3.27516 11.875 4.16683 11.875C6.35016 11.875 8.12516 13.65 8.12516 15.8333C8.12516 16.5583 7.92516 17.2667 7.55016 17.875C7.35016 18.225 7.07516 18.5417 6.7585 18.8083C6.06683 19.4417 5.14183 19.7917 4.16683 19.7917ZM4.16683 13.125C3.55016 13.125 2.96683 13.3333 2.47516 13.725C1.8335 14.2333 1.4585 15.0083 1.4585 15.8333C1.4585 16.325 1.59183 16.8083 1.85016 17.225C2.34183 18.0583 3.2085 18.5417 4.16683 18.5417C4.82516 18.5417 5.4585 18.3 5.94183 17.8667C6.1585 17.6833 6.34183 17.4667 6.47517 17.2333C6.74183 16.8083 6.87516 16.325 6.87516 15.8333C6.87516 14.3417 5.6585 13.125 4.16683 13.125Z" fill="#8113DD"/>
<path d="M3.69156 17.2836C3.53323 17.2836 3.37489 17.2253 3.24989 17.1003L2.4249 16.2753C2.18324 16.0337 2.18324 15.6336 2.4249 15.3919C2.66657 15.1503 3.06657 15.1503 3.30823 15.3919L3.70823 15.792L5.04157 14.5586C5.29157 14.3253 5.69157 14.342 5.9249 14.592C6.15823 14.842 6.14157 15.242 5.89157 15.4753L4.11657 17.1169C3.99157 17.2253 3.84156 17.2836 3.69156 17.2836Z" fill="#8113DD"/>
</svg>
