<svg width="16" height="15" viewBox="0 0 16 15" fill="none" xmlns="http://www.w3.org/2000/svg">
<path d="M3.84125 12.25L0.5 14.875V1C0.5 0.801088 0.579018 0.610322 0.71967 0.46967C0.860322 0.329018 1.05109 0.25 1.25 0.25H14.75C14.9489 0.25 15.1397 0.329018 15.2803 0.46967C15.421 0.610322 15.5 0.801088 15.5 1V11.5C15.5 11.6989 15.421 11.8897 15.2803 12.0303C15.1397 12.171 14.9489 12.25 14.75 12.25H3.84125ZM3.32225 10.75H14V1.75H2V11.7887L3.32225 10.75ZM4.25 5.5H5.75C5.75 6.09674 5.98705 6.66903 6.40901 7.09099C6.83097 7.51295 7.40326 7.75 8 7.75C8.59674 7.75 9.16903 7.51295 9.59099 7.09099C10.0129 6.66903 10.25 6.09674 10.25 5.5H11.75C11.75 6.49456 11.3549 7.44839 10.6517 8.15165C9.94839 8.85491 8.99456 9.25 8 9.25C7.00544 9.25 6.05161 8.85491 5.34835 8.15165C4.64509 7.44839 4.25 6.49456 4.25 5.5Z" fill="#525866"/>
</svg>
