<svg width="29" height="27" viewBox="0 0 29 27" fill="none" xmlns="http://www.w3.org/2000/svg">
<path d="M22.8112 12.8483C26.2032 12.8483 28.9525 10.099 28.9525 6.70703C28.9525 3.31506 26.2032 0.565737 22.8112 0.565736C19.4192 0.565735 16.6699 3.31506 16.6699 6.70703C16.6699 10.099 19.4192 12.8483 22.8112 12.8483Z" fill="#6E15B5"/>
<path d="M14.8511 13.5281L14.8512 0.570132L1.60938 0.570129C1.66122 7.72383 7.39046 13.5254 14.5128 13.7041L14.5128 26.6621L27.7545 26.6621C27.7027 19.5084 21.9735 13.7068 14.8511 13.5281Z" fill="#6E15B5"/>
<path d="M6.26545 26.6264C9.72576 26.6264 12.5309 23.8213 12.5309 20.361C12.5309 16.9007 9.72577 14.0955 6.26545 14.0955C2.80514 14.0955 -4.90467e-07 16.9007 -1.09549e-06 20.361C-1.70051e-06 23.8213 2.80513 26.6264 6.26545 26.6264Z" fill="#6E15B5"/>
</svg>
