<svg width="16" height="17" viewBox="0 0 16 17" fill="none" xmlns="http://www.w3.org/2000/svg">
<path d="M7.17489 0.575012L14.5991 1.63626L15.6596 9.06126L8.76564 15.9553C8.62499 16.0959 8.43426 16.1749 8.23539 16.1749C8.03651 16.1749 7.84578 16.0959 7.70514 15.9553L0.280137 8.53026C0.139533 8.38962 0.0605469 8.19888 0.0605469 8.00001C0.0605469 7.80114 0.139533 7.61041 0.280137 7.46976L7.17489 0.575012ZM7.70514 2.16651L1.87089 8.00001L8.23539 14.3638L14.0689 8.53026L13.2739 2.96151L7.70514 2.16651ZM9.29514 6.93951C9.01378 6.65805 8.85575 6.27635 8.85582 5.87837C8.85585 5.68131 8.8947 5.48619 8.97014 5.30415C9.04559 5.12211 9.15615 4.9567 9.29551 4.81739C9.43488 4.67807 9.60032 4.56757 9.78239 4.49219C9.96446 4.41681 10.1596 4.37803 10.3567 4.37807C10.7546 4.37814 11.1363 4.5363 11.4176 4.81776C11.699 5.09922 11.857 5.48093 11.857 5.8789C11.8569 6.27688 11.6987 6.65853 11.4173 6.93989C11.1358 7.22125 10.7541 7.37928 10.3561 7.37921C9.95815 7.37914 9.5765 7.22097 9.29514 6.93951Z" fill="#525866"/>
</svg>
