<svg width="44" height="44" viewBox="0 0 40 40" fill="none" xmlns="http://www.w3.org/2000/svg">
<rect width="40" height="40" rx="20" fill="#CBF5E5"/>
<path d="M26 26C26 26.1989 25.921 26.3897 25.7803 26.5303C25.6397 26.671 25.4489 26.75 25.25 26.75H14.75C14.5511 26.75 14.3603 26.671 14.2197 26.5303C14.079 26.3897 14 26.1989 14 26V19.25H11.75L19.4952 12.209C19.6333 12.0834 19.8133 12.0137 20 12.0137C20.1867 12.0137 20.3667 12.0834 20.5048 12.209L28.25 19.25H26V26ZM16.625 20.75C16.625 21.6451 16.9806 22.5036 17.6135 23.1365C18.2464 23.7694 19.1049 24.125 20 24.125C20.8951 24.125 21.7535 23.7694 22.3865 23.1365C23.0194 22.5036 23.375 21.6451 23.375 20.75H21.875C21.875 21.2473 21.6775 21.7242 21.3258 22.0758C20.9742 22.4275 20.4973 22.625 20 22.625C19.5027 22.625 19.0258 22.4275 18.6742 22.0758C18.3225 21.7242 18.125 21.2473 18.125 20.75H16.625Z" fill="#176448"/>
</svg>
