<svg width="25" height="24" viewBox="0 0 25 24" fill="none" xmlns="http://www.w3.org/2000/svg">
<path d="M12.083 20.5H7.08301C4.08301 20.5 2.08301 19 2.08301 15.5V8.5C2.08301 5 4.08301 3.5 7.08301 3.5H17.083C20.083 3.5 22.083 5 22.083 8.5V11.5" stroke="#C179FF" stroke-width="1.5" stroke-miterlimit="10" stroke-linecap="round" stroke-linejoin="round"/>
<path d="M17.083 9L13.953 11.5C12.923 12.32 11.233 12.32 10.203 11.5L7.08301 9" stroke="#C179FF" stroke-width="1.5" stroke-miterlimit="10" stroke-linecap="round" stroke-linejoin="round"/>
<path d="M19.293 14.7698L15.7531 18.3098C15.6131 18.4498 15.483 18.7098 15.453 18.8998L15.263 20.2498C15.193 20.7398 15.533 21.0798 16.023 21.0098L17.3731 20.8198C17.5631 20.7898 17.8331 20.6598 17.9631 20.5198L21.5031 16.9798C22.1131 16.3698 22.4031 15.6598 21.5031 14.7598C20.6131 13.8698 19.903 14.1598 19.293 14.7698Z" stroke="#C179FF" stroke-width="1.5" stroke-miterlimit="10" stroke-linecap="round" stroke-linejoin="round"/>
<path d="M18.7832 15.2798C19.0832 16.3598 19.9232 17.1998 21.0032 17.4998" stroke="#C179FF" stroke-width="1.5" stroke-miterlimit="10" stroke-linecap="round" stroke-linejoin="round"/>
</svg>
