<svg width="88" height="88" viewBox="0 0 88 88" fill="none" xmlns="http://www.w3.org/2000/svg">
<rect x="0.5" y="0.5" width="87" height="87" rx="43.5" fill="url(#paint0_linear_2974_52772)"/>
<rect x="0.5" y="0.5" width="87" height="87" rx="43.5" stroke="url(#paint1_linear_2974_52772)"/>
<g filter="url(#filter0_d_2974_52772)">
<rect x="16" y="16" width="56" height="56" rx="28" fill="white"/>
<rect x="16.5" y="16.5" width="55" height="55" rx="27.5" stroke="#E2E4E9"/>
<path d="M52.4 54.5H35.6C35.3216 54.5 35.0545 54.3894 34.8576 54.1925C34.6607 53.9955 34.55 53.7285 34.55 53.45V34.55C34.55 34.2715 34.6607 34.0045 34.8576 33.8075C35.0545 33.6106 35.3216 33.5 35.6 33.5H52.4C52.6785 33.5 52.9456 33.6106 53.1425 33.8075C53.3394 34.0045 53.4501 34.2715 53.4501 34.55V53.45C53.4501 53.7285 53.3394 53.9955 53.1425 54.1925C52.9456 54.3894 52.6785 54.5 52.4 54.5ZM39.8 38.75V40.85H48.2V38.75H39.8ZM39.8 42.95V45.05H48.2V42.95H39.8ZM39.8 47.15V49.25H48.2V47.15H39.8Z" fill="#8113DD"/>
</g>
<defs>
<filter id="filter0_d_2974_52772" x="12" y="14" width="64" height="64" filterUnits="userSpaceOnUse" color-interpolation-filters="sRGB">
<feFlood flood-opacity="0" result="BackgroundImageFix"/>
<feColorMatrix in="SourceAlpha" type="matrix" values="0 0 0 0 0 0 0 0 0 0 0 0 0 0 0 0 0 0 127 0" result="hardAlpha"/>
<feOffset dy="2"/>
<feGaussianBlur stdDeviation="2"/>
<feColorMatrix type="matrix" values="0 0 0 0 0.105882 0 0 0 0 0.109804 0 0 0 0 0.113725 0 0 0 0.04 0"/>
<feBlend mode="normal" in2="BackgroundImageFix" result="effect1_dropShadow_2974_52772"/>
<feBlend mode="normal" in="SourceGraphic" in2="effect1_dropShadow_2974_52772" result="shape"/>
</filter>
<linearGradient id="paint0_linear_2974_52772" x1="44" y1="0" x2="44" y2="88" gradientUnits="userSpaceOnUse">
<stop stop-color="#6E15B5" stop-opacity="0.5"/>
<stop offset="1" stop-color="#F7F8F8" stop-opacity="0"/>
<stop offset="1" stop-color="#6E15B5"/>
</linearGradient>
<linearGradient id="paint1_linear_2974_52772" x1="44" y1="0" x2="44" y2="88" gradientUnits="userSpaceOnUse">
<stop stop-color="#E4E5E7"/>
<stop offset="0.765625" stop-color="#E4E5E7" stop-opacity="0"/>
</linearGradient>
</defs>
</svg>
