<svg width="25" height="24" viewBox="0 0 25 24" fill="none" xmlns="http://www.w3.org/2000/svg">
<path d="M21.1632 8.58003V15.42C21.1632 16.54 20.5632 17.58 19.5932 18.15L13.6532 21.58C12.6832 22.14 11.4832 22.14 10.5032 21.58L4.56316 18.15C3.59316 17.59 2.99316 16.55 2.99316 15.42V8.58003C2.99316 7.46003 3.59316 6.41999 4.56316 5.84999L10.5032 2.42C11.4732 1.86 12.6732 1.86 13.6532 2.42L19.5932 5.84999C20.5632 6.41999 21.1632 7.45003 21.1632 8.58003Z" stroke="#C179FF" stroke-width="1.5" stroke-linecap="round" stroke-linejoin="round"/>
<path d="M12.0829 10.9998C13.3698 10.9998 14.4129 9.95662 14.4129 8.6698C14.4129 7.38298 13.3698 6.33984 12.0829 6.33984C10.7961 6.33984 9.75293 7.38298 9.75293 8.6698C9.75293 9.95662 10.7961 10.9998 12.0829 10.9998Z" stroke="#C179FF" stroke-width="1.5" stroke-linecap="round" stroke-linejoin="round"/>
<path d="M16.083 16.6599C16.083 14.8599 14.293 13.3999 12.083 13.3999C9.87301 13.3999 8.08301 14.8599 8.08301 16.6599" stroke="#C179FF" stroke-width="1.5" stroke-linecap="round" stroke-linejoin="round"/>
</svg>
