<svg width="20" height="20" viewBox="0 0 20 20" fill="none" xmlns="http://www.w3.org/2000/svg">
<path d="M12.5245 3.57812L14.9327 7.74963H17.5V9.24963H16.6248L16.057 16.0619C16.0414 16.2493 15.9559 16.424 15.8176 16.5514C15.6792 16.6788 15.4981 16.7495 15.31 16.7496H4.69C4.50193 16.7495 4.32077 16.6788 4.18242 16.5514C4.04406 16.424 3.95861 16.2493 3.943 16.0619L3.3745 9.24963H2.5V7.74963H5.0665L7.4755 3.57812L8.7745 4.32813L6.799 7.74963H13.2003L11.2255 4.32813L12.5245 3.57812ZM15.1195 9.24963H4.87975L5.38 15.2496H14.6193L15.1195 9.24963ZM10.75 10.7496V13.7496H9.25V10.7496H10.75ZM7.75 10.7496V13.7496H6.25V10.7496H7.75ZM13.75 10.7496V13.7496H12.25V10.7496H13.75Z" fill="#8113DD"/>
</svg>
