<svg width="17" height="17" viewBox="0 0 17 17" fill="none" xmlns="http://www.w3.org/2000/svg">
<path d="M2.99963 3.81062L0.567383 1.37912L1.62863 0.317871L4.06013 2.75012H15.4916C15.6085 2.75011 15.7238 2.77743 15.8283 2.8299C15.9328 2.88236 16.0235 2.95852 16.0933 3.05229C16.1631 3.14607 16.21 3.25486 16.2303 3.36999C16.2506 3.48511 16.2437 3.60339 16.2101 3.71537L14.4101 9.71537C14.3638 9.86993 14.2689 10.0054 14.1395 10.1018C14.01 10.1981 13.853 10.2501 13.6916 10.2501H4.49963V11.7501H12.7496V13.2501H3.74963C3.55072 13.2501 3.35996 13.1711 3.2193 13.0305C3.07865 12.8898 2.99963 12.699 2.99963 12.5001V3.81062ZM4.49963 4.25012V8.75012H13.1336L14.4836 4.25012H4.49963ZM4.12463 16.2501C3.82626 16.2501 3.54012 16.1316 3.32914 15.9206C3.11816 15.7096 2.99963 15.4235 2.99963 15.1251C2.99963 14.8268 3.11816 14.5406 3.32914 14.3296C3.54012 14.1186 3.82626 14.0001 4.12463 14.0001C4.423 14.0001 4.70915 14.1186 4.92013 14.3296C5.13111 14.5406 5.24963 14.8268 5.24963 15.1251C5.24963 15.4235 5.13111 15.7096 4.92013 15.9206C4.70915 16.1316 4.423 16.2501 4.12463 16.2501ZM13.1246 16.2501C12.8263 16.2501 12.5401 16.1316 12.3291 15.9206C12.1182 15.7096 11.9996 15.4235 11.9996 15.1251C11.9996 14.8268 12.1182 14.5406 12.3291 14.3296C12.5401 14.1186 12.8263 14.0001 13.1246 14.0001C13.423 14.0001 13.7092 14.1186 13.9201 14.3296C14.1311 14.5406 14.2496 14.8268 14.2496 15.1251C14.2496 15.4235 14.1311 15.7096 13.9201 15.9206C13.7092 16.1316 13.423 16.2501 13.1246 16.2501Z" fill="#8113DD"/>
</svg>
