<svg width="16" height="17" viewBox="0 0 16 17" fill="none" xmlns="http://www.w3.org/2000/svg">
<path d="M7.17489 0.574951L14.5991 1.6362L15.6596 9.0612L8.76564 15.9552C8.62499 16.0958 8.43426 16.1748 8.23539 16.1748C8.03651 16.1748 7.84578 16.0958 7.70514 15.9552L0.280137 8.5302C0.139533 8.38956 0.0605469 8.19882 0.0605469 7.99995C0.0605469 7.80108 0.139533 7.61035 0.280137 7.4697L7.17489 0.574951ZM7.70514 2.16645L1.87089 7.99995L8.23539 14.3637L14.0689 8.5302L13.2739 2.96145L7.70514 2.16645ZM9.29514 6.93945C9.01378 6.65799 8.85575 6.27629 8.85582 5.87831C8.85585 5.68125 8.8947 5.48613 8.97014 5.30409C9.04559 5.12204 9.15615 4.95664 9.29551 4.81733C9.43488 4.67801 9.60032 4.56751 9.78239 4.49213C9.96446 4.41675 10.1596 4.37797 10.3567 4.37801C10.7546 4.37808 11.1363 4.53624 11.4176 4.8177C11.699 5.09916 11.857 5.48087 11.857 5.87884C11.8569 6.27682 11.6987 6.65846 11.4173 6.93983C11.1358 7.22119 10.7541 7.37921 10.3561 7.37914C9.95815 7.37907 9.5765 7.22091 9.29514 6.93945Z" fill="#8113DD"/>
</svg>
