<svg width="40" height="40" viewBox="0 0 40 40" fill="none" xmlns="http://www.w3.org/2000/svg">
<g clip-path="url(#clip0_3438_10240)">
<rect y="-0.000335693" width="40" height="40" rx="20" fill="#C2D6FF"/>
<path d="M13.7771 14.8347C13.8816 15.0983 14.0527 15.3399 14.2623 15.5595C14.7587 16.0788 15.4724 16.4719 16.0369 16.7279C16.0357 16.7563 16.0341 16.7924 16.0321 16.8365C16.0161 17.2307 15.972 18.2329 15.8971 19.4706C15.7596 21.7452 15.5184 24.8148 15.1562 26.3667C15.1686 26.3631 15.1774 26.3603 15.1819 26.3587H15.1823C15.1823 26.3587 15.1839 26.3579 15.1847 26.3579C15.1851 26.3579 15.1851 26.3575 15.1851 26.3575L15.2011 26.8427C15.2011 26.8427 18.8429 32.3344 18.7547 32.7163C18.7275 32.8337 18.4458 33.1975 18.0535 33.6499C19.4483 34.1415 20.6568 33.8494 20.6568 33.8494C20.1755 33.3069 19.8113 32.8505 19.7805 32.7163C19.6923 32.3344 23.3341 26.8427 23.3341 26.8427L23.3501 26.3575L23.4539 23.1937C24.3951 23.5098 25.3748 23.6689 26.2567 23.4806C26.6249 23.402 26.9759 23.2626 27.3001 23.049C32.0289 19.9333 24.6696 9.62982 24.6696 9.62982C24.6696 9.62982 24.6624 10.1776 24.1094 10.529C23.8947 10.6652 23.5978 10.7718 23.1871 10.805C21.7178 10.924 19.6134 9.95117 18.4025 9.83217C17.1917 9.71316 17.132 9.9712 17.132 9.9712C17.132 9.9712 17.9858 12.7704 17.8664 13.3061C17.7474 13.8422 17.5094 14.3979 17.5094 14.3979C17.5094 14.3979 17.0923 12.2343 16.0798 12.2142C15.0673 12.1946 13.2013 13.3858 13.7771 14.8347Z" fill="#F3BBB0" stroke="black" stroke-width="0.356161" stroke-linecap="round" stroke-linejoin="round"/>
<path d="M14.259 43.0584H23.6879V34.1112H14.259L14.259 43.0584Z" fill="#BF9EF9" stroke="black" stroke-width="0.356161" stroke-linecap="round" stroke-linejoin="round"/>
<path d="M6.03962 41.0768C6.75724 41.5335 9.85731 41.0531 11.4769 40.7606C10.8286 40.0674 10.351 39.5101 10.1903 39.222C9.46384 37.9198 8.2622 35.5658 8.2622 35.5658L10.7412 33.9635L8.58755 32.1103C8.58755 32.1103 11.0537 28.747 12.0142 27.7581C11.9757 27.7685 11.0373 28.023 9.75834 28.3916C7.11104 29.1541 3.00486 30.4034 2.40665 30.9816C2.16864 31.2116 1.94546 31.4861 1.74432 31.7677C1.19058 32.5431 0.804722 33.3737 0.73901 33.4831C0.649659 33.6321 5.05675 40.4513 6.03962 41.0768Z" fill="#4C70F5" stroke="black" stroke-width="0.356161" stroke-linecap="round" stroke-linejoin="round"/>
<path d="M8.34251 32.1492C8.34251 32.1492 9.32418 34.0857 9.93281 34.7516C10.5414 35.4171 8.17382 35.7185 8.08728 36.0839C8.00113 36.4493 9.27129 42.5621 10.6208 43.4616C11.9703 44.3612 14.6372 42.2444 14.8812 41.8737C15.1252 41.5031 15.1192 35.47 14.8812 35.2052C14.6432 34.9407 12.4731 31.6592 12.288 31.6327C12.1029 31.6063 8.34251 32.1488 8.34251 32.1488V32.1492Z" fill="#2253DD"/>
<path d="M1.74451 31.7666C2.15881 32.0022 2.66207 32.1007 3.14248 32.0723C3.88495 32.0286 4.58614 31.7249 5.24686 31.3843C5.90759 31.0434 6.55188 30.6583 7.25908 30.4291C7.65095 30.3017 8.05764 30.224 8.4475 30.0913C8.83737 29.9587 9.21922 29.7632 9.48447 29.4482C9.72848 29.1581 9.8563 28.7519 9.75853 28.3904C7.11123 29.1529 3.00505 30.4023 2.40683 30.9804C2.16883 31.2104 1.94565 31.4849 1.74451 31.7666Z" fill="#80A1FF"/>
<path d="M10.1903 39.222C10.351 39.5101 10.8286 40.0674 11.4769 40.7606C9.85731 41.0531 6.75724 41.5335 6.03962 41.0768C5.05675 40.4513 0.649659 33.6321 0.73901 33.4831C0.828362 33.334 1.51313 31.8451 2.40665 30.9816C3.29375 30.1241 11.896 27.7902 12.0142 27.7581C11.0537 28.747 8.58755 32.1103 8.58755 32.1103L10.7412 33.9635L8.2622 35.5658C8.2622 35.5658 9.46384 37.9198 10.1903 39.222Z" stroke="black" stroke-width="0.356161" stroke-linecap="round" stroke-linejoin="round"/>
<path d="M14.2611 15.5587C14.0515 15.3391 13.8804 15.0975 13.7759 14.8338C13.2001 13.385 15.0661 12.1937 16.0786 12.2134C17.0911 12.2334 17.5082 14.3971 17.5082 14.3971C17.5082 14.3971 17.7462 13.8413 17.8652 13.3052C17.9846 12.7695 17.1308 9.97035 17.1308 9.97035C17.1308 9.97035 17.1905 9.71231 18.4013 9.83131C19.6122 9.95031 21.7166 10.9232 23.1859 10.8042C24.6548 10.6848 24.6684 9.62897 24.6684 9.62897C24.6684 9.62897 25.3111 9.08925 25.7687 8.2951C26.2795 7.40879 26.56 6.20595 25.4593 5.08404C24.3903 3.99379 23.3962 4.20094 22.4218 4.77832C21.5375 5.30241 20.6692 6.13222 19.7753 6.57417C19.6442 6.63908 19.5036 6.69478 19.355 6.74326C17.3688 7.39637 13.9181 6.79255 12.4712 9.10367C12.3338 9.32365 12.2216 9.54242 12.1323 9.76039C11.2131 12.0042 12.7437 14.1142 14.2611 15.5587Z" fill="#6D1249" stroke="black" stroke-width="0.356161" stroke-linecap="round" stroke-linejoin="round"/>
<path d="M15.0615 26.7243C15.0936 26.6173 15.1248 26.4979 15.1549 26.3681C15.1549 26.3673 15.1549 26.3665 15.1557 26.3657" stroke="black" stroke-width="0.356161" stroke-linecap="round" stroke-linejoin="round"/>
<path d="M28.3438 39.222C28.1831 39.5101 27.7055 40.0674 27.0572 40.7606C28.6768 41.0531 31.7768 41.5335 32.4945 41.0768C33.4773 40.4513 37.8844 33.6321 37.7951 33.4831C37.7057 33.334 37.0209 31.8451 36.1274 30.9816C35.2403 30.1241 26.6381 27.7902 26.5199 27.7581C27.4803 28.747 29.9465 32.1103 29.9465 32.1103L27.7929 33.9635L30.2719 35.5658C30.2719 35.5658 29.0702 37.9198 28.3438 39.222Z" fill="#4C70F5" stroke="black" stroke-width="0.356161" stroke-linecap="round" stroke-linejoin="round"/>
<path d="M28.3438 39.222C28.1831 39.5101 27.7055 40.0674 27.0572 40.7606C28.6768 41.0531 31.7768 41.5335 32.4945 41.0768C33.4757 40.4521 37.872 33.6517 37.7955 33.4839C37.7955 33.4835 37.7951 33.4835 37.7951 33.4831C37.7057 33.334 37.0209 31.8451 36.1274 30.9816C35.6009 30.4727 32.357 29.4438 29.7818 28.6849C28.018 28.1644 26.568 27.7713 26.5199 27.7581C27.4803 28.747 29.9465 32.1103 29.9465 32.1103L27.7929 33.9635L30.2719 35.5658C30.2719 35.5658 29.0702 37.9198 28.3438 39.222Z" fill="#4C70F5" stroke="black" stroke-width="0.356161" stroke-linecap="round" stroke-linejoin="round"/>
<path d="M8.26221 35.5648C8.26221 35.5648 9.46385 37.9188 10.1903 39.2211C10.351 39.5092 10.8286 40.0665 11.4769 40.7597C13.7575 43.1994 18.145 47.3176 18.2035 47.2591C18.248 47.2147 16.7995 41.295 15.5951 36.1122C15.4124 35.3252 15.2349 34.5551 15.0694 33.8255C14.4896 31.2695 14.0533 29.206 14.0216 28.6287C13.9306 26.9686 14.9636 26.4493 15.1547 26.3676C15.1635 26.364 15.1708 26.3612 15.1756 26.3592C15.1708 26.3608 15.1639 26.3628 15.1555 26.3652C15.0101 26.4121 14.3457 26.628 13.673 26.8829C13.1121 27.0956 12.5451 27.3353 12.2686 27.5268C12.2049 27.5709 12.1184 27.6502 12.0142 27.7572C11.0538 28.7461 8.58756 32.1094 8.58756 32.1094L10.7412 33.9625L8.26221 35.5648Z" fill="#4C70F5" stroke="black" stroke-width="0.356161" stroke-linecap="round" stroke-linejoin="round"/>
<path d="M26.5182 27.7574C26.5182 27.7574 26.519 27.7574 26.5206 27.7582" stroke="black" stroke-width="0.356161" stroke-linecap="round" stroke-linejoin="round"/>
<path d="M17.4004 34.3728C17.4004 34.3728 18.1565 36.6731 18.5572 36.8955C18.9578 37.1183 20.1447 37.1628 20.2637 37.059C20.3823 36.9548 21.5771 34.84 21.5771 34.84C21.2594 34.5114 20.9376 34.1653 20.6563 33.8479C20.6563 33.8479 19.4479 34.14 18.0531 33.6484C17.8568 33.8748 17.6336 34.1228 17.4004 34.3728Z" fill="#E86F3A" stroke="black" stroke-width="0.356161" stroke-linecap="round" stroke-linejoin="round"/>
<path d="M17.1174 42.5611C17.1395 42.6532 19.2935 46.0458 19.4887 46.0698C19.6838 46.0943 21.2505 43.2579 21.2505 43.2579L20.2636 37.0589C20.1446 37.1627 18.9578 37.1182 18.5571 36.8954C18.5571 36.8954 17.0958 42.4693 17.1174 42.5611Z" fill="#E86F3A" stroke="black" stroke-width="0.356161" stroke-linecap="round" stroke-linejoin="round"/>
<path d="M29.7816 28.6842C30.1102 28.929 30.4644 29.1474 30.7625 29.369C31.4841 29.9059 32.2061 30.4432 32.9278 30.9805C33.7131 31.5647 34.498 32.1489 35.2834 32.7331C35.8191 33.1318 36.3913 33.5453 37.056 33.6086C37.3036 33.6322 37.564 33.5853 37.7952 33.4832C37.7952 33.4828 37.7948 33.4828 37.7948 33.4824C37.7055 33.3333 37.0207 31.8444 36.1272 30.9809C35.6007 30.472 32.3568 29.4431 29.7816 28.6842Z" fill="#80A1FF"/>
<path d="M13.2607 29.8519C13.3957 31.3288 14.0456 32.7533 15.0697 33.8255C14.49 31.2695 14.0536 29.206 14.022 28.6287C13.931 26.9686 14.964 26.4493 15.1551 26.3676C15.1639 26.364 15.1711 26.3612 15.1759 26.3592C15.1711 26.3608 15.1643 26.3628 15.1559 26.3652C15.0104 26.4121 14.3461 26.628 13.6734 26.8829C13.3148 27.8249 13.1685 28.8482 13.2607 29.8519Z" fill="#80A1FF"/>
<path d="M22.4222 4.77832C22.4395 4.79515 22.4579 4.81037 22.4771 4.8244C22.6707 4.96744 22.9199 5.00631 23.1419 5.10007C23.6471 5.31363 23.9837 5.80046 24.2117 6.29891C24.4401 6.79775 24.5899 7.33387 24.8704 7.80507C25.0275 8.06831 25.2671 8.33076 25.5736 8.33076C25.6421 8.33076 25.707 8.31794 25.7691 8.2951C26.28 7.40879 26.5605 6.20595 25.4598 5.08404C24.3908 3.99379 23.3967 4.20094 22.4222 4.77832Z" fill="#932A6E"/>
<path d="M12.1318 9.76121C12.1803 9.8165 12.2356 9.86579 12.2977 9.90706C12.6519 10.1419 13.1379 10.0625 13.5082 9.85337C13.8784 9.64421 14.1725 9.32567 14.5055 9.06122C15.0692 8.61366 15.754 8.31996 16.4668 8.21979C16.8947 8.15969 17.3303 8.1681 17.7586 8.1096C18.1869 8.0515 18.6229 7.91687 18.9358 7.61877C19.175 7.39078 19.3225 7.07264 19.3545 6.74408C17.3683 7.39719 13.9177 6.79336 12.4708 9.10449C12.3334 9.32447 12.2212 9.54324 12.1318 9.76121Z" fill="#932A6E"/>
<path d="M8.26221 35.566C8.26221 35.566 9.46385 37.92 10.1903 39.2222C10.351 39.5103 10.8286 40.0676 11.4769 40.7608C13.7575 43.2006 18.145 47.3188 18.2035 47.2603C18.248 47.2158 16.7995 41.2961 15.5951 36.1133C14.7717 32.5705 14.0625 29.3719 14.0216 28.6298C13.9306 26.9698 14.9636 26.4505 15.1547 26.3688C15.1675 26.3635 15.1764 26.3599 15.1812 26.3583C15.1768 26.3599 15.1679 26.3627 15.1555 26.3664C14.8887 26.4525 12.8761 27.1072 12.2686 27.5279C12.2049 27.572 12.1184 27.6513 12.0142 27.7583C11.0538 28.7472 8.58756 32.1105 8.58756 32.1105L10.7412 33.9637L8.26221 35.566Z" stroke="black" stroke-width="0.356161" stroke-linecap="round" stroke-linejoin="round"/>
<path d="M28.3438 39.222C28.1831 39.5101 27.7055 40.0674 27.0572 40.7606C28.6768 41.0531 31.7768 41.5335 32.4945 41.0768C33.4773 40.4513 37.8844 33.6321 37.7951 33.4831C37.7057 33.334 37.0209 31.8451 36.1274 30.9816C35.2403 30.1241 26.6381 27.7902 26.5199 27.7581C27.4803 28.747 29.9465 32.1103 29.9465 32.1103L27.7929 33.9635L30.2719 35.5658C30.2719 35.5658 29.0702 37.9198 28.3438 39.222Z" stroke="black" stroke-width="0.356161" stroke-linecap="round" stroke-linejoin="round"/>
<path d="M26.3868 18.1623C26.5067 19.5102 26.4962 20.8701 26.35 22.216C26.3047 22.6359 26.2462 23.0607 26.2566 23.4806C26.6249 23.402 26.9758 23.2626 27.3 23.049C32.0288 19.9333 24.6695 9.62982 24.6695 9.62982C24.6695 9.62982 24.6623 10.1776 24.1094 10.529C24.2737 10.7678 24.4355 10.9989 24.5381 11.2209C25.5478 13.4054 26.1733 15.7655 26.3868 18.1623Z" fill="#F9DFDC"/>
<path d="M15.8965 19.4695C16.0183 19.3493 16.098 19.193 16.1754 19.04C16.3749 18.6445 16.5752 18.2498 16.7744 17.8543C16.9026 17.5999 17.0328 17.3242 16.8205 17.0742C16.6309 16.851 16.332 16.7921 16.0315 16.8354C16.0155 17.2297 15.9714 18.2318 15.8965 19.4695Z" fill="#F09E8B"/>
<path d="M19.1448 20.8212C19.1448 20.8212 19.3664 25.4126 23.3652 25.8722L23.4529 23.1937C23.4529 23.1937 20.0568 21.5773 19.1444 20.8212H19.1448Z" fill="#ED7D66"/>
<path d="M16.8351 14.7285C16.7622 14.4228 16.5623 14.1831 16.2653 13.962C15.9684 13.7408 15.4816 13.6338 15.1042 13.7769C14.8922 13.8574 14.7287 14.0333 14.7844 14.2028C14.8325 14.3502 15.022 14.4464 15.2039 14.5185C15.7445 14.7329 16.1596 14.7705 16.7738 14.7998" fill="#ED7D66"/>
<path d="M30.0126 32.1492C30.0126 32.1492 29.0309 34.0857 28.4223 34.7516C27.8136 35.4171 30.1813 35.7185 30.2678 36.0839C30.354 36.4493 29.0838 42.5621 27.7343 43.4616C26.3848 44.3612 23.7179 42.2444 23.4739 41.8737C23.2298 41.5031 23.2359 35.47 23.4739 35.2052C23.7119 34.9407 25.882 31.6592 26.0671 31.6327C26.2522 31.6063 30.0126 32.1488 30.0126 32.1488V32.1492Z" fill="#2253DD"/>
<path d="M20.3311 47.2603C20.3896 47.3188 24.777 43.2006 27.0577 40.7608C27.706 40.0676 28.1836 39.5103 28.3443 39.2222C29.0707 37.92 30.2724 35.566 30.2724 35.566L27.7934 33.9637L29.947 32.1105C29.947 32.1105 27.4808 28.7472 26.5204 27.7583C26.4162 27.6513 26.3297 27.572 26.266 27.5279C26.2315 27.5039 26.1926 27.4794 26.1498 27.4542C25.4838 27.0631 23.8679 26.5254 23.45 26.3896C23.3975 26.3724 23.3642 26.3619 23.3534 26.3583C23.3638 26.3623 23.3959 26.3748 23.4432 26.3984C23.7333 26.5439 24.5963 27.1064 24.513 28.6298C24.4749 29.3186 23.8615 32.1225 23.1154 35.3544C23.0573 35.6053 22.9988 35.8585 22.9395 36.1133C21.7351 41.2961 20.2866 47.2158 20.3311 47.2603Z" fill="#4C70F5" stroke="black" stroke-width="0.356161" stroke-linecap="round" stroke-linejoin="round"/>
<path d="M23.1141 35.3533C23.1161 35.3621 23.1177 35.3714 23.1197 35.3802C24.0473 34.1441 24.8295 32.8367 25.4553 31.4775C25.8023 30.7235 26.1028 29.9489 26.2182 29.14C26.2975 28.5862 26.2875 28.0153 26.1485 27.4531C25.4826 27.062 23.8666 26.5243 23.4487 26.3885C23.4463 26.3913 23.4439 26.3941 23.4419 26.3973C23.732 26.5428 24.5951 27.1053 24.5117 28.6287C24.4736 29.3175 23.8602 32.1214 23.1141 35.3533Z" fill="#80A1FF"/>
<path d="M20.3311 47.2603C20.3896 47.3188 24.777 43.2006 27.0577 40.7608C27.706 40.0676 28.1836 39.5103 28.3443 39.2222C29.0707 37.92 30.2724 35.566 30.2724 35.566L27.7934 33.9637L29.947 32.1105C29.947 32.1105 27.4808 28.7472 26.5204 27.7583C26.4162 27.6513 26.3297 27.572 26.266 27.5279C25.6301 27.0876 23.4552 26.3908 23.3534 26.3583C23.4279 26.3864 24.61 26.8592 24.513 28.6298C24.4721 29.3719 23.7629 32.5705 22.9395 36.1133C21.7351 41.2961 20.2866 47.2158 20.3311 47.2603Z" stroke="black" stroke-width="0.356161" stroke-linecap="round" stroke-linejoin="round"/>
<path d="M23.4541 23.1937C21.2307 22.4464 19.2217 20.8212 19.2217 20.8212" stroke="black" stroke-width="0.356161" stroke-linecap="round" stroke-linejoin="round"/>
<path d="M16.0365 16.727C16.545 16.9578 16.9332 17.0772 16.9332 17.0772" stroke="black" stroke-width="0.356161" stroke-linecap="round" stroke-linejoin="round"/>
<path d="M13.7771 14.8347C13.8816 15.0983 14.0527 15.3399 14.2623 15.5595C14.7587 16.0788 15.4723 16.4719 16.0369 16.7279C16.0069 17.478 15.7376 23.8764 15.1562 26.3667C15.1686 26.3631 15.1774 26.3603 15.1819 26.3587H15.1823C15.1823 26.3587 15.1839 26.3579 15.1847 26.3579C15.1851 26.3579 15.1851 26.3575 15.1851 26.3575L15.2011 26.8427C15.2011 26.8427 18.8429 32.3344 18.7547 32.7163C18.7275 32.8337 18.4458 33.1975 18.0535 33.6499C19.4483 34.1415 20.6568 33.8494 20.6568 33.8494C20.1755 33.3069 19.8113 32.8505 19.7805 32.7163C19.6923 32.3344 23.3341 26.8427 23.3341 26.8427L23.3501 26.3575L23.4539 23.1937C24.7882 23.642 26.1994 23.7743 27.3001 23.049C32.0289 19.9333 24.6696 9.62982 24.6696 9.62982C24.6696 9.62982 24.656 10.6856 23.1871 10.805C21.7178 10.924 19.6134 9.95117 18.4025 9.83217C17.1917 9.71316 17.132 9.9712 17.132 9.9712C17.132 9.9712 17.9858 12.7704 17.8664 13.3061C17.7474 13.8422 17.5094 14.3979 17.5094 14.3979C17.5094 14.3979 17.0923 12.2343 16.0798 12.2142C15.0673 12.1946 13.2013 13.3858 13.7771 14.8347Z" stroke="black" stroke-width="0.356161" stroke-linecap="round" stroke-linejoin="round"/>
<path d="M19.7795 32.639C19.8103 32.7733 20.1746 33.2296 20.6558 33.7722C20.9371 34.0895 21.2588 34.4357 21.5766 34.7642C22.1059 35.3108 22.6263 35.8076 22.9385 36.0364C23.0643 35.4943 23.1877 34.9602 23.3063 34.4417C23.9634 31.572 24.4775 29.1815 24.5119 28.5529C24.6089 26.7823 23.4269 26.3095 23.3524 26.2814C23.3524 26.2814 23.3508 26.2806 23.35 26.2806C23.3496 26.2806 23.3496 26.2802 23.3496 26.2802L23.3468 26.37L23.3335 26.7654C23.3335 26.7654 19.6917 32.2572 19.7799 32.639H19.7795Z" fill="#F5D256" stroke="black" stroke-width="0.356161" stroke-linecap="round" stroke-linejoin="round"/>
<path d="M14.0223 28.5529C14.0571 29.1832 14.5736 31.5852 15.2331 34.4653C15.3501 34.9766 15.4715 35.5027 15.5957 36.0364C15.9956 35.7431 16.7369 35.0107 17.4008 34.297C17.634 34.047 17.8572 33.799 18.0535 33.5726C18.4458 33.1202 18.7275 32.7564 18.7547 32.639C18.8429 32.2572 15.2011 26.7654 15.2011 26.7654L15.1866 26.3299L15.185 26.2802C15.185 26.2802 15.185 26.2806 15.1846 26.2806C15.1838 26.2806 15.183 26.281 15.1822 26.2814H15.1818C15.177 26.283 15.1682 26.2866 15.1554 26.2918C14.9643 26.3736 13.9313 26.8929 14.0223 28.5529Z" fill="#F5D256" stroke="black" stroke-width="0.356161" stroke-linecap="round" stroke-linejoin="round"/>
<path d="M26.9711 5.17914C27.4439 5.64353 27.5894 6.37758 27.4403 7.02347C27.2913 7.66937 26.8814 8.23153 26.3881 8.67388C25.8949 9.11623 25.3171 9.4528 24.7441 9.78617C25.2851 9.94083 26.0051 9.99493 26.5268 9.78497C27.0485 9.57501 27.4968 9.18715 27.7797 8.70113" stroke="black" stroke-width="0.356161" stroke-linecap="round" stroke-linejoin="round"/>
<path d="M14.2611 15.5586C14.0516 15.339 13.8805 15.0974 13.7759 14.8338C13.2001 13.3849 15.0661 12.1937 16.0786 12.2133C17.0911 12.2334 17.5083 14.397 17.5083 14.397C17.5083 14.397 17.7463 13.8413 17.8653 13.3052C17.9847 12.7695 17.1308 9.97032 17.1308 9.97032C17.1308 9.97032 17.1905 9.71228 18.4014 9.83128C19.6122 9.95028 21.7166 10.9231 23.1859 10.8041C24.6548 10.6847 24.6684 9.62894 24.6684 9.62894C24.6684 9.62894 27.5461 7.21163 25.4594 5.08401C23.4199 3.00447 21.6537 5.64496 19.7753 6.57414C17.8969 7.50332 14.0267 6.61942 12.4713 9.10365C10.9158 11.5883 12.5967 13.9739 14.2611 15.5586Z" stroke="black" stroke-width="0.356161" stroke-linecap="round" stroke-linejoin="round"/>
<path d="M14.0223 28.5529C14.0571 29.1831 14.5736 31.5852 15.2331 34.4653C15.3629 34.3916 15.4671 34.2698 15.5348 34.1352C15.629 33.9473 15.6618 33.7345 15.6851 33.5249C15.7981 32.494 15.6999 31.4406 15.3986 30.4481C15.1782 29.7233 14.8501 29.0269 14.7339 28.2784C14.6281 27.5977 14.7351 26.8344 15.1866 26.3299L15.185 26.2802C15.185 26.2802 15.185 26.2806 15.1846 26.2806C15.1838 26.2806 15.183 26.281 15.1822 26.2814H15.1818C15.177 26.283 15.1682 26.2866 15.1554 26.2918C14.9643 26.3736 13.9313 26.8929 14.0223 28.5529Z" fill="#CEA625"/>
<path d="M23.3068 34.4417C23.9639 31.572 24.478 29.1815 24.5125 28.5529C24.6094 26.7823 23.4274 26.3095 23.3529 26.2814C23.3529 26.2814 23.3513 26.2806 23.3505 26.2806C23.3501 26.2806 23.3501 26.2802 23.3501 26.2802L23.3473 26.37C23.667 26.4645 23.9102 26.7678 23.9996 27.0956C24.0998 27.465 24.0401 27.8581 23.9503 28.2299C23.774 28.958 23.4855 29.6523 23.2367 30.3587C22.9883 31.0651 22.7771 31.796 22.7647 32.5449C22.7535 33.2136 22.9166 33.904 23.3072 34.4417H23.3068Z" fill="#CEA625"/>
<path d="M19.7795 32.7156C19.8103 32.8498 20.1746 33.3062 20.6558 33.8487C20.9371 34.166 21.2588 34.5122 21.5766 34.8408C22.1059 35.3873 22.6263 35.8842 22.9385 36.1129C23.7619 32.5701 24.4711 29.3715 24.5119 28.6294C24.6089 26.8588 23.4269 26.386 23.3524 26.358C23.3524 26.358 23.3508 26.3572 23.35 26.3572C23.3496 26.3572 23.3496 26.3568 23.3496 26.3568L23.3335 26.842C23.3335 26.842 19.6917 32.3337 19.7799 32.7156H19.7795Z" stroke="black" stroke-width="0.356161" stroke-linecap="round" stroke-linejoin="round"/>
<path d="M14.0223 28.6294C14.0631 29.3715 14.7723 32.5701 15.5957 36.1129C15.9956 35.8196 16.7369 35.0872 17.4008 34.3736C17.634 34.1236 17.8572 33.8755 18.0535 33.6492C18.4458 33.1968 18.7275 32.833 18.7547 32.7156C18.8429 32.3337 15.2011 26.842 15.2011 26.842L15.185 26.3568C15.185 26.3568 15.185 26.3572 15.1846 26.3572C15.1838 26.3572 15.183 26.3572 15.1822 26.358H15.1818C15.177 26.3596 15.1682 26.3632 15.1554 26.3684C14.9643 26.4501 13.9313 26.9694 14.0223 28.6294Z" stroke="black" stroke-width="0.356161" stroke-linecap="round" stroke-linejoin="round"/>
<path d="M16.7648 14.6828C16.4479 14.069 15.7515 13.6723 15.0615 13.7132" stroke="black" stroke-width="0.356161" stroke-linecap="round" stroke-linejoin="round"/>
<path d="M16.0388 14.0919C15.8 14.1837 15.5925 14.3552 15.457 14.5723" stroke="black" stroke-width="0.356161" stroke-linecap="round" stroke-linejoin="round"/>
<path d="M24.1386 19.316C24.0504 19.3088 23.3132 19.629 22.4854 18.8881C21.6576 18.1472 22.0054 17.3126 22.0054 17.3126" stroke="black" stroke-width="0.356161" stroke-linecap="round" stroke-linejoin="round"/>
<path d="M22.5465 17.2658C22.5465 17.2658 21.9771 17.0338 21.4967 17.6416" stroke="black" stroke-width="0.356161" stroke-linecap="round" stroke-linejoin="round"/>
<path d="M24.7299 15.2044C24.7299 15.2044 25.9067 17.0015 25.5705 17.3132C25.2343 17.6249 24.4105 17.0776 24.4105 17.0776" stroke="black" stroke-width="0.356161" stroke-linecap="round" stroke-linejoin="round"/>
</g>
<defs>
<clipPath id="clip0_3438_10240">
<rect y="-0.000335693" width="40" height="40" rx="20" fill="white"/>
</clipPath>
</defs>
</svg>
