<svg width="101" height="122" viewBox="0 0 101 122" fill="none" xmlns="http://www.w3.org/2000/svg">
<path d="M119.4 -137.309C123.187 -143.631 130.016 -147.5 137.386 -147.5H297.055C305.007 -147.5 309.921 -138.827 305.834 -132.006L196.6 50.3087C192.813 56.6308 185.984 60.5 178.614 60.5H18.9446C10.9925 60.5 6.07864 51.8274 10.1657 45.006L119.4 -137.309Z" stroke="#E2E4E9"/>
<path d="M157.4 -76.3087C161.187 -82.6307 168.016 -86.5 175.386 -86.5H335.055C343.007 -86.5 347.921 -77.8274 343.834 -71.0061L234.6 111.309C230.813 117.631 223.984 121.5 216.614 121.5H56.9446C48.9925 121.5 44.0786 112.827 48.1657 106.006L157.4 -76.3087Z" stroke="#E2E4E9"/>
</svg>
