<svg width="20" height="20" viewBox="0 0 20 20" fill="none" xmlns="http://www.w3.org/2000/svg">
<path d="M3.92671 2.5669C7.69713 -0.523351 13.2692 -0.30831 16.7891 3.21202C20.5375 6.96084 20.5375 13.0396 16.7891 16.7884C13.0408 20.5372 6.96282 20.5372 3.21448 16.7884C2.06418 15.6395 1.22471 14.2171 0.774898 12.6547C0.325082 11.0923 0.279679 9.44126 0.642952 7.85652L0.716863 7.55604L2.57328 8.04564C2.11305 9.79502 2.28502 11.6507 3.05886 13.2857C3.8327 14.9207 5.15875 16.23 6.80332 16.983C8.44788 17.7359 10.3054 17.8841 12.0485 17.4014C13.7916 16.9188 15.3085 15.8362 16.3317 14.3446C17.3549 12.853 17.8188 11.048 17.6417 9.24781C17.4646 7.44759 16.6579 5.76766 15.3636 4.50409C14.0693 3.24053 12.3706 2.47442 10.5669 2.34079C8.76312 2.20715 6.9701 2.71458 5.5038 3.77362L5.29166 3.93298L6.26786 4.90931L1.85624 5.92691L2.87372 1.51474L3.92575 2.5669H3.92671ZM10.9617 4.24019V6.16019H13.3614V8.0802H8.08204C7.96211 8.07998 7.84644 8.12468 7.75781 8.20549C7.66918 8.2863 7.61402 8.39737 7.60318 8.51683C7.59234 8.63629 7.62662 8.75548 7.69926 8.85092C7.7719 8.94637 7.87764 9.01115 7.99565 9.03252L8.08204 9.0402H11.9216C12.558 9.0402 13.1684 9.29306 13.6184 9.74315C14.0685 10.1932 14.3213 10.8037 14.3213 11.4402C14.3213 12.0767 14.0685 12.6872 13.6184 13.1373C13.1684 13.5874 12.558 13.8402 11.9216 13.8402H10.9617V15.7602H9.04192V13.8402H6.64222V11.9202H11.9216C12.0415 11.9204 12.1572 11.8757 12.2458 11.7949C12.3344 11.7141 12.3896 11.603 12.4004 11.4836C12.4113 11.3641 12.377 11.2449 12.3044 11.1495C12.2317 11.054 12.126 10.9893 12.008 10.9679L11.9216 10.9602H8.08204C7.4456 10.9602 6.83523 10.7074 6.38519 10.2573C5.93516 9.80718 5.68234 9.19672 5.68234 8.5602C5.68234 7.92368 5.93516 7.31323 6.38519 6.86314C6.83523 6.41305 7.4456 6.16019 8.08204 6.16019H9.04192V4.24019H10.9617Z" fill="#525866"/>
</svg>
