<svg width="109" height="108" viewBox="0 0 109 108" fill="none" xmlns="http://www.w3.org/2000/svg">
<rect x="0.5" width="108" height="108" rx="54" fill="#F6F8FA"/>
<path d="M54.644 16.6675V26.9108C54.0067 26.9338 53.3807 26.9854 52.7607 27.0601C41.237 28.4381 32.3027 38.2394 32.3027 50.1363C32.3027 50.3373 32.3027 50.5324 32.3085 50.7334H20.5781C20.5781 32.5493 34.8177 17.6953 52.7607 16.7192C53.3808 16.6847 54.0124 16.6675 54.644 16.6675Z" fill="white" stroke="#868C98" stroke-linecap="round" stroke-linejoin="round"/>
<path d="M88.7098 50.7334H78.788C78.7937 50.5381 78.7937 50.3373 78.7937 50.1362C78.7937 49.6884 78.7822 49.2405 78.7536 48.8041C78.5469 45.0777 77.4559 41.5867 75.699 38.5379C75.3143 37.8661 74.8951 37.223 74.4473 36.5971L82.3709 30.9358C82.8187 31.5616 83.2494 32.2048 83.6455 32.8594C85.638 36.0804 87.1078 39.6575 87.929 43.4757C88.308 45.2041 88.5548 46.984 88.6524 48.8041C88.6926 49.4415 88.7098 50.0847 88.7098 50.7334Z" fill="white" stroke="#868C98" stroke-linecap="round" stroke-linejoin="round"/>
<path d="M44.7275 38.5481L49.6205 43.4354" stroke="#868C98" stroke-linecap="round" stroke-linejoin="round"/>
<path d="M49.6188 38.5453L44.7314 43.4383" stroke="#868C98" stroke-linecap="round" stroke-linejoin="round"/>
<path d="M59.666 38.5395L64.559 43.4268" stroke="#868C98" stroke-linecap="round" stroke-linejoin="round"/>
<path d="M64.5572 38.5366L59.6699 43.4296" stroke="#868C98" stroke-linecap="round" stroke-linejoin="round"/>
<path d="M47.7852 48.4636L60.4645 48.4562" stroke="#868C98" stroke-linecap="round" stroke-linejoin="round"/>
<path d="M85.7587 31.3477L83.6456 32.8578L75.6991 38.5365C75.3144 37.8647 74.8952 37.2215 74.4474 36.5958C70.2272 30.7161 63.3371 26.8921 55.5512 26.8921C55.2469 26.8921 54.9425 26.8979 54.644 26.9094C54.0067 26.9324 53.3808 26.9839 52.7607 27.0587V14.3693C66.3573 14.3693 78.4035 21.0701 85.7587 31.3477Z" fill="#E2E4E9" stroke="#868C98" stroke-linecap="round" stroke-linejoin="round"/>
<path d="M93.5271 50.7336H78.7937C78.8339 49.4762 78.7707 48.2072 78.5985 46.921C78.5698 46.7258 78.5411 46.5248 78.5066 46.3297C78.4378 45.8875 78.3573 45.4454 78.2598 45.0205L87.9289 43.4759L92.9414 42.6779C93.3721 45.388 93.5615 48.0808 93.5271 50.7336Z" fill="#868C98" stroke="#868C98" stroke-linecap="round" stroke-linejoin="round"/>
<path d="M29.7523 69.8981C32.9761 69.8981 35.5896 67.2847 35.5896 64.0608C35.5896 60.837 32.9761 58.2236 29.7523 58.2236C26.5285 58.2236 23.915 60.837 23.915 64.0608C23.915 67.2847 26.5285 69.8981 29.7523 69.8981Z" stroke="#868C98" stroke-linecap="round" stroke-linejoin="round"/>
<path d="M29.7522 66.5953C31.152 66.5953 32.2867 65.4606 32.2867 64.0608C32.2867 62.6611 31.152 61.5264 29.7522 61.5264C28.3525 61.5264 27.2178 62.6611 27.2178 64.0608C27.2178 65.4606 28.3525 66.5953 29.7522 66.5953Z" fill="#CDD0D5"/>
<path d="M54.4535 70.3047C57.6773 70.3047 60.2907 67.6913 60.2907 64.4674C60.2907 61.2436 57.6773 58.6302 54.4535 58.6302C51.2296 58.6302 48.6162 61.2436 48.6162 64.4674C48.6162 67.6913 51.2296 70.3047 54.4535 70.3047Z" stroke="#868C98" stroke-linecap="round" stroke-linejoin="round"/>
<path d="M54.4534 67.0019C55.8531 67.0019 56.9878 65.8672 56.9878 64.4674C56.9878 63.0677 55.8531 61.933 54.4534 61.933C53.0537 61.933 51.9189 63.0677 51.9189 64.4674C51.9189 65.8672 53.0537 67.0019 54.4534 67.0019Z" fill="#868C98"/>
<path d="M79.1546 70.3047C82.3785 70.3047 84.9919 67.6913 84.9919 64.4675C84.9919 61.2436 82.3785 58.6302 79.1546 58.6302C75.9308 58.6302 73.3174 61.2436 73.3174 64.4675C73.3174 67.6913 75.9308 70.3047 79.1546 70.3047Z" stroke="#868C98" stroke-linecap="round" stroke-linejoin="round"/>
<path d="M79.1555 67.0019C80.5553 67.0019 81.69 65.8672 81.69 64.4675C81.69 63.0677 80.5553 61.933 79.1555 61.933C77.7558 61.933 76.6211 63.0677 76.6211 64.4675C76.6211 65.8672 77.7558 67.0019 79.1555 67.0019Z" fill="#E2E4E9"/>
<path d="M62.8635 76.1557H47.4541V80.2584H62.8635V76.1557Z" fill="#E2E4E9"/>
<path d="M61.0485 84.4162H49.2695V88.5189H61.0485V84.4162Z" fill="#CDD0D5"/>
<path d="M85.2116 84.4162H73.4326V88.519H85.2116V84.4162Z" fill="#CDD0D5"/>
<path d="M35.9626 84.4163H24.1836V88.5191H35.9626V84.4163Z" fill="#CDD0D5"/>
<path d="M87.0266 76.1557H71.6172V80.2584H87.0266V76.1557Z" fill="#E2E4E9"/>
<path d="M37.7785 76.1557H22.3691V80.2584H37.7785V76.1557Z" fill="#E2E4E9"/>
<path d="M8.78371 13.1969C8.78371 13.1969 12.2114 18.1738 17.1829 14.7748C12.2113 18.1739 15.605 23.174 15.605 23.174C15.605 23.174 12.1773 18.1971 7.20571 21.5961C12.1773 18.1971 8.78371 13.1969 8.78371 13.1969Z" fill="white" stroke="#868C98" stroke-linecap="round" stroke-linejoin="round"/>
<path d="M96.7573 81.4455C96.7573 81.4455 95.6618 87.3885 101.581 88.5004C95.6617 87.3884 94.5258 93.3237 94.5258 93.3237C94.5258 93.3237 95.6213 87.3808 89.7023 86.2688C95.6213 87.3808 96.7573 81.4455 96.7573 81.4455Z" fill="white" stroke="#868C98" stroke-linecap="round" stroke-linejoin="round"/>
</svg>
