<svg width="88" height="88" viewBox="0 0 88 88" fill="none" xmlns="http://www.w3.org/2000/svg">
<rect x="0.5" y="0.5" width="87" height="87" rx="43.5" fill="url(#paint0_linear_2973_52187)"/>
<rect x="0.5" y="0.5" width="87" height="87" rx="43.5" stroke="url(#paint1_linear_2973_52187)"/>
<g filter="url(#filter0_d_2973_52187)">
<rect x="16" y="16" width="56" height="56" rx="28" fill="white"/>
<rect x="16.5" y="16.5" width="55" height="55" rx="27.5" stroke="#E2E4E9"/>
<path d="M50.2998 39.8002H52.3998C52.6783 39.8002 52.9454 39.9108 53.1423 40.1077C53.3392 40.3046 53.4498 40.5717 53.4498 40.8502V53.4502C53.4498 53.7287 53.3392 53.9957 53.1423 54.1927C52.9454 54.3896 52.6783 54.5002 52.3998 54.5002H35.5998C35.3213 54.5002 35.0543 54.3896 34.8573 54.1927C34.6604 53.9957 34.5498 53.7287 34.5498 53.4502V40.8502C34.5498 40.5717 34.6604 40.3046 34.8573 40.1077C35.0543 39.9108 35.3213 39.8002 35.5998 39.8002H37.6998V38.7502C37.6998 37.0793 38.3636 35.4769 39.545 34.2954C40.7265 33.1139 42.3289 32.4502 43.9998 32.4502C45.6707 32.4502 47.2731 33.1139 48.4546 34.2954C49.6361 35.4769 50.2998 37.0793 50.2998 38.7502V39.8002ZM48.1998 39.8002V38.7502C48.1998 37.6363 47.7573 36.568 46.9697 35.7803C46.182 34.9927 45.1137 34.5502 43.9998 34.5502C42.8859 34.5502 41.8176 34.9927 41.03 35.7803C40.2423 36.568 39.7998 37.6363 39.7998 38.7502V39.8002H48.1998ZM42.9498 46.1002V48.2002H45.0498V46.1002H42.9498ZM38.7498 46.1002V48.2002H40.8498V46.1002H38.7498ZM47.1498 46.1002V48.2002H49.2498V46.1002H47.1498Z" fill="#8113DD"/>
</g>
<defs>
<filter id="filter0_d_2973_52187" x="12" y="14" width="64" height="64" filterUnits="userSpaceOnUse" color-interpolation-filters="sRGB">
<feFlood flood-opacity="0" result="BackgroundImageFix"/>
<feColorMatrix in="SourceAlpha" type="matrix" values="0 0 0 0 0 0 0 0 0 0 0 0 0 0 0 0 0 0 127 0" result="hardAlpha"/>
<feOffset dy="2"/>
<feGaussianBlur stdDeviation="2"/>
<feColorMatrix type="matrix" values="0 0 0 0 0.105882 0 0 0 0 0.109804 0 0 0 0 0.113725 0 0 0 0.04 0"/>
<feBlend mode="normal" in2="BackgroundImageFix" result="effect1_dropShadow_2973_52187"/>
<feBlend mode="normal" in="SourceGraphic" in2="effect1_dropShadow_2973_52187" result="shape"/>
</filter>
<linearGradient id="paint0_linear_2973_52187" x1="44" y1="0" x2="44" y2="88" gradientUnits="userSpaceOnUse">
<stop stop-color="#6E15B5" stop-opacity="0.5"/>
<stop offset="1" stop-color="#F7F8F8" stop-opacity="0"/>
<stop offset="1" stop-color="#6E15B5"/>
</linearGradient>
<linearGradient id="paint1_linear_2973_52187" x1="44" y1="0" x2="44" y2="88" gradientUnits="userSpaceOnUse">
<stop stop-color="#E4E5E7"/>
<stop offset="0.765625" stop-color="#E4E5E7" stop-opacity="0"/>
</linearGradient>
</defs>
</svg>
