<svg width="17" height="17" viewBox="0 0 17 17" fill="none" xmlns="http://www.w3.org/2000/svg">
<path d="M2.99963 3.8105L0.567383 1.379L1.62863 0.317749L4.06013 2.75H15.4916C15.6085 2.74999 15.7238 2.77731 15.8283 2.82977C15.9328 2.88224 16.0235 2.9584 16.0933 3.05217C16.1631 3.14594 16.21 3.25474 16.2303 3.36986C16.2506 3.48499 16.2437 3.60327 16.2101 3.71525L14.4101 9.71525C14.3638 9.86981 14.2689 10.0053 14.1395 10.1017C14.01 10.198 13.853 10.25 13.6916 10.25H4.49963V11.75H12.7496V13.25H3.74963C3.55072 13.25 3.35996 13.171 3.2193 13.0303C3.07865 12.8897 2.99963 12.6989 2.99963 12.5V3.8105ZM4.49963 4.25V8.75H13.1336L14.4836 4.25H4.49963ZM4.12463 16.25C3.82626 16.25 3.54012 16.1315 3.32914 15.9205C3.11816 15.7095 2.99963 15.4234 2.99963 15.125C2.99963 14.8266 3.11816 14.5405 3.32914 14.3295C3.54012 14.1185 3.82626 14 4.12463 14C4.423 14 4.70915 14.1185 4.92013 14.3295C5.13111 14.5405 5.24963 14.8266 5.24963 15.125C5.24963 15.4234 5.13111 15.7095 4.92013 15.9205C4.70915 16.1315 4.423 16.25 4.12463 16.25ZM13.1246 16.25C12.8263 16.25 12.5401 16.1315 12.3291 15.9205C12.1182 15.7095 11.9996 15.4234 11.9996 15.125C11.9996 14.8266 12.1182 14.5405 12.3291 14.3295C12.5401 14.1185 12.8263 14 13.1246 14C13.423 14 13.7092 14.1185 13.9201 14.3295C14.1311 14.5405 14.2496 14.8266 14.2496 15.125C14.2496 15.4234 14.1311 15.7095 13.9201 15.9205C13.7092 16.1315 13.423 16.25 13.1246 16.25Z" fill="#525866"/>
</svg>
