<svg width="88" height="88" viewBox="0 0 88 88" fill="none" xmlns="http://www.w3.org/2000/svg">
<rect x="0.5" y="0.5" width="87" height="87" rx="43.5" fill="url(#paint0_linear_2974_52295)"/>
<rect x="0.5" y="0.5" width="87" height="87" rx="43.5" stroke="url(#paint1_linear_2974_52295)"/>
<g filter="url(#filter0_d_2974_52295)">
<rect x="16" y="16" width="56" height="56" rx="28" fill="white"/>
<rect x="16.5" y="16.5" width="55" height="55" rx="27.5" stroke="#E2E4E9"/>
<path d="M33.4435 41.1806C32.8954 40.9979 32.8901 40.7028 33.454 40.5149L53.4953 33.8348C54.0508 33.65 54.3689 33.9608 54.2135 34.5047L48.4868 54.545C48.3293 55.1004 48.0091 55.1193 47.7739 54.5922L44.0002 46.0998L50.3002 37.6998L41.9002 43.9998L33.4435 41.1806Z" fill="#8113DD"/>
</g>
<defs>
<filter id="filter0_d_2974_52295" x="12" y="14" width="64" height="64" filterUnits="userSpaceOnUse" color-interpolation-filters="sRGB">
<feFlood flood-opacity="0" result="BackgroundImageFix"/>
<feColorMatrix in="SourceAlpha" type="matrix" values="0 0 0 0 0 0 0 0 0 0 0 0 0 0 0 0 0 0 127 0" result="hardAlpha"/>
<feOffset dy="2"/>
<feGaussianBlur stdDeviation="2"/>
<feColorMatrix type="matrix" values="0 0 0 0 0.105882 0 0 0 0 0.109804 0 0 0 0 0.113725 0 0 0 0.04 0"/>
<feBlend mode="normal" in2="BackgroundImageFix" result="effect1_dropShadow_2974_52295"/>
<feBlend mode="normal" in="SourceGraphic" in2="effect1_dropShadow_2974_52295" result="shape"/>
</filter>
<linearGradient id="paint0_linear_2974_52295" x1="44" y1="0" x2="44" y2="88" gradientUnits="userSpaceOnUse">
<stop stop-color="#6E15B5" stop-opacity="0.5"/>
<stop offset="1" stop-color="#F7F8F8" stop-opacity="0"/>
<stop offset="1" stop-color="#6E15B5"/>
</linearGradient>
<linearGradient id="paint1_linear_2974_52295" x1="44" y1="0" x2="44" y2="88" gradientUnits="userSpaceOnUse">
<stop stop-color="#E4E5E7"/>
<stop offset="0.765625" stop-color="#E4E5E7" stop-opacity="0"/>
</linearGradient>
</defs>
</svg>
