<svg width="33" height="32" viewBox="0 0 33 32" fill="none" xmlns="http://www.w3.org/2000/svg">
<rect x="0.666748" width="32" height="32" rx="16" fill="#EBF1FF"/>
<path d="M12.5417 8.5H20.7917C20.9082 8.5 21.023 8.52711 21.1272 8.57918C21.2313 8.63125 21.3219 8.70685 21.3917 8.8L23.4167 11.5V22.75C23.4167 22.9489 23.3377 23.1397 23.1971 23.2803C23.0564 23.421 22.8657 23.5 22.6667 23.5H10.6667C10.4678 23.5 10.2771 23.421 10.1364 23.2803C9.99577 23.1397 9.91675 22.9489 9.91675 22.75V11.5L11.9417 8.8C12.0116 8.70685 12.1022 8.63125 12.2063 8.57918C12.3105 8.52711 12.4253 8.5 12.5417 8.5ZM21.9167 13H11.4167V22H21.9167V13ZM21.5417 11.5L20.4167 10H12.9167L11.7917 11.5H21.5417ZM14.4167 14.5V16C14.4167 16.5967 14.6538 17.169 15.0758 17.591C15.4977 18.0129 16.07 18.25 16.6667 18.25C17.2635 18.25 17.8358 18.0129 18.2577 17.591C18.6797 17.169 18.9167 16.5967 18.9167 16V14.5H20.4167V16C20.4167 16.9946 20.0217 17.9484 19.3184 18.6517C18.6151 19.3549 17.6613 19.75 16.6667 19.75C15.6722 19.75 14.7184 19.3549 14.0151 18.6517C13.3118 17.9484 12.9167 16.9946 12.9167 16V14.5H14.4167Z" fill="#253EA7"/>
</svg>
