<svg width="40" height="40" viewBox="0 0 40 40" fill="none" xmlns="http://www.w3.org/2000/svg">
<g clip-path="url(#clip0_3438_17055)">
<rect width="40" height="40" rx="20" fill="#FBDFB1"/>
<path d="M24.9349 26.0971C24.9349 26.0971 23.8823 27.6048 22.2015 29.1583C20.8039 30.4489 19.7858 30.8736 19.8731 31.1525L19.6483 30.9998C19.3783 30.5831 16.9241 26.7906 16.8408 26.7345C16.9818 25.4291 16.9502 22.769 16.9502 22.769C15.5233 23.2731 14.0424 23.3961 12.9393 22.515C9.12045 19.465 13.9306 11.6962 15.3442 9.5918C15.3542 9.62585 15.8419 11.257 16.4693 11.5708C17.1028 11.8873 18.1975 11.7723 18.8021 12.2042C19.4071 12.6362 19.4933 13.817 19.8968 14.1628C20.2999 14.5086 21.9418 14.7966 22.1434 15.3147C22.3449 15.8332 21.9703 16.8125 22.5176 17.2737C23.065 17.7344 23.6984 17.4175 23.9865 18.1664C24.2746 18.9152 23.3555 19.9378 23.9312 20.5713C24.5074 21.2047 24.9261 21.4163 24.8688 22.3852C24.8111 23.3544 23.9573 24.425 24.4758 25.3181C24.622 25.5702 24.7799 25.8306 24.9349 26.0971Z" fill="#CC927A" stroke="black" stroke-width="0.356161" stroke-linecap="round" stroke-linejoin="round"/>
<path d="M39.9845 31.8088C39.9536 32.1185 35.5858 39.5219 35.3069 39.7386C35.1787 39.8384 32.0722 41.3358 28.7346 42.9293C27.5854 43.4778 26.409 44.038 25.3171 44.5564C27.5153 41.2524 30.2215 36.9339 30.2215 36.6226C30.2215 36.1121 27.8478 35.2694 27.7713 34.989C27.6944 34.7081 30.4511 33.1002 30.3745 32.6919C30.3537 32.5817 30.1225 32.1029 29.7599 31.471C29.5135 31.0403 29.2057 30.539 28.8632 30.0341C29.495 30.067 30.2688 30.5518 31.0425 30.5518C31.1623 30.5518 31.2981 30.5462 31.4432 30.5374C32.2377 30.4897 33.3091 30.3435 33.5768 30.4653C33.8937 30.6095 34.9595 31.7903 35.7661 31.3584C36.5723 30.9261 37.0331 30.6095 37.1196 30.3214C37.136 30.2661 37.1252 30.1467 37.0984 29.9849C37.5175 30.0922 37.7679 30.1584 37.7851 30.1672C37.8324 30.1908 38.1706 30.3916 38.5677 30.6476C39.2084 31.0603 40.0037 31.6176 39.9845 31.8088Z" fill="#F5D256" stroke="black" stroke-width="0.356161" stroke-linecap="round" stroke-linejoin="round"/>
<path d="M30.2214 36.6216C30.2214 36.8668 28.5417 39.599 26.7543 42.3629C26.2727 43.1074 25.7834 43.8542 25.317 44.5554C24.5806 44.9052 23.8822 45.2358 23.2575 45.5307C22.445 45.9149 21.7558 46.2395 21.2657 46.4683C21.0269 46.04 20.8542 45.7078 20.8542 45.7078C20.8542 45.7078 23.9355 36.5078 25.2133 31.686C25.5258 30.506 25.7305 29.588 25.7554 29.1316C25.7718 28.8291 25.781 28.5731 25.7838 28.3567C25.8051 28.293 25.8203 28.2369 25.8291 28.1888C26.0018 29.1681 25.541 30.2916 26.3187 30.7235C26.8364 31.0108 27.5068 30.5969 28.0841 30.2964C28.3746 30.1453 28.6415 30.0227 28.8534 30.0323C28.8567 30.0323 28.8599 30.0327 28.8631 30.0331C29.2056 30.538 29.5134 31.0393 29.7598 31.47C30.1224 32.1019 30.3536 32.5807 30.3744 32.6909C30.451 33.0992 27.6943 34.7071 27.7712 34.988C27.7844 35.0357 27.863 35.099 27.9852 35.1743C28.5838 35.5445 30.2214 36.1976 30.2214 36.6216Z" fill="#F5D256" stroke="black" stroke-width="0.356161" stroke-linecap="round" stroke-linejoin="round"/>
<path d="M16.651 10.9664C16.6983 11.6952 17.0637 12.3976 17.6335 12.8544C18.0097 13.1561 18.4617 13.3496 18.8527 13.6325C19.4622 14.0732 19.9085 14.734 20.0904 15.4636C20.151 15.7072 20.1874 15.9669 20.3357 16.1696C20.5877 16.5138 21.0789 16.5847 21.3911 16.8756C22.0726 17.5099 21.5746 18.764 22.1419 19.5025C22.2866 19.6908 22.4905 19.8282 22.6256 20.0238C22.8592 20.3627 22.8451 20.8079 22.8267 21.219C22.7165 23.672 22.8395 26.3165 24.3144 28.2798C24.5633 28.6108 24.9106 28.9429 25.3233 28.9069C25.7941 28.8656 26.0794 28.3788 26.2589 27.9416C26.8912 26.4018 27.2106 24.7506 27.4013 23.097C27.5652 21.6774 27.6345 20.2225 27.2971 18.8337C26.9782 17.5211 26.3106 16.3251 25.6996 15.1206C25.1839 14.1041 24.6803 13.0379 23.8164 12.2942C23.0723 11.6539 22.1255 11.3098 21.2015 10.9788C20.5196 10.7344 19.838 10.4904 19.1561 10.2459C18.3815 9.96867 17.4439 9.71384 16.7997 10.2247" fill="#BA735A"/>
<path d="M10.6383 14.0692C10.331 15.498 10.0885 16.95 10.0994 18.4117C10.1102 19.8734 10.3846 21.3523 11.0626 22.6473C11.3863 23.2656 11.9405 23.9059 12.6345 23.8289C13.2227 23.764 13.6378 23.1774 13.7275 22.5928C13.8169 22.0079 13.6622 21.4172 13.5456 20.8375C13.4082 20.1539 13.3228 19.4579 13.3329 18.7611C13.3721 15.9872 14.8807 13.4858 16.0495 10.9695C16.2626 10.5103 16.4686 10.0355 16.5075 9.53104C16.5183 9.3932 16.5123 9.24295 16.4265 9.13436C16.3376 9.02177 16.1849 8.9825 16.0419 8.96848C15.5847 8.9224 15.1275 9.05903 14.7068 9.24375C13.5857 9.73618 12.6409 10.5756 11.8932 11.5453C11.1459 12.5153 10.5846 13.6152 10.0909 14.7359" fill="#FFC7B3"/>
<path d="M19.6564 23.7491C18.9868 24.5745 18.0312 25.1639 16.9926 25.3911C16.9886 24.6406 16.993 23.8897 17.0063 23.1392C17.0083 23.0186 17.0127 22.8916 17.0748 22.7883C17.1441 22.6737 17.2715 22.6095 17.3925 22.5526C17.911 22.3086 18.4367 22.0802 18.9492 21.8234C19.2128 21.6912 19.4733 21.5521 19.7257 21.3995C19.9044 21.2913 20.2766 20.9107 20.4693 20.8898C20.9385 20.8389 20.5583 21.9881 20.477 22.2357C20.2975 22.7838 20.0198 23.3003 19.6564 23.7483V23.7491Z" fill="#B27059"/>
<path d="M25.7844 28.3579C25.7828 28.4653 25.78 28.5823 25.7752 28.7097C25.7708 28.8396 25.7643 28.9802 25.7559 29.1329C25.6285 31.4556 20.8548 45.7091 20.8548 45.7091H20.3227C20.3227 45.7091 15.6131 32.281 15.2392 29.4113C15.2284 29.3308 15.2216 29.2587 15.218 29.1954C15.1812 28.5238 15.1996 28.0771 15.2449 27.7814C15.305 27.7701 15.3635 27.7589 15.4204 27.7477C15.4003 27.8847 15.6087 28.5883 15.914 29.4863C16.5783 31.4416 17.7022 34.3193 17.9262 34.2848C18.0052 34.2728 18.1734 34.1153 18.377 33.8741C19.0137 33.1176 19.9941 31.5341 19.6479 31.0004L19.8727 31.1531C19.8727 31.1531 20.8372 34.3537 21.4526 34.395C21.923 34.4263 24.1183 31.4232 25.2134 29.5171C25.3284 29.3172 25.431 29.1293 25.5183 28.9582C25.6393 28.7218 25.7307 28.5174 25.7844 28.3579Z" fill="#C9C4FE" stroke="black" stroke-width="0.356161" stroke-linecap="round" stroke-linejoin="round"/>
<path d="M25.7749 28.7096C25.7705 28.8394 25.7641 28.9801 25.7557 29.1327C25.6283 31.4555 20.8546 45.7089 20.8546 45.7089H20.3225C20.3225 45.7089 15.6128 32.2809 15.239 29.4112C15.326 29.2389 15.4205 29.0706 15.5223 28.9068C15.6529 29.0995 15.7835 29.2926 15.9138 29.4861C16.6398 30.5656 17.347 31.6598 17.9144 32.8294C18.081 33.1724 18.2349 33.521 18.3767 33.874C19.2306 35.996 19.6573 38.2835 19.8312 40.5694C19.8753 41.1488 19.9939 41.8564 20.5424 42.0483C23.005 38.3156 23.2979 33.5567 25.2132 29.517C25.2396 29.4609 25.2665 29.4048 25.2937 29.3487C25.3594 29.2133 25.4283 29.0778 25.5181 28.958C25.5453 28.9216 25.5742 28.8863 25.6058 28.8535C25.6579 28.799 25.7148 28.7513 25.7749 28.7096Z" fill="#A2A0F2"/>
<path d="M20.5801 6.15649C21.6118 5.60275 22.9737 5.74138 23.8725 6.49186C24.0356 6.62809 24.187 6.78435 24.3777 6.87892C24.9331 7.15539 25.6271 6.83444 26.2125 7.03999C26.6732 7.20187 26.983 7.71273 26.9136 8.19595C26.874 8.47122 26.7273 8.74248 26.7902 9.01335C26.8936 9.4581 27.467 9.58912 27.9222 9.55106C28.3773 9.5134 28.887 9.41082 29.2504 9.68729C29.6447 9.987 29.6511 10.5812 29.5193 11.0588C29.387 11.536 29.1531 12.0052 29.1959 12.4985C29.9043 12.8699 30.9273 12.3218 31.5091 12.8711C31.937 13.2754 31.7963 13.9746 31.6301 14.5391C31.4638 15.1037 31.3436 15.8133 31.7911 16.1956C32.2784 16.6119 33.1102 16.3246 33.6026 16.7345C34.1367 17.1792 33.8767 18.0247 33.6675 18.6874C33.4283 19.4467 33.3181 20.2464 33.3442 21.0422C33.351 21.251 33.3718 21.4733 33.4996 21.6388C33.6892 21.8852 34.0494 21.9225 34.3559 21.8688C34.662 21.8151 34.9589 21.6921 35.2699 21.6949C36.0075 21.7017 36.5624 22.4233 36.7111 23.1458C36.8598 23.8686 36.7235 24.6159 36.7299 25.3535C36.7327 25.6977 36.8642 26.1409 37.2079 26.1509C37.3221 26.8601 36.5488 27.5669 36.8433 28.222C36.9247 28.4031 37.0773 28.5409 37.1887 28.7052C37.4548 29.0991 37.454 29.6552 37.1863 30.0479C36.9187 30.4406 36.401 30.6449 35.9374 30.5407" stroke="black" stroke-width="0.356161" stroke-linecap="round" stroke-linejoin="round"/>
<path d="M19.8859 5.67962C20.9176 5.12588 22.2795 5.26451 23.1783 6.01499C23.3413 6.15122 23.4928 6.30749 23.6835 6.40205C24.2389 6.67852 24.9328 6.35757 25.5182 6.56312C25.979 6.725 26.2887 7.23587 26.2194 7.71909C26.1798 7.99436 26.0331 8.26562 26.096 8.53648C26.1994 8.98123 26.7728 9.11226 27.2279 9.07419C27.6831 9.03653 28.1928 8.93395 28.5562 9.21042C28.9505 9.51013 28.9569 10.1043 28.8251 10.582C28.6928 11.0592 28.4588 11.5284 28.5017 12.0216C29.2101 12.393 30.2331 11.8449 30.8148 12.3942C31.2428 12.7985 31.1021 13.4977 30.9359 14.0623C30.7696 14.6268 30.6494 15.3364 31.0969 15.7187C31.5842 16.135 32.416 15.8477 32.9084 16.2576C33.4425 16.7024 33.1825 17.5478 32.9733 18.2105C32.7341 18.9698 32.6239 19.7696 32.65 20.5653C32.6568 20.7741 32.6776 20.9965 32.8054 21.1619C32.9949 21.4084 33.3552 21.4456 33.6617 21.3919C33.9678 21.3382 34.2647 21.2152 34.5756 21.218C35.3133 21.2249 35.8682 21.9465 36.0169 22.6689C36.1655 23.3917 36.0293 24.139 36.0357 24.8767C36.0385 25.2208 36.1699 25.664 36.5137 25.674C36.6279 26.3832 35.8546 27.09 36.1491 27.7451C36.2305 27.9262 36.3831 28.0641 36.4945 28.2284C36.7606 28.6222 36.7598 29.1784 36.4921 29.571C36.2244 29.9637 35.7068 30.1681 35.2432 30.0639" stroke="black" stroke-width="0.356161" stroke-linecap="round" stroke-linejoin="round"/>
<path d="M12.0569 8.06739C11.6438 7.82338 11.0865 7.97804 10.7363 8.3062C10.3861 8.63436 10.1986 9.09674 10.0387 9.54911C9.87882 10.0015 9.73016 10.4707 9.43286 10.8473C8.99051 11.4071 8.26207 11.7056 7.88262 12.3102C7.34411 13.1681 7.6911 14.3072 7.41342 15.2813C7.21348 15.9825 6.6958 16.5686 6.54595 17.2819C6.25025 18.6879 7.44468 20.198 6.85648 21.509C6.64091 21.9903 6.21659 22.3433 5.9293 22.7852C5.54024 23.3834 5.41963 24.1495 5.60595 24.8387C5.6933 25.1617 5.84556 25.4766 5.83274 25.8108C5.82232 26.09 5.69691 26.3509 5.5739 26.6017C5.30744 27.1462 5.04099 27.6912 4.77454 28.2357C4.66235 28.4645 4.54815 28.7041 4.54895 28.9589C4.55056 29.4113 4.90476 29.7743 5.23492 30.084C5.34871 30.191 5.46932 30.3016 5.62078 30.3409C5.8091 30.3897 6.00503 30.3184 6.18614 30.2483C6.85888 29.9883 7.53163 29.7278 8.20437 29.4678" stroke="black" stroke-width="0.356161" stroke-linecap="round" stroke-linejoin="round"/>
<path d="M12.97 6.84996C12.5569 6.60594 11.9996 6.7606 11.6494 7.08876C11.2992 7.41692 11.1116 7.87931 10.9518 8.33168C10.7919 8.78404 10.6432 9.25324 10.3459 9.62988C9.90359 10.1896 9.17515 10.4881 8.79571 11.0928C8.25719 11.9506 8.60418 13.0898 8.32651 14.0638C8.12657 14.765 7.60889 15.3512 7.45904 16.0644C7.16333 17.4704 8.35776 18.9806 7.76956 20.2916C7.554 20.7728 7.12968 21.1258 6.84239 21.5678C6.45333 22.166 6.33272 22.9321 6.51904 23.6213C6.60639 23.9442 6.75864 24.2592 6.74582 24.5933C6.7354 24.8726 6.60999 25.1334 6.48698 25.3843C6.22053 25.9288 5.95408 26.4737 5.68762 27.0183C5.57543 27.247 5.46124 27.4866 5.46204 27.7415C5.46364 28.1938 5.81785 28.5569 6.14801 28.8666C6.2618 28.9736 6.38241 29.0842 6.53386 29.1234C6.72218 29.1723 6.91812 29.101 7.09922 29.0309C7.77197 28.7708 8.44471 28.5104 9.11745 28.2503" stroke="black" stroke-width="0.356161" stroke-linecap="round" stroke-linejoin="round"/>
<path d="M15.7126 9.05875C15.7126 9.05875 15.5728 9.25067 15.344 9.59125" stroke="black" stroke-width="0.356161" stroke-linecap="round" stroke-linejoin="round"/>
<path d="M20.6684 20.7173C19.7829 21.36 18.3945 22.2591 16.9504 22.7684" stroke="black" stroke-width="0.356161" stroke-linecap="round" stroke-linejoin="round"/>
<path d="M37.0993 29.9846C37.0812 29.8764 37.0564 29.749 37.0275 29.6088C36.8749 28.8647 36.618 27.7672 36.7751 27.2968C37.0055 26.6057 37.207 25.7414 36.4293 25.3383C35.6516 24.9352 35.5078 24.6183 35.5366 23.7252C35.5586 23.0284 35.2129 22.3316 34.7585 21.6208C34.6307 21.4208 34.4944 21.2201 34.3554 21.0178C34.3145 20.9585 34.2793 20.9016 34.2476 20.8463C33.7952 20.0421 34.2969 19.6338 33.8658 18.7711C33.772 18.5836 33.6498 18.4358 33.514 18.3112C32.9819 17.8231 32.2414 17.6969 32.1953 16.9857C32.1917 16.9308 32.1893 16.8739 32.1881 16.8158C32.1657 15.9287 32.3508 14.7034 31.648 14.1629C31.5691 14.102 31.4929 14.0427 31.4204 13.9834C30.8142 13.4934 30.4239 13.0526 30.1907 12.3274C30.1867 12.3154 30.1827 12.3033 30.1791 12.2909C29.9211 11.4591 29.8914 10.7988 28.9526 10.3949C28.9486 10.3933 28.9446 10.3913 28.9406 10.3897C28.5932 10.2422 28.4113 9.97218 28.2895 9.66566C28.0775 9.13356 28.0467 8.49327 27.6444 8.20077C27.4396 8.05172 27.1956 8.01445 26.9352 8.00444C26.3895 7.9836 25.77 8.08457 25.2828 7.53844C25.1109 7.34612 24.9755 7.15219 24.8577 6.96787C24.4806 6.37967 24.2839 5.89004 23.67 5.868C23.3852 5.85799 23.0426 5.91969 22.6924 5.98941C22.1591 6.09639 21.6077 6.22261 21.2119 6.14447C21.1313 6.12845 21.0572 6.10441 20.9911 6.06955C20.3865 5.75261 20.4726 5.11913 19.6953 5.34952C19.1736 5.50418 18.8202 5.68449 18.5225 5.85638C18.3762 5.94053 18.2436 6.02267 18.111 6.09839C18.111 6.09839 16.8885 4.79137 16.0823 5.30024C15.2758 5.8087 14.4007 6.68379 14.0725 6.75671C13.976 6.77835 13.8129 6.78076 13.6206 6.78476C13.1602 6.79438 12.5327 6.81281 12.2498 7.12133C11.8487 7.55888 11.5935 8.77294 11.1199 9.05903C10.6459 9.34512 9.33327 10.2567 9.15096 10.7307C8.96865 11.2043 9.15096 11.8241 8.89572 12.4804C8.64049 13.1368 7.83873 14.2667 7.61995 14.8865C7.40118 15.5064 8.20334 16.2721 7.98457 16.9645C7.7658 17.6572 7.10949 18.7511 7.07302 19.2616C7.06581 19.365 7.07302 19.4683 7.08905 19.5777C7.15036 20.0056 7.33507 20.5189 7.21887 21.4489C7.19203 21.6645 7.13753 21.8612 7.06621 22.0431C6.75168 22.8469 6.10498 23.363 6.01563 23.9279C5.97155 24.2076 6.09937 24.5466 6.25123 24.8968C6.47561 25.4144 6.75128 25.9574 6.59902 26.3705C6.59902 26.3705 6.589 26.3761 6.57057 26.3873C6.40509 26.4863 5.56726 27.0083 5.4691 27.5008C5.4146 27.7724 5.65181 28.2032 5.86377 28.6355C6.03806 28.9909 6.19553 29.3471 6.16027 29.6156C8.39126 28.9745 11.662 28.4215 13.9663 28.0133C14.1707 27.8213 14.375 27.6554 14.575 27.526C14.9047 27.3125 15.2233 27.1971 15.5146 27.2227C15.5783 27.2067 15.6264 27.2395 15.6264 27.2395C15.8844 26.8132 16.348 26.4037 16.8408 26.7347C16.9819 25.4293 16.9502 22.7691 16.9502 22.7691C15.5234 23.2732 14.0425 23.3962 12.9394 22.5151C11.4252 21.3059 11.2678 19.3549 11.7169 17.3095C12.4005 14.1954 14.4912 10.8621 15.3443 9.59194C15.3543 9.62599 15.8419 11.2572 16.4694 11.5709C17.1029 11.8874 18.1975 11.7724 18.8022 12.2044C19.4072 12.6363 19.4933 13.8171 19.8968 14.1629C20.2999 14.5087 21.9419 14.7968 22.1434 15.3149C22.345 15.8333 21.9703 16.8126 22.5177 17.2738C23.065 17.7346 23.6985 17.4176 23.9866 18.1665C24.2747 18.9154 23.3555 19.9379 23.9313 20.5714C24.5075 21.2049 24.9262 21.4164 24.8689 22.3853C24.8112 23.3545 23.9573 24.4252 24.4758 25.3183C24.6221 25.5703 24.7799 25.8307 24.935 26.0972C24.9494 26.1216 24.9638 26.1465 24.9779 26.1717C25.1473 26.4642 25.3116 26.7631 25.4523 27.0648C25.5917 27.3638 25.7079 27.6651 25.7824 27.9656C25.8013 28.0405 25.8169 28.115 25.8301 28.1896C26.0028 29.1688 25.542 30.2923 26.3197 30.7243C27.0975 31.1562 28.2206 30.0042 28.8544 30.0331C28.8577 30.0331 28.8609 30.0335 28.8641 30.0339C29.4959 30.0667 30.2697 30.5516 31.0434 30.5516C31.8171 30.5516 33.2611 30.3212 33.5777 30.465C33.8946 30.6093 34.9604 31.7901 35.767 31.3581C36.5732 30.9258 37.034 30.6093 37.1205 30.3212C37.1369 30.2659 37.1261 30.1465 37.0993 29.9846ZM25.5516 27.2395C25.5516 27.2395 25.5969 27.181 25.6474 27.2239C25.6149 27.2275 25.5833 27.2323 25.5516 27.2395Z" fill="#3D0027" stroke="black" stroke-width="0.356161" stroke-linecap="round" stroke-linejoin="round"/>
<path d="M37.0993 29.9846C37.0812 29.8764 37.0564 29.749 37.0275 29.6088C36.8749 28.8647 36.618 27.7672 36.7751 27.2968C37.0055 26.6057 37.207 25.7414 36.4293 25.3383C35.6516 24.9352 35.5078 24.6183 35.5366 23.7252C35.5586 23.0284 35.2129 22.3316 34.7585 21.6208C34.6307 21.4208 34.4944 21.2201 34.3554 21.0178C34.3145 20.9585 34.2793 20.9016 34.2476 20.8463C33.7952 20.0421 34.2969 19.6338 33.8658 18.7711C33.772 18.5836 33.6498 18.4358 33.514 18.3112C32.9819 17.8231 32.2414 17.6969 32.1953 16.9857C32.1917 16.9308 32.1893 16.8739 32.1881 16.8158C32.1657 15.9287 32.3508 14.7034 31.648 14.1629C31.5691 14.102 31.4929 14.0427 31.4204 13.9834C30.8142 13.4934 30.4239 13.0526 30.1907 12.3274C30.1867 12.3154 30.1827 12.3033 30.1791 12.2909C29.9211 11.4591 29.8914 10.7988 28.9526 10.3949C28.9486 10.3933 28.9446 10.3913 28.9406 10.3897C28.5932 10.2422 28.4113 9.97218 28.2895 9.66566C28.0775 9.13356 28.0467 8.49327 27.6444 8.20077C27.4396 8.05172 27.1956 8.01445 26.9352 8.00444C26.3895 7.9836 25.77 8.08457 25.2828 7.53844C25.1109 7.34612 24.9755 7.15219 24.8577 6.96787C24.4806 6.37967 24.2839 5.89004 23.67 5.868C23.3852 5.85799 23.0426 5.91969 22.6924 5.98941C22.1591 6.09639 21.6077 6.22261 21.2119 6.14447C21.1313 6.12845 21.0572 6.10441 20.9911 6.06955C20.3865 5.75261 20.4726 5.11913 19.6953 5.34952C19.1736 5.50418 18.8202 5.68449 18.5225 5.85638C18.3762 5.94053 18.2436 6.02267 18.111 6.09839C18.111 6.09839 16.8885 4.79137 16.0823 5.30024C15.2758 5.8087 14.4007 6.68379 14.0725 6.75671C13.976 6.77835 13.8129 6.78076 13.6206 6.78476C13.1602 6.79438 12.5327 6.81281 12.2498 7.12133C11.8487 7.55888 11.5935 8.77294 11.1199 9.05903C10.6459 9.34512 9.33327 10.2567 9.15096 10.7307C8.96865 11.2043 9.15096 11.8241 8.89572 12.4804C8.64049 13.1368 7.83873 14.2667 7.61995 14.8865C7.40118 15.5064 8.20334 16.2721 7.98457 16.9645C7.7658 17.6572 7.10949 18.7511 7.07302 19.2616C7.06581 19.365 7.07302 19.4683 7.08905 19.5777C7.15036 20.0056 7.33507 20.5189 7.21887 21.4489C7.19203 21.6645 7.13753 21.8612 7.06621 22.0431C6.75168 22.8469 6.10498 23.363 6.01563 23.9279C5.97155 24.2076 6.09937 24.5466 6.25123 24.8968C6.47561 25.4144 6.75128 25.9574 6.59902 26.3705C6.59902 26.3705 6.589 26.3761 6.57057 26.3873C6.40509 26.4863 5.56726 27.0083 5.4691 27.5008C5.4146 27.7724 5.65181 28.2032 5.86377 28.6355C6.03806 28.9909 6.19553 29.3471 6.16027 29.6156C8.39126 28.9745 11.662 28.4215 13.9663 28.0133C14.1707 27.8213 14.375 27.6554 14.575 27.526C14.9047 27.3125 15.2233 27.1971 15.5146 27.2227C15.5783 27.2067 15.6264 27.2395 15.6264 27.2395C15.8844 26.8132 16.348 26.4037 16.8408 26.7347C16.9819 25.4293 16.9502 22.7691 16.9502 22.7691C15.5234 23.2732 14.0425 23.3962 12.9394 22.5151C11.4252 21.3059 11.2678 19.3549 11.7169 17.3095C12.4005 14.1954 14.4912 10.8621 15.3443 9.59194C15.3495 9.60916 15.4793 10.0439 15.6889 10.5067C15.8892 10.949 16.1625 11.4178 16.4694 11.5709C16.832 11.752 17.3457 11.7917 17.8317 11.8738C18.1951 11.9347 18.5433 12.0197 18.8022 12.2044C19.1299 12.4384 19.3054 12.8923 19.4617 13.3143C19.5939 13.6709 19.7121 14.0042 19.8968 14.1629C20.2406 14.4578 21.4867 14.711 21.9699 15.1005C22.0533 15.1678 22.1138 15.2387 22.1434 15.3149C22.1851 15.4218 22.2023 15.5485 22.208 15.6863C22.2296 16.2156 22.0833 16.908 22.5177 17.2738C23.065 17.7346 23.6985 17.4176 23.9866 18.1665C24.2747 18.9154 23.3555 19.9379 23.9313 20.5714C24.5075 21.2049 24.9262 21.4164 24.8689 22.3853C24.8112 23.3545 23.9573 24.4252 24.4758 25.3183C24.6221 25.5703 24.7799 25.8307 24.935 26.0972C24.9494 26.1216 24.9638 26.1465 24.9779 26.1717C25.1473 26.4642 25.3116 26.7631 25.4523 27.0648C25.5917 27.3638 25.7079 27.6651 25.7824 27.9656C25.7985 28.0301 25.8125 28.0942 25.8245 28.1583C25.8265 28.1687 25.8281 28.1791 25.8301 28.1896C26.0028 29.1688 25.542 30.2923 26.3197 30.7243C27.0975 31.1562 28.2206 30.0042 28.8544 30.0331C28.8577 30.0331 28.8609 30.0335 28.8641 30.0339C29.4959 30.0667 30.2697 30.5516 31.0434 30.5516C31.8171 30.5516 33.2611 30.3212 33.5777 30.465C33.8946 30.6093 34.9604 31.7901 35.767 31.3581C36.5732 30.9258 37.034 30.6093 37.1205 30.3212C37.1369 30.2659 37.1261 30.1465 37.0993 29.9846ZM25.5516 27.2395C25.5516 27.2395 25.5969 27.181 25.6474 27.2239C25.6149 27.2275 25.5833 27.2323 25.5516 27.2395Z" fill="#3D0027" stroke="black" stroke-width="0.356161" stroke-linecap="round" stroke-linejoin="round"/>
<path d="M20.3223 45.7089C20.3223 45.7089 20.0955 46.1453 19.8022 46.6626C19.1218 46.4742 17.9827 46.1473 16.6729 45.7666C14.3994 42.4254 10.9552 36.9741 10.9552 36.6227C10.9552 36.1122 13.3288 35.2696 13.4053 34.9891C13.4819 34.7082 10.7256 33.1003 10.8021 32.692C10.8574 32.3963 12.4253 29.4581 13.9655 28.0136C14.1859 27.8069 14.4058 27.6306 14.6206 27.4972C14.9335 27.3024 15.236 27.1987 15.5137 27.2231C15.426 27.2451 15.3082 27.3601 15.2445 27.7813C15.1992 28.077 15.1807 28.5237 15.2176 29.1953C15.2941 30.5908 17.1216 36.2713 18.5681 40.5834C19.5293 43.4483 20.3223 45.7089 20.3223 45.7089Z" fill="#F5D256" stroke="black" stroke-width="0.356161" stroke-linecap="round" stroke-linejoin="round"/>
<path d="M15.6258 27.2392C15.5132 27.4251 15.4399 27.6146 15.4202 27.7468C15.3634 27.758 15.3049 27.7693 15.2448 27.7805C15.3085 27.3594 15.4263 27.2444 15.514 27.2223C15.5777 27.2063 15.6258 27.2392 15.6258 27.2392Z" stroke="black" stroke-width="0.356161" stroke-linecap="round" stroke-linejoin="round"/>
<path d="M25.6473 27.2239C25.6148 27.2275 25.5832 27.2323 25.5515 27.2395C25.5515 27.2395 25.5968 27.181 25.6473 27.2239Z" stroke="black" stroke-width="0.356161" stroke-linecap="round" stroke-linejoin="round"/>
<path d="M16.6732 45.7652C15.6351 45.4639 14.4899 45.1293 13.38 44.804C10.552 43.975 7.9548 43.2068 7.9548 43.2068L2.10044 32.6437C2.10044 32.6437 2.03834 31.9934 3.98965 30.5064C4.39835 30.1951 5.17848 29.8962 6.15974 29.6145C8.02051 29.08 10.6045 28.6064 12.7477 28.227C13.1745 28.1516 13.5836 28.0799 13.9658 28.0122C12.4256 29.4567 10.8577 32.3949 10.8024 32.6906C10.7259 33.0989 13.4822 34.7068 13.4057 34.9877C13.3291 35.2681 10.9555 36.1108 10.9555 36.6212C10.9555 36.9726 14.3998 42.4239 16.6732 45.7652Z" fill="#F5D256" stroke="black" stroke-width="0.356161" stroke-linecap="round" stroke-linejoin="round"/>
<path d="M6.57057 26.3862C6.66753 26.7757 6.73405 27.1712 6.67314 27.5642C6.60142 28.0286 6.2941 28.4886 5.86377 28.6345C5.65181 28.2021 5.4146 27.7714 5.4691 27.4997C5.56726 27.0073 6.40509 26.4852 6.57057 26.3862Z" fill="#6D1151"/>
<path d="M7.06587 22.043C7.07308 22.2818 7.05626 22.5182 6.99335 22.7486C6.84149 23.3043 6.4324 23.7655 6.29857 24.3261C6.25369 24.514 6.24127 24.7051 6.25089 24.8966C6.09903 24.5464 5.97121 24.2075 6.01529 23.9278C6.10464 23.3628 6.75134 22.8467 7.06587 22.043Z" fill="#6D1151"/>
<path d="M13.6196 6.785C12.9292 7.55231 12.2216 8.3116 11.3858 8.91502C10.9054 9.26161 10.3697 9.57014 10.0527 10.0702C9.59316 10.7958 9.70175 11.7474 9.37319 12.5412C9.0282 13.375 8.21001 14.0213 8.14069 14.9208C8.07658 15.7486 8.68442 16.538 8.54658 17.3566C8.39753 18.2393 7.45993 18.7694 7.0881 19.578C7.07248 19.4686 7.06486 19.3652 7.07207 19.2618C7.10854 18.7513 7.76485 17.6575 7.98362 16.9647C8.2024 16.2723 7.40023 15.5066 7.619 14.8868C7.83778 14.2669 8.63954 13.137 8.89477 12.4807C9.15001 11.8244 8.9677 11.2045 9.15001 10.7309C9.33232 10.2569 10.6449 9.34536 11.119 9.05927C11.5926 8.77318 11.8478 7.55912 12.2489 7.12158C12.5318 6.81305 13.1592 6.79462 13.6196 6.785Z" fill="#6D1151"/>
<path d="M18.5677 40.5834C18.4796 40.7044 18.3285 40.7862 18.1863 40.7457C18.0633 40.7108 17.9811 40.5978 17.9094 40.4921C15.8375 37.4248 14.6018 33.7991 14.3698 30.1052C14.3149 29.303 14.3141 28.4696 14.5545 27.6947C14.575 27.6286 14.597 27.5629 14.6202 27.4972C14.9332 27.3024 15.2357 27.1987 15.5133 27.2231C15.4256 27.2451 15.3078 27.3601 15.2441 27.7813C15.1988 28.077 15.1804 28.5237 15.2172 29.1953C15.2938 30.5908 17.1213 36.2713 18.5677 40.5834Z" fill="#FFE8A9"/>
<path d="M17.9262 34.2844C17.5992 34.3345 15.3562 28.1832 15.4203 27.7473C15.4399 27.615 15.5133 27.4255 15.6258 27.2396C15.8731 26.8313 16.309 26.4382 16.7786 26.6971C16.799 26.7083 16.8199 26.7207 16.8403 26.7347C16.9168 26.7864 18.9984 29.9975 19.5429 30.8377C19.5902 30.911 19.6262 30.9663 19.6479 31C20.1043 31.704 18.2535 34.2339 17.9262 34.2844Z" fill="#49A2A6" stroke="black" stroke-width="0.356161" stroke-linecap="round" stroke-linejoin="round"/>
<path d="M25.7841 28.358C25.3229 29.7327 22.0405 34.4347 21.4523 34.3955C21.1213 34.3734 20.689 33.4366 20.3608 32.576C20.0784 31.8367 19.8724 31.1535 19.8724 31.1535C19.7851 30.8747 20.8032 30.4499 22.2008 29.1593C22.692 28.7054 23.1295 28.255 23.503 27.8455C24.4069 26.8534 24.9342 26.0981 24.9342 26.0981C24.9486 26.1226 24.9631 26.1474 24.9771 26.1727C25.3321 26.8013 25.6655 27.7181 25.7837 28.0575C25.7853 28.1484 25.7853 28.2478 25.7841 28.358Z" fill="#49A2A6" stroke="black" stroke-width="0.356161" stroke-linecap="round" stroke-linejoin="round"/>
<path d="M25.7847 28.3563C25.7859 28.2461 25.7859 28.1467 25.7843 28.0562C25.814 28.1403 25.83 28.1888 25.83 28.1888C25.8212 28.2369 25.8059 28.293 25.7847 28.3563Z" stroke="black" stroke-width="0.356161" stroke-linecap="round" stroke-linejoin="round"/>
<path d="M15.626 27.2392C15.5891 27.2311 15.5518 27.2255 15.5142 27.2223C15.5779 27.2063 15.626 27.2392 15.626 27.2392Z" stroke="black" stroke-width="0.356161" stroke-linecap="round" stroke-linejoin="round"/>
<path d="M25.6473 27.2239C25.6148 27.2275 25.5832 27.2323 25.5515 27.2395C25.5515 27.2395 25.5968 27.181 25.6473 27.2239Z" stroke="black" stroke-width="0.356161" stroke-linecap="round" stroke-linejoin="round"/>
<path d="M25.7834 28.3573C25.7846 28.2471 25.7846 28.1477 25.783 28.0572C25.783 28.0251 25.7818 27.9951 25.781 27.9658C25.7998 28.0407 25.8155 28.1153 25.8287 28.1898C25.8199 28.2379 25.8046 28.294 25.7834 28.3573Z" stroke="black" stroke-width="0.356161" stroke-linecap="round" stroke-linejoin="round"/>
<path d="M14.8728 15.1118C14.8728 15.1118 13.8499 17.0908 14.2033 17.3697C14.5567 17.6485 15.4494 16.6444 15.4494 16.6444" stroke="black" stroke-width="0.356161" stroke-linecap="round" stroke-linejoin="round"/>
<path d="M16.8249 19.8832C16.0323 20.3784 15.2013 19.527 15.2013 19.527C15.2013 19.527 15.8909 19.5306 16.5279 19.1139C17.165 18.6972 17.373 18.2396 17.373 18.2396C17.373 18.2396 17.617 19.3883 16.8249 19.8832Z" fill="#E938B5" stroke="black" stroke-width="0.356161" stroke-linecap="round" stroke-linejoin="round"/>
<path d="M17.373 18.2394C17.373 18.2394 17.165 18.6969 16.5279 19.1137C15.8909 19.5304 15.2013 19.5268 15.2013 19.5268C15.2013 19.5268 15.5691 18.6497 15.7811 18.6921C15.9934 18.7346 16.1064 18.8588 16.1914 18.6905C16.2763 18.5226 16.1774 18.3528 16.3893 18.2394C16.6017 18.1264 17.373 18.2394 17.373 18.2394Z" fill="#E938B5" stroke="black" stroke-width="0.356161" stroke-linecap="round" stroke-linejoin="round"/>
<path d="M17.5821 17.6325L17.3726 18.2403" stroke="black" stroke-width="0.356161" stroke-linecap="round" stroke-linejoin="round"/>
<path d="M17.1764 17.5254C17.287 17.4897 17.41 17.5122 17.515 17.5627C17.6199 17.6132 17.7097 17.6897 17.7974 17.7658C17.8487 17.8103 17.9032 17.8612 17.9136 17.9281" stroke="black" stroke-width="0.356161" stroke-linecap="round" stroke-linejoin="round"/>
<path d="M38.5673 30.6474C37.9222 31.5121 37.0019 32.174 35.9757 32.5158C34.8534 32.8896 33.6189 32.8864 32.4834 32.5522C32.2145 32.4733 31.9513 32.3759 31.6964 32.2605C31.0598 31.9724 30.4379 31.569 29.7595 31.4708C29.649 31.4548 29.5368 31.4467 29.423 31.4487C28.6729 31.462 28.0066 31.9059 27.3987 32.3459C27.0722 32.5823 26.6907 32.8335 26.3057 32.8195C26.2355 32.8167 26.1658 32.8055 26.0957 32.7834C25.7319 32.6696 25.5103 32.3082 25.3428 31.9656C25.298 31.8739 25.2547 31.7809 25.213 31.6868C25.5255 30.5067 25.7303 29.5888 25.7551 29.1324C25.7716 28.8299 25.7808 28.5739 25.7836 28.3575C25.8048 28.2938 25.82 28.2377 25.8289 28.1896C26.0016 29.1689 25.5408 30.2924 26.3185 30.7243C26.8362 31.0116 27.5065 30.5977 28.0839 30.2972C28.3744 30.1461 28.6412 30.0235 28.8532 30.0331C28.8564 30.0331 28.8596 30.0335 28.8628 30.0339C29.4947 30.0668 30.2684 30.5516 31.0421 30.5516C31.1619 30.5516 31.2978 30.546 31.4428 30.5372C32.2374 30.4895 33.3088 30.3433 33.5764 30.4651C33.8934 30.6093 34.9592 31.7901 35.7658 31.3582C36.5719 30.9259 37.0327 30.6093 37.1193 30.3212C37.1357 30.2659 37.1249 30.1465 37.098 29.9847C37.5171 30.092 37.7676 30.1582 37.7848 30.167C37.8321 30.1906 38.1702 30.3914 38.5673 30.6474Z" fill="#E0B836"/>
<path d="M32.5406 33.4191C32.4657 33.5906 32.297 33.6991 32.1375 33.7977C31.3987 34.2525 30.6602 34.7077 29.9218 35.1624C30.4727 35.5275 31.3205 35.505 31.6231 36.0928C31.7717 36.3813 31.7276 36.7283 31.6623 37.0464C31.216 39.2113 29.9915 41.0837 28.7345 42.9296C27.5854 43.4782 26.409 44.0383 25.3171 44.5568C27.5153 41.2528 30.2215 36.9342 30.2215 36.6229C30.2215 36.1124 27.8478 35.2698 27.7713 34.9893C27.6944 34.7085 30.4511 33.1005 30.3745 32.6922C30.3537 32.582 30.1225 32.1032 29.7599 31.4714C29.5135 31.0406 29.2057 30.5394 28.8632 30.0345C29.495 30.0674 30.2688 30.5522 31.0425 30.5522C31.1623 30.5522 31.2981 30.5466 31.4432 30.5378C31.8903 31.1644 32.2914 31.8256 32.4837 32.5528C32.5202 32.691 32.549 32.8313 32.5695 32.9743C32.5907 33.1234 32.6007 33.2808 32.5406 33.4191Z" fill="#E0B836"/>
<path d="M30.2217 36.6226C30.2217 36.8678 28.542 39.6 26.7546 42.3639C26.4825 42.4396 26.1957 42.4533 25.9292 42.3659C26.1343 41.496 26.644 40.7291 27.2066 40.0348C27.7691 39.3404 28.3954 38.6949 28.8934 37.9528C29.0577 37.7084 29.2132 37.4159 29.1326 37.133C29.0301 36.7728 28.6138 36.6234 28.2596 36.5019C27.905 36.3809 27.4999 36.1554 27.4951 35.7811C27.4915 35.5026 27.7214 35.2903 27.9855 35.1753C28.5841 35.5455 30.2217 36.1986 30.2217 36.6226Z" fill="#FFE8A9"/>
<path d="M16.6734 45.7652C15.6352 45.4639 14.4901 45.1293 13.3802 44.804C12.8801 44.0919 12.4049 43.3615 11.9309 42.6323C11.3014 41.6646 10.6724 40.697 10.0429 39.7293C9.8105 39.3723 9.5753 39.0085 9.45149 38.6006C9.25315 37.9483 9.36213 37.2279 9.65463 36.612C9.94713 35.9962 10.4123 35.4761 10.9272 35.0293C11.0141 34.9544 11.1079 34.8719 11.1299 34.7593C11.1752 34.5297 10.9148 34.3714 10.7044 34.268C9.91588 33.8806 9.25676 33.2351 8.85327 32.455C8.77994 32.3131 8.71343 32.1581 8.72946 31.9994C8.74869 31.8107 8.88012 31.6548 9.00793 31.5142C9.61256 30.8478 10.2665 30.2268 10.9621 29.6562C11.5519 29.1726 12.1573 28.7102 12.7479 28.227C13.1746 28.1516 13.5837 28.0799 13.966 28.0122C12.4257 29.4567 10.8579 32.3949 10.8026 32.6906C10.7261 33.0989 13.4823 34.7068 13.4058 34.9877C13.3293 35.2681 10.9556 36.1108 10.9556 36.6212C10.9556 36.9726 14.3999 42.4239 16.6734 45.7652Z" fill="#E0B836"/>
<path d="M19.5429 30.8378C19.512 31.0942 19.4628 31.349 19.3682 31.5886C19.3217 31.706 19.2608 31.8238 19.159 31.8988C18.9246 32.0715 18.5716 31.9376 18.3969 31.7048C18.2222 31.4716 18.1718 31.1723 18.0956 30.8914C17.9097 30.2031 17.5491 29.5776 17.2402 28.9349C16.9637 28.3599 16.5614 27.5285 16.7137 26.8702C16.7285 26.8065 16.7501 26.7488 16.7786 26.6971C16.799 26.7083 16.8199 26.7208 16.8403 26.7348C16.9168 26.7865 18.9984 29.9975 19.5429 30.8378Z" fill="#63BABA"/>
<path d="M39.9845 31.8088C39.9536 32.1185 35.5858 39.5219 35.3069 39.7386C35.1346 39.8729 29.58 42.5326 25.3171 44.5564C27.5153 41.2524 30.2215 36.9339 30.2215 36.6226C30.2215 36.1121 27.8478 35.2694 27.7713 34.989C27.6944 34.7081 30.4511 33.1002 30.3745 32.6919C30.3397 32.5064 29.709 31.2795 28.8632 30.0341C29.495 30.067 30.2688 30.5518 31.0425 30.5518C31.8162 30.5518 33.2602 30.3214 33.5768 30.4653C33.8937 30.6095 34.9595 31.7903 35.7661 31.3584C36.5723 30.9261 37.0331 30.6095 37.1196 30.3214C37.136 30.2661 37.1252 30.1467 37.0984 29.9849C37.5175 30.0922 37.7679 30.1584 37.7851 30.1672C37.9089 30.2289 40.0153 31.499 39.9845 31.8088Z" stroke="black" stroke-width="0.356161" stroke-linecap="round" stroke-linejoin="round"/>
<path d="M30.2214 36.6216C30.2214 36.9329 27.5152 41.2514 25.317 44.5554C23.623 45.3596 22.1328 46.0632 21.2657 46.4683C21.0269 46.04 20.8542 45.7078 20.8542 45.7078C20.8542 45.7078 25.628 31.4544 25.7554 29.1316C25.7718 28.8291 25.781 28.5731 25.7838 28.3567C25.8051 28.293 25.8203 28.2369 25.8291 28.1888C26.0018 29.1681 25.541 30.2916 26.3187 30.7235C27.0965 31.1555 28.2196 30.0035 28.8534 30.0323C28.8567 30.0323 28.8599 30.0327 28.8631 30.0331C29.7089 31.2785 30.3396 32.5054 30.3744 32.6909C30.451 33.0992 27.6943 34.7071 27.7712 34.988C27.8477 35.2684 30.2214 36.1111 30.2214 36.6216Z" stroke="black" stroke-width="0.356161" stroke-linecap="round" stroke-linejoin="round"/>
<path d="M20.3223 45.7089C20.3223 45.7089 20.0955 46.1453 19.8022 46.6626C19.1218 46.4742 17.9827 46.1473 16.6729 45.7666C14.3994 42.4254 10.9552 36.9741 10.9552 36.6227C10.9552 36.1122 13.3288 35.2696 13.4053 34.9891C13.4819 34.7082 10.7256 33.1003 10.8021 32.692C10.8574 32.3963 12.4253 29.4581 13.9655 28.0137C14.5072 27.5052 15.0457 27.1818 15.5137 27.2231C15.426 27.2451 15.3082 27.3601 15.2445 27.7813C15.1992 28.077 15.1807 28.5237 15.2176 29.1953C15.345 31.518 20.3223 45.7089 20.3223 45.7089Z" stroke="black" stroke-width="0.356161" stroke-linecap="round" stroke-linejoin="round"/>
<path d="M16.6732 45.7652C12.9898 44.6958 7.9548 43.2068 7.9548 43.2068L2.10044 32.6437C2.10044 32.6437 2.03834 31.9934 3.98965 30.5064C4.39835 30.1951 5.17848 29.8962 6.15974 29.6145C8.39074 28.9734 11.6615 28.4205 13.9658 28.0122C12.4256 29.4567 10.8577 32.3949 10.8024 32.6906C10.7259 33.0989 13.4822 34.7068 13.4057 34.9877C13.3291 35.2681 10.9555 36.1108 10.9555 36.6212C10.9555 36.9726 14.3998 42.4239 16.6732 45.7652Z" stroke="black" stroke-width="0.356161" stroke-linecap="round" stroke-linejoin="round"/>
<path d="M23.6669 28.1867C23.6144 28.7249 23.5483 29.2966 23.2085 29.7173C22.835 30.1789 22.2112 30.3572 21.7692 30.7539C21.2087 31.258 21.0115 32.0369 20.7355 32.7385C20.7227 32.7709 20.7074 32.8058 20.6762 32.8218C20.6221 32.8491 20.5608 32.803 20.5191 32.7593C20.4654 32.7028 20.4125 32.6415 20.3608 32.5758C20.0784 31.8366 19.8724 31.1534 19.8724 31.1534C19.7851 30.8745 20.8032 30.4498 22.2008 29.1592C22.692 28.7052 23.1295 28.2549 23.503 27.8454C23.5635 27.873 23.6184 27.9115 23.6472 27.9696C23.6805 28.0357 23.6741 28.1134 23.6669 28.1867Z" fill="#63BABA"/>
<path d="M20.9913 6.07001C21.0574 6.10487 21.1315 6.12891 21.2121 6.14493C21.184 6.15295 21.1564 6.16176 21.1287 6.17018C20.3546 6.41099 18.9895 6.81568 18.5227 5.85684C18.8204 5.68495 19.1738 5.50465 19.6955 5.34998C20.4728 5.11959 20.3867 5.75307 20.9913 6.07001Z" fill="#6D1151"/>
<path d="M24.8571 6.96785C24.4343 6.89173 24.0252 6.78394 23.6702 6.55195C23.4619 6.41572 23.2796 6.24062 23.06 6.12362C22.9418 6.06071 22.8184 6.01744 22.6918 5.98939C23.042 5.91967 23.3845 5.85797 23.6694 5.86798C24.2833 5.89002 24.48 6.37965 24.8571 6.96785Z" fill="#6D1151"/>
<path d="M28.2894 9.66528C27.982 9.52985 27.6326 9.42327 27.3874 9.20771C27.0537 8.91401 26.9571 8.46204 26.9351 8.00406C27.1955 8.01408 27.4395 8.05134 27.6443 8.20039C28.0465 8.49289 28.0774 9.13318 28.2894 9.66528Z" fill="#6D1151"/>
<path d="M30.1781 12.291C30.1818 12.3035 30.1858 12.3155 30.1898 12.3275C30.1257 12.289 30.0623 12.2502 29.9998 12.2101C29.4982 11.888 29.017 11.4228 28.9653 10.829C28.9529 10.6851 28.9665 10.5377 28.9517 10.395C29.8905 10.7989 29.9201 11.4592 30.1781 12.291Z" fill="#6D1151"/>
<path d="M32.1878 16.8163C31.2306 16.3078 30.8087 14.9043 31.4201 13.9839C31.4927 14.0432 31.5688 14.1025 31.6477 14.1634C32.3505 14.7039 32.1654 15.9292 32.1878 16.8163Z" fill="#6D1151"/>
<path d="M34.2474 20.846C33.8972 20.7058 33.4621 20.616 33.2245 20.3363C32.8671 19.916 33.1047 19.2797 33.3375 18.7797C33.4052 18.6342 33.4685 18.474 33.5138 18.3109C33.6496 18.4355 33.7718 18.5833 33.8656 18.7709C34.2967 19.6335 33.7951 20.0418 34.2474 20.846Z" fill="#6D1151"/>
<path d="M37.0262 29.6094C36.8378 29.486 36.6744 29.3201 36.5542 29.1314C36.2601 28.671 36.1863 28.1012 36.2124 27.5555C36.2372 27.0262 36.3478 26.4849 36.2072 25.974C36.0008 25.226 35.3125 24.7223 34.9178 24.0544C34.5379 23.4121 34.4466 22.6067 34.6726 21.8955C34.7014 21.8049 34.7355 21.7136 34.7571 21.6214C35.2115 22.3322 35.5573 23.029 35.5352 23.7258C35.5064 24.6189 35.6502 24.9359 36.428 25.339C37.2057 25.742 37.0041 26.6063 36.7737 27.2975C36.6167 27.7679 36.8735 28.8653 37.0262 29.6094Z" fill="#6D1151"/>
<path d="M17.9253 34.2845C17.5983 34.3346 15.3553 28.1833 15.4194 27.7474C15.4391 27.6151 15.5124 27.4256 15.625 27.2397C15.883 26.8134 16.3466 26.4039 16.8395 26.7348C16.9228 26.7909 19.377 30.5834 19.647 31.0001C20.1034 31.7041 18.2527 34.234 17.9253 34.2845Z" stroke="black" stroke-width="0.356161" stroke-linecap="round" stroke-linejoin="round"/>
<path d="M25.7841 28.358C25.3229 29.7327 22.0405 34.4347 21.4523 34.3955C20.8369 34.3542 19.8724 31.1535 19.8724 31.1535C19.7851 30.8747 20.8032 30.4499 22.2008 29.1593C23.8816 27.6059 24.9342 26.0981 24.9342 26.0981C24.9486 26.1226 24.9631 26.1474 24.9771 26.1727C25.3321 26.8013 25.6655 27.7181 25.7837 28.0575C25.7853 28.1484 25.7853 28.2478 25.7841 28.358Z" stroke="black" stroke-width="0.356161" stroke-linecap="round" stroke-linejoin="round"/>
<path d="M15.4498 9.66586C15.1718 9.95636 15.3092 10.7681 15.3897 11.162C15.4302 11.3595 15.4755 11.5667 15.6069 11.7198C15.758 11.8961 15.9944 11.9694 16.2195 12.0251C16.7316 12.1517 17.2557 12.231 17.7826 12.2611C17.9445 12.2703 18.1104 12.2759 18.2598 12.338C18.5683 12.4666 18.7326 12.8016 18.8356 13.1193C18.9386 13.4371 19.0151 13.7809 19.2419 14.0261C19.7447 14.5698 20.7569 14.4011 21.196 14.9973C21.4352 15.3223 21.414 15.7626 21.4028 16.1661C21.3915 16.5696 21.4228 17.0236 21.7237 17.2924C22.0094 17.5481 22.4341 17.5449 22.8172 17.5421C23.2002 17.5393 23.6342 17.5737 23.8778 17.8694C24.1178 18.1603 24.0749 18.5878 23.9775 18.9521C23.8802 19.3163 23.7391 19.6925 23.8257 20.0595C23.8433 20.1345 23.9138 20.2246 23.9783 20.1825" stroke="black" stroke-width="0.356161" stroke-linecap="round" stroke-linejoin="round"/>
<path d="M15.338 9.79526C14.7942 10.367 14.646 11.2802 14.9806 11.995C15.3155 12.7098 16.1117 13.1802 16.899 13.1285C17.345 13.0993 17.8534 12.9362 18.1976 13.2215C18.4629 13.4415 18.4949 13.8305 18.6516 14.1374C18.8591 14.5441 19.2919 14.7986 19.737 14.8999C20.1822 15.0013 20.6458 14.9717 21.1014 14.9412" stroke="black" stroke-width="0.356161" stroke-linecap="round" stroke-linejoin="round"/>
<path d="M16.8404 26.7343C16.3476 26.4033 15.884 26.8128 15.6259 27.2392C15.6259 27.2392 15.5778 27.2063 15.5141 27.2223C15.2228 27.1967 14.9043 27.3121 14.5745 27.5257C14.5621 27.3738 14.5545 27.2215 14.5493 27.0705C14.5353 26.6714 14.5333 26.2643 14.4067 25.8853C14.28 25.5066 14.0012 25.1532 13.6141 25.0539C13.2335 24.9561 12.8392 25.1172 12.4469 25.1436C11.575 25.2017 10.7677 24.5558 10.4143 23.7568C10.0609 22.9579 10.0841 22.0419 10.2263 21.1797C10.4495 19.8226 10.9636 18.5664 11.668 17.3908C11.684 17.364 11.7005 17.3367 11.7165 17.3091C11.2673 19.3546 11.4248 21.3055 12.939 22.5147C14.042 23.3958 15.5229 23.2728 16.9498 22.7688C16.9498 22.7688 16.9814 25.4289 16.8404 26.7343Z" fill="#210017"/>
<path d="M17.2685 10.7366C17.563 11.0443 17.6856 11.4662 17.8311 11.8741C17.345 11.792 16.8314 11.7523 16.4688 11.5712C16.1618 11.4181 15.8886 10.9493 15.6882 10.507C16.1903 10.2493 16.8718 10.3215 17.2685 10.7366Z" fill="#6D1151"/>
<path d="M21.9693 15.1012C21.4861 14.7117 20.24 14.4585 19.8962 14.1636C19.7115 14.0049 19.5933 13.6715 19.4611 13.3149C19.7223 13.3883 19.9884 13.4544 20.2372 13.5477C20.9808 13.8262 21.6011 14.3992 21.9693 15.1012Z" fill="#6D1151"/>
<path d="M25.8239 28.1584C25.8119 28.0943 25.7978 28.0302 25.7818 27.9656C25.7073 27.6651 25.5911 27.3638 25.4517 27.0649C25.311 26.7632 25.1467 26.4643 24.9772 26.1718C24.9632 26.1466 24.9488 26.1217 24.9344 26.0973C24.7793 25.8308 24.6214 25.5704 24.4752 25.3183C23.9567 24.4252 24.8106 23.3546 24.8683 22.3854C24.9256 21.4165 24.5068 21.205 23.9307 20.5715C23.3549 19.938 24.2741 18.9155 23.986 18.1666C23.6979 17.4177 23.0644 17.7347 22.5171 17.2739C22.0827 16.908 22.229 16.2157 22.2073 15.6864C22.2562 15.8515 22.2915 16.0205 22.3119 16.192C22.3271 16.321 22.3356 16.4545 22.3949 16.5699C22.5643 16.9 23.0171 16.9105 23.3789 16.9926C24.2945 17.2013 24.9248 18.2455 24.6835 19.1527C24.5698 19.5802 24.2945 19.9697 24.2885 20.412C24.2873 20.5062 24.3001 20.6043 24.3506 20.6837C24.4475 20.8347 24.6455 20.874 24.8126 20.9405C25.5134 21.2194 25.7694 22.1081 25.6724 22.8562C25.5751 23.6042 25.2261 24.2986 25.0946 25.0415C25.0634 25.2178 25.045 25.4005 25.0842 25.5752C25.1407 25.8252 25.3078 26.0324 25.438 26.2527C25.7774 26.8281 25.8604 27.4852 25.8239 28.1584Z" fill="#6D1151"/>
<path d="M37.0992 29.9846C36.9862 29.2998 36.5884 27.8558 36.7751 27.2968C37.0055 26.6057 37.207 25.7414 36.4293 25.3383C35.6516 24.9352 35.5077 24.6183 35.5366 23.7252C35.565 22.8324 34.9892 21.9397 34.3554 21.0178C33.7219 20.0962 34.3265 19.6931 33.8657 18.7711C33.4049 17.8496 32.253 17.8784 32.1953 16.9857C32.1376 16.0926 32.3968 14.7391 31.648 14.1629C30.8991 13.5867 30.4383 13.1259 30.1791 12.2909C29.9198 11.4555 29.891 10.7932 28.9406 10.3897C27.9901 9.98661 28.2782 8.66155 27.6443 8.20077C27.0109 7.73999 26.0028 8.34501 25.2827 7.53844C24.5627 6.73187 24.4762 5.89685 23.67 5.868C22.8634 5.83915 21.5961 6.38648 20.991 6.06955C20.3864 5.75261 20.4726 5.11913 19.6952 5.34952C18.9175 5.57991 18.514 5.868 18.1109 6.09839C18.1109 6.09839 16.8885 4.79137 16.0823 5.30024C15.2757 5.8087 14.4006 6.68379 14.0725 6.75671C13.7447 6.82964 12.6509 6.68379 12.2498 7.12133C11.8487 7.55888 11.5935 8.77294 11.1199 9.05903C10.6459 9.34512 9.33322 10.2567 9.15091 10.7307C8.9686 11.2043 9.15091 11.8241 8.89568 12.4804C8.64044 13.1368 7.83868 14.2667 7.61991 14.8865C7.40114 15.5064 8.2033 16.2721 7.98453 16.9645C7.76576 17.6572 7.10944 18.7511 7.07298 19.2616C7.03652 19.7716 7.36467 20.2821 7.21883 21.4489C7.07298 22.6153 6.12497 23.2351 6.01558 23.9279C5.90619 24.6207 6.85421 25.6777 6.59897 26.3705C6.59897 26.3705 5.57804 26.9539 5.46905 27.5008C5.37008 27.9956 6.23876 29.0206 6.16023 29.6156C8.39122 28.9745 11.662 28.4215 13.9663 28.0133C14.508 27.5048 15.0465 27.1814 15.5145 27.2227C15.5782 27.2067 15.6263 27.2395 15.6263 27.2395C15.8844 26.8132 16.3479 26.4037 16.8408 26.7347C16.9818 25.4293 16.9502 22.7691 16.9502 22.7691C15.5233 23.2732 14.0424 23.3962 12.9394 22.5151C9.12046 19.4651 13.9306 11.6963 15.3442 9.59193C15.3543 9.62599 15.8419 11.2572 16.4694 11.5709C17.1028 11.8874 18.1975 11.7724 18.8021 12.2044C19.4071 12.6363 19.4933 13.8171 19.8968 14.1629C20.2999 14.5087 21.9419 14.7968 22.1434 15.3149C22.3449 15.8333 21.9703 16.8126 22.5176 17.2738C23.065 17.7346 23.6984 17.4176 23.9865 18.1665C24.2746 18.9154 23.3555 19.9379 23.9312 20.5714C24.5074 21.2049 24.9261 21.4164 24.8688 22.3853C24.8111 23.3545 23.9573 24.4252 24.4758 25.3183C24.622 25.5703 24.7799 25.8307 24.9349 26.0972C24.9494 26.1216 24.9638 26.1465 24.9778 26.1717C25.1473 26.4642 25.3116 26.7631 25.4522 27.0648C25.5917 27.3638 25.7079 27.6651 25.7824 27.9656C25.8012 28.0405 25.8168 28.115 25.8301 28.1896C26.0028 29.1688 25.542 30.2923 26.3197 30.7243C27.0974 31.1562 28.2205 30.0042 28.8544 30.0331C28.8576 30.0331 28.8608 30.0335 28.864 30.0339C29.4959 30.0667 30.2696 30.5516 31.0433 30.5516C31.817 30.5516 33.2611 30.3212 33.5776 30.465C33.8946 30.6093 34.9604 31.7901 35.767 31.3581C36.5731 30.9258 37.0339 30.6093 37.1205 30.3212C37.1369 30.2659 37.1261 30.1465 37.0992 29.9846ZM25.5516 27.2395C25.5516 27.2395 25.5969 27.181 25.6474 27.2239C25.6149 27.2275 25.5832 27.2323 25.5516 27.2395Z" stroke="black" stroke-width="0.356161" stroke-linecap="round" stroke-linejoin="round"/>
<path d="M15.5284 13.8599H19.2207V14.557C19.2207 15.5567 18.4093 16.3681 17.4096 16.3681H17.3399C16.3402 16.3681 15.5288 15.5567 15.5288 14.557V13.8599H15.5284Z" fill="#E86F3A" stroke="black" stroke-width="0.356161" stroke-linecap="round" stroke-linejoin="round"/>
<path d="M10.587 13.8599H14.2793V14.557C14.2793 15.5567 13.4679 16.3681 12.4682 16.3681H12.3985C11.3988 16.3681 10.5874 15.5567 10.5874 14.557V13.8599H10.587Z" fill="#E86F3A" stroke="black" stroke-width="0.356161" stroke-linecap="round" stroke-linejoin="round"/>
<path d="M14.28 14.5571C14.28 14.5571 14.6883 13.9112 15.5294 14.5571" stroke="black" stroke-width="0.356161" stroke-linecap="round" stroke-linejoin="round"/>
</g>
<defs>
<clipPath id="clip0_3438_17055">
<rect width="40" height="40" rx="20" fill="white"/>
</clipPath>
</defs>
</svg>
