<svg width="112" height="28" viewBox="0 0 112 28" fill="none" xmlns="http://www.w3.org/2000/svg">
<path d="M22.8112 12.8483C26.2032 12.8483 28.9525 10.099 28.9525 6.70703C28.9525 3.31506 26.2032 0.565737 22.8112 0.565736C19.4192 0.565735 16.6699 3.31506 16.6699 6.70703C16.6699 10.099 19.4192 12.8483 22.8112 12.8483Z" fill="#6E15B5"/>
<path d="M14.8511 13.5281L14.8512 0.570132L1.60938 0.570129C1.66122 7.72383 7.39046 13.5254 14.5128 13.7041L14.5128 26.6621L27.7545 26.6621C27.7027 19.5084 21.9735 13.7068 14.8511 13.5281Z" fill="#6E15B5"/>
<path d="M6.26545 26.6264C9.72576 26.6264 12.5309 23.8213 12.5309 20.361C12.5309 16.9007 9.72577 14.0955 6.26545 14.0955C2.80514 14.0955 -4.90467e-07 16.9007 -1.09549e-06 20.361C-1.70051e-06 23.8213 2.80513 26.6264 6.26545 26.6264Z" fill="#6E15B5"/>
<path d="M47.3157 14.1147C46.8149 13.442 46.1573 12.9413 45.34 12.6083C44.524 12.2782 43.5212 12.0012 42.3328 11.7815C41.1594 11.5605 40.293 11.3681 39.7308 11.2071C39.1714 11.0461 38.7361 10.8332 38.4319 10.5699C38.1249 10.3066 37.9721 9.93679 37.9721 9.46061C37.9721 8.79613 38.2272 8.2872 38.7361 7.92972C39.2478 7.57224 39.9259 7.39486 40.776 7.39486C41.6929 7.39486 42.4324 7.62818 42.9945 8.09618C43.5567 8.56145 43.8773 9.17817 43.9633 9.94498L47.71 9.94498C47.6936 8.8739 47.3839 7.91335 46.7808 7.06331C46.1777 6.21327 45.3523 5.54743 44.3085 5.06306C43.2619 4.57868 42.0858 4.33582 40.7773 4.33582C39.4688 4.33582 38.3596 4.56913 37.3485 5.03713C36.3375 5.50513 35.5461 6.14641 34.9785 6.96097C34.4082 7.7769 34.1244 8.70471 34.1244 9.74031C34.1244 10.8782 34.3754 11.7938 34.8762 12.4801C35.3769 13.1691 36.0264 13.6876 36.8273 14.0355C37.6255 14.3848 38.6106 14.6686 39.784 14.8897C40.9738 15.1271 41.8539 15.3263 42.4215 15.4887C42.9918 15.6497 43.4339 15.8707 43.7477 16.1504C44.0629 16.4301 44.2198 16.8081 44.2198 17.2842C44.2198 17.9651 43.936 18.4959 43.3656 18.8779C42.7953 19.2599 42.0599 19.4523 41.1607 19.4523C40.0733 19.4523 39.2014 19.1849 38.5478 18.6487C37.8943 18.1138 37.5327 17.4043 37.4645 16.5202L33.7178 16.4697C33.7341 17.6076 34.0562 18.635 34.6852 19.5546C35.3155 20.4715 36.186 21.1892 37.2994 21.7077C38.4128 22.2262 39.6817 22.4868 41.1102 22.4868C42.4337 22.4868 43.629 22.2398 44.6919 21.7473C45.7534 21.2547 46.5816 20.578 47.1765 19.7197C47.7714 18.8615 48.0688 17.8887 48.0688 16.7999C48.0688 15.7111 47.8178 14.7819 47.317 14.112L47.3157 14.1147Z" fill="black"/>
<path d="M64.8901 9.23273L62.2131 18.4863L59.8158 9.65024L56.5794 9.65024L54.107 18.4617L51.8994 10.6954L48.3096 10.6954L51.9662 22.3367L55.7907 22.3367L58.1362 14.4339L60.4298 22.3367L64.2543 22.3367L68.3544 9.2341L64.8942 9.2341L64.8901 9.23273Z" fill="black"/>
<path d="M72.3813 4.42859L68.8037 6.34152C68.8938 6.68399 69.0684 6.98416 69.3345 7.24341C69.7356 7.63363 70.2323 7.82875 70.8272 7.82875C71.4221 7.82875 71.9132 7.635 72.3062 7.24341C72.6964 6.85318 72.8915 6.36881 72.8915 5.79029C72.8915 5.25134 72.7223 4.79562 72.3826 4.42859L72.3813 4.42859ZM69.0166 9.23138L69.0166 22.334L72.6105 22.334L72.6105 9.23138L69.0166 9.23138Z" fill="black"/>
<path d="M87.1559 12.2658C86.6374 11.2452 85.9238 10.4593 85.0151 9.90534C84.105 9.35411 83.064 9.07849 81.8905 9.07849C80.99 9.07849 80.1973 9.25587 79.5083 9.61335C78.8192 9.97083 78.2557 10.447 77.8123 11.0419L77.6008 9.97082L74.3193 11.7255L74.3193 27.4341L74.3234 27.4341L77.9132 25.5144L77.9132 20.6775C78.8656 21.885 80.1837 22.4881 81.8646 22.4881C83.038 22.4881 84.0832 22.2098 85.0014 21.6585C85.9183 21.1046 86.636 20.3282 87.1545 19.3253C87.673 18.3225 87.9336 17.1491 87.9336 15.8065C87.9336 14.4639 87.673 13.2837 87.1545 12.2644L87.1559 12.2658ZM83.3969 18.4971C82.802 19.2025 82.0202 19.5559 81.0514 19.5559C80.0827 19.5559 79.3077 19.2066 78.7305 18.5094C78.152 17.8136 77.8641 16.8953 77.8641 15.7574C77.8641 14.6194 78.152 13.7298 78.7305 13.0422C79.3063 12.3531 80.0813 12.0079 81.0514 12.0079C82.0215 12.0079 82.802 12.3531 83.3969 13.0422C83.9904 13.7298 84.2892 14.6358 84.2892 15.7574C84.2892 16.8789 83.9904 17.7917 83.3969 18.4971Z" fill="black"/>
<path d="M100.413 10.5058C99.4183 9.55614 98.1466 9.07995 96.6021 9.07995C95.0575 9.07995 93.6945 9.66529 92.7258 10.8387L92.7258 4.61145L89.1318 6.53529L89.1318 22.3367L92.7257 22.3367L92.7257 15.6074C92.7258 14.4858 92.9864 13.6085 93.5048 12.9809C94.0233 12.3519 94.741 12.0394 95.6579 12.0394C96.5748 12.0394 97.2052 12.3232 97.6459 12.8935C98.0879 13.4611 98.3103 14.2907 98.3103 15.3782L98.3103 22.3367L101.904 22.3367L101.904 15.2253C101.904 13.0327 101.408 11.4595 100.413 10.5071L100.413 10.5058Z" fill="black"/>
<path d="M110.751 9.23287C109.782 9.23287 109.008 9.39796 108.43 9.72952C107.851 10.0611 107.367 10.5509 106.977 11.1949L106.657 9.31064L103.383 11.0612L103.383 22.2427L106.977 20.3189L106.977 15.9104C106.977 14.8584 107.215 14.0247 107.69 13.4121C108.166 12.8009 108.914 12.4939 109.933 12.4939L111.362 12.4939L111.362 9.23151L110.751 9.23151L110.751 9.23287Z" fill="black"/>
</svg>
