<svg width="25" height="24" viewBox="0 0 25 24" fill="none" xmlns="http://www.w3.org/2000/svg">
<path d="M12.4998 12.5274L16.3185 16.3452L15.045 17.6187L13.3998 15.9735V21H11.5998V15.9717L9.95461 17.6187L8.68111 16.3452L12.4998 12.5274ZM12.4998 3C14.0451 3.00007 15.5365 3.568 16.6904 4.59581C17.8443 5.62361 18.5803 7.03962 18.7584 8.5746C19.8782 8.87998 20.8552 9.56919 21.5184 10.5218C22.1816 11.4744 22.489 12.6297 22.3869 13.786C22.2847 14.9422 21.7794 16.0257 20.9594 16.8472C20.1394 17.6687 19.0567 18.1759 17.9007 18.2802V16.4676C18.3149 16.4085 18.7131 16.2674 19.0721 16.0527C19.4312 15.8379 19.7439 15.5539 19.9919 15.217C20.24 14.8801 20.4184 14.4972 20.5169 14.0906C20.6153 13.6839 20.6318 13.2618 20.5653 12.8488C20.4989 12.4357 20.3508 12.0401 20.1298 11.6849C19.9087 11.3297 19.6191 11.0221 19.2779 10.78C18.9367 10.538 18.5506 10.3663 18.1424 10.2751C17.7341 10.1838 17.3117 10.1748 16.8999 10.2486C17.0409 9.5924 17.0332 8.91297 16.8776 8.2601C16.722 7.60722 16.4223 6.99743 16.0004 6.47538C15.5786 5.95333 15.0454 5.53225 14.4397 5.24298C13.8341 4.9537 13.1714 4.80357 12.5003 4.80357C11.8291 4.80357 11.1664 4.9537 10.5608 5.24298C9.95515 5.53225 9.42189 5.95333 9.00007 6.47538C8.57825 6.99743 8.27854 7.60722 8.12291 8.2601C7.96728 8.91297 7.95966 9.5924 8.10061 10.2486C7.2795 10.0944 6.43076 10.2727 5.74112 10.7443C5.05147 11.2159 4.5774 11.9421 4.42321 12.7632C4.26901 13.5843 4.44731 14.433 4.91889 15.1227C5.39047 15.8123 6.1167 16.2864 6.93781 16.4406L7.09981 16.4676V18.2802C5.94371 18.1761 4.86097 17.669 4.04083 16.8476C3.22068 16.0261 2.7153 14.9426 2.61301 13.7863C2.51073 12.6301 2.81804 11.4747 3.48124 10.522C4.14444 9.56934 5.12134 8.88005 6.24121 8.5746C6.41914 7.03954 7.15507 5.62342 8.30903 4.59558C9.46298 3.56774 10.9545 2.99988 12.4998 3Z" fill="#525866"/>
</svg>
