<svg width="16" height="16" viewBox="0 0 16 16" fill="none" xmlns="http://www.w3.org/2000/svg">
<path d="M8.6002 9.23759V14.0004H3.2002C3.20013 13.3194 3.34499 12.6461 3.62516 12.0253C3.90532 11.4046 4.31437 10.8506 4.82513 10.4001C5.33589 9.9496 5.93666 9.61296 6.58754 9.41253C7.23842 9.21209 7.9245 9.15246 8.6002 9.23759ZM8.0002 8.60039C6.0112 8.60039 4.4002 6.98939 4.4002 5.00039C4.4002 3.01139 6.0112 1.40039 8.0002 1.40039C9.9892 1.40039 11.6002 3.01139 11.6002 5.00039C11.6002 6.98939 9.9892 8.60039 8.0002 8.60039ZM11.476 12.7488L13.597 10.6278L14.446 11.4762L11.476 14.4462L9.3544 12.3246L10.2034 11.4762L11.4754 12.7488H11.476Z" fill="#868C98"/>
</svg>
