<svg width="14" height="14" viewBox="0 0 14 14" fill="none" xmlns="http://www.w3.org/2000/svg">
<path d="M5.75456 0.814962C4.87858 0.531393 3.92631 0.925831 3.50741 1.74577L3.00379 2.7315C2.94396 2.84862 2.8487 2.94388 2.73158 3.00372L1.74584 3.50733C0.925907 3.92624 0.531469 4.87851 0.815038 5.75448L1.15595 6.80761C1.19646 6.93273 1.19646 7.06748 1.15595 7.1926L0.815038 8.24573C0.531469 9.12173 0.925907 10.074 1.74584 10.4929L2.73158 10.9965C2.8487 11.0564 2.94396 11.1516 3.00379 11.2687L3.50741 12.2545C3.92631 13.0744 4.87858 13.4689 5.75456 13.1853L6.80768 12.8444C6.93281 12.8039 7.06756 12.8039 7.19268 12.8444L8.24581 13.1853C9.12181 13.4689 10.0741 13.0744 10.493 12.2545L10.9966 11.2687C11.0564 11.1516 11.1517 11.0564 11.2688 10.9965L12.2546 10.4929C13.0745 10.074 13.4689 9.12173 13.1854 8.24573L12.8444 7.1926C12.8039 7.06748 12.8039 6.93273 12.8444 6.80761L13.1854 5.75448C13.4689 4.87851 13.0745 3.92624 12.2546 3.50733L11.2688 3.00372C11.1517 2.94388 11.0564 2.84862 10.9966 2.7315L10.493 1.74577C10.0741 0.925831 9.12181 0.531393 8.24581 0.814962L7.19268 1.15587C7.06756 1.19637 6.93281 1.19638 6.80768 1.15587L5.75456 0.814962ZM3.72504 6.84842L4.60893 5.96448L6.37668 7.73229L9.91224 4.19676L10.7961 5.08064L6.37668 9.50004L3.72504 6.84842Z" fill="#35B9E9"/>
</svg>
